# Blender 4.4.1
# www.blender.org
o bullet
v 0.000378 -0.888443 -0.582468
v 0.000378 -1.100114 0.321850
v 0.000378 -1.021045 0.170284
v 0.066259 -1.275362 -0.680875
v -0.174871 -1.165996 -0.680875
v -0.065504 -0.924866 -0.680875
v 0.066259 -0.924866 -0.680875
v 0.184994 -1.049185 -0.670165
v 0.079447 -1.100114 0.170284
v 0.212048 -1.100114 -0.582468
v 0.184994 -1.151043 -0.670165
v 0.000378 -1.179183 0.170284
v 0.000378 -1.311785 -0.582468
v -0.050552 -1.284731 -0.670165
v -0.078692 -1.100114 0.170284
v -0.211293 -1.100114 -0.582468
v -0.184239 -1.049185 -0.670165
v 0.071208 -1.017151 0.017266
v 0.166436 -1.032799 -0.392758
v 0.080787 -0.934910 -0.469101
v 0.166436 -1.167429 -0.392758
v 0.071208 -1.183078 0.017266
v 0.080787 -1.265318 -0.469101
v 0.012511 -0.959459 -0.772019
v 0.012511 -1.240769 -0.772019
v -0.066545 -1.167037 -0.788758
v -0.140278 -1.087980 -0.772019
v -0.066937 -1.266173 -0.392758
v -0.082586 -1.170944 0.017266
v -0.164826 -1.180523 -0.469101
v -0.165681 -1.032799 -0.392758
v -0.070453 -1.017151 0.017266
v -0.080032 -0.934910 -0.469101
v 0.146790 -1.100114 -0.763124
vn 0.4636 0.8855 0.0305
vn 0.4629 0.8859 0.0303
vn 0.4559 0.8896 0.0281
vn 0.2972 0.9403 0.1658
vn 0.2980 0.9399 0.1668
vn 0.2970 0.9405 0.1652
vn 0.6619 0.6618 0.3520
vn 0.6618 0.6619 0.3520
vn 0.6619 0.6619 0.3520
vn 0.7369 0.6760 -0.0009
vn 0.7371 0.6758 -0.0010
vn 0.7350 0.6780 -0.0002
vn 0.9683 0.1853 0.1674
vn 0.9691 0.1824 0.1663
vn 0.9701 0.1777 0.1656
vn 0.8824 -0.4681 0.0480
vn 0.8833 -0.4664 0.0473
vn 0.8805 -0.4715 0.0492
vn 0.7065 -0.6939 0.1391
vn 0.7074 -0.6932 0.1383
vn 0.7045 -0.6956 0.1405
vn 0.7349 -0.6782 -0.0065
vn 0.7357 -0.6773 -0.0068
vn 0.7391 -0.6736 -0.0085
vn 0.6618 -0.6619 0.3520
vn 0.6619 -0.6618 0.3520
vn 0.6619 -0.6619 0.3520
vn 0.3161 -0.9346 0.1629
vn 0.3153 -0.9350 0.1623
vn 0.3125 -0.9362 0.1610
vn -0.0079 0.9362 -0.3514
vn -0.0077 0.9360 -0.3519
vn -0.0078 0.9361 -0.3517
vn -0.1098 0.1184 -0.9869
vn -0.1098 0.1180 -0.9869
vn -0.1099 0.1177 -0.9870
vn 0.6085 0.5724 -0.5496
vn 0.6138 0.5689 -0.5474
vn 0.6099 0.5715 -0.5489
vn 0.9377 -0.0718 -0.3398
vn 0.9381 -0.0716 -0.3389
vn 0.9379 -0.0716 -0.3394
vn 0.6271 -0.5238 -0.5766
vn 0.6259 -0.5245 -0.5772
vn 0.6277 -0.5234 -0.5763
vn 0.1066 0.0508 -0.9930
vn 0.1025 0.0499 -0.9935
vn 0.1046 0.0505 -0.9932
vn 0.0823 -0.9351 -0.3447
vn 0.0825 -0.9349 -0.3453
vn 0.0824 -0.9350 -0.3449
vn -0.5885 -0.5992 -0.5427
vn -0.5833 -0.6158 -0.5297
vn -0.5877 -0.6061 -0.5359
vn -0.6156 0.6052 -0.5047
vn -0.6318 0.6060 -0.4834
vn -0.6220 0.6095 -0.4915
vn -0.6393 -0.4162 -0.6466
vn -0.6454 -0.4136 -0.6422
vn -0.6417 -0.4150 -0.6450
vn -0.9292 -0.1051 -0.3544
vn -0.9284 -0.1052 -0.3564
vn -0.9288 -0.1050 -0.3554
vn -0.4681 -0.8824 0.0480
vn -0.4664 -0.8833 0.0473
vn -0.4715 -0.8805 0.0492
vn -0.6939 -0.7065 0.1391
vn -0.6932 -0.7074 0.1383
vn -0.6956 -0.7045 0.1405
vn -0.6782 -0.7349 -0.0065
vn -0.6773 -0.7357 -0.0068
vn -0.6736 -0.7391 -0.0085
vn -0.6619 -0.6618 0.3520
vn -0.6618 -0.6619 0.3520
vn -0.6619 -0.6619 0.3520
vn -0.9346 -0.3161 0.1629
vn -0.9350 -0.3153 0.1623
vn -0.9362 -0.3125 0.1610
vn -0.8824 0.4681 0.0480
vn -0.8833 0.4664 0.0473
vn -0.8805 0.4715 0.0492
vn -0.7065 0.6939 0.1391
vn -0.7074 0.6932 0.1383
vn -0.7045 0.6956 0.1405
vn -0.7349 0.6782 -0.0065
vn -0.7357 0.6773 -0.0068
vn -0.7391 0.6736 -0.0085
vn -0.6618 0.6619 0.3520
vn -0.6619 0.6618 0.3520
vn -0.6619 0.6619 0.3520
vn -0.3161 0.9346 0.1629
vn -0.3153 0.9350 0.1623
vn -0.3125 0.9362 0.1610
vn 0.3161 0.9346 0.1629
vn 0.3125 0.9362 0.1610
vn 0.3153 0.9350 0.1623
vn 0.6701 0.6699 0.3198
vn 0.6693 0.6707 0.3198
vn 0.6686 0.6713 0.3199
vn 0.8832 0.4315 0.1836
vn 0.8804 0.4374 0.1835
vn 0.8795 0.4390 0.1838
vn 0.8824 0.4681 0.0480
vn 0.8805 0.4715 0.0492
vn 0.8833 0.4664 0.0473
vn 0.7349 0.6782 -0.0065
vn 0.7391 0.6736 -0.0085
vn 0.7357 0.6773 -0.0068
vn 0.7065 0.6939 0.1391
vn 0.7045 0.6956 0.1405
vn 0.7074 0.6932 0.1383
vn 0.9683 -0.1853 0.1674
vn 0.9701 -0.1777 0.1656
vn 0.9691 -0.1824 0.1663
vn 0.7369 -0.6761 -0.0009
vn 0.7350 -0.6780 -0.0002
vn 0.7371 -0.6758 -0.0010
vn 0.6686 -0.6713 0.3199
vn 0.6693 -0.6707 0.3198
vn 0.6701 -0.6699 0.3198
vn 0.8795 -0.4390 0.1838
vn 0.8804 -0.4374 0.1835
vn 0.8832 -0.4315 0.1836
vn 0.4636 -0.8855 0.0305
vn 0.4559 -0.8896 0.0281
vn 0.4629 -0.8859 0.0303
vn 0.2972 -0.9403 0.1658
vn 0.2970 -0.9405 0.1652
vn 0.2980 -0.9399 0.1668
vn 0.0067 0.9360 -0.3519
vn 0.0067 0.9360 -0.3518
vn 0.0068 0.9362 -0.3514
vn -0.4524 0.5997 -0.6600
vn -0.4540 0.5958 -0.6625
vn -0.4572 0.5897 -0.6657
vn 0.6271 0.5238 -0.5765
vn 0.6276 0.5235 -0.5762
vn 0.6259 0.5246 -0.5771
vn 0.9377 0.0718 -0.3398
vn 0.9379 0.0716 -0.3394
vn 0.9381 0.0716 -0.3389
vn 0.6085 -0.5724 -0.5496
vn 0.6099 -0.5715 -0.5489
vn 0.6138 -0.5689 -0.5474
vn 0.1418 -0.0838 -0.9863
vn 0.1415 -0.0838 -0.9864
vn 0.1421 -0.0838 -0.9863
vn 0.0068 -0.9362 -0.3514
vn 0.0067 -0.9360 -0.3518
vn 0.0067 -0.9360 -0.3519
vn -0.4502 -0.6617 -0.5995
vn -0.4500 -0.6620 -0.5994
vn -0.4495 -0.6628 -0.5988
vn -0.9360 -0.0077 -0.3519
vn -0.9361 -0.0078 -0.3517
vn -0.9362 -0.0079 -0.3514
vn -0.1853 -0.9683 0.1674
vn -0.1777 -0.9701 0.1656
vn -0.1824 -0.9691 0.1663
vn -0.6761 -0.7369 -0.0009
vn -0.6780 -0.7350 -0.0002
vn -0.6758 -0.7371 -0.0010
vn -0.6713 -0.6686 0.3199
vn -0.6707 -0.6693 0.3198
vn -0.6699 -0.6701 0.3198
vn -0.4390 -0.8795 0.1838
vn -0.4374 -0.8804 0.1835
vn -0.4315 -0.8832 0.1836
vn -0.8855 -0.4636 0.0305
vn -0.8896 -0.4559 0.0281
vn -0.8859 -0.4629 0.0303
vn -0.9403 -0.2972 0.1658
vn -0.9405 -0.2970 0.1652
vn -0.9399 -0.2980 0.1668
vn -0.9683 0.1853 0.1674
vn -0.9701 0.1777 0.1656
vn -0.9691 0.1824 0.1663
vn -0.7369 0.6761 -0.0009
vn -0.7350 0.6780 -0.0002
vn -0.7371 0.6758 -0.0010
vn -0.6686 0.6713 0.3199
vn -0.6693 0.6707 0.3198
vn -0.6701 0.6699 0.3198
vn -0.8795 0.4390 0.1838
vn -0.8804 0.4374 0.1835
vn -0.8832 0.4315 0.1836
vn -0.4636 0.8855 0.0305
vn -0.4559 0.8896 0.0281
vn -0.4629 0.8859 0.0303
vn -0.2972 0.9403 0.1658
vn -0.2970 0.9405 0.1652
vn -0.2980 0.9399 0.1668
vt 0.774375 0.735280
vt 0.784489 0.716219
vt 0.787828 0.728873
vt 0.778438 0.683397
vt 0.783636 0.664468
vt 0.767120 0.682378
vt 0.771088 0.664811
vt 0.812909 0.700737
vt 0.801519 0.691612
vt 0.818589 0.687333
vt 0.748218 0.651107
vt 0.760906 0.638346
vt 0.761232 0.654187
vt 0.765924 0.610967
vt 0.787705 0.637393
vt 0.794730 0.647805
vt 0.769765 0.598684
vt 0.748218 0.603312
vt 0.753592 0.590625
vt 0.805900 0.638716
vt 0.681069 0.657192
vt 0.693591 0.667849
vt 0.675035 0.674465
vt 0.714177 0.716419
vt 0.688482 0.714895
vt 0.738929 0.654743
vt 0.697782 0.652894
vt 0.752641 0.658828
vt 0.740112 0.669958
vt 0.755785 0.672205
vt 0.740145 0.716076
vt 0.751127 0.729769
vt 0.737244 0.733685
vt 0.696058 0.733708
vt 0.675184 0.715189
vt 0.679555 0.728133
vt 0.698358 0.600139
vt 0.700121 0.613753
vt 0.689852 0.604730
vt 0.713130 0.632089
vt 0.686443 0.627440
vt 0.675858 0.624848
vt 0.717225 0.641095
vt 0.725971 0.627851
vt 0.729394 0.637845
vt 0.674945 0.635593
vt 0.735299 0.578996
vt 0.728588 0.590508
vt 0.726399 0.578376
vt 0.727230 0.614576
vt 0.710544 0.595830
vt 0.704332 0.589268
vt 0.724855 0.626731
vt 0.739045 0.619226
vt 0.735595 0.632092
vt 0.697311 0.599088
vt 0.755785 0.712982
s 0
f 1/1/1 20/2/2 7/3/3
f 1/1/4 18/4/5 20/2/6
f 9/5/7 3/6/8 2/7/9
f 8/8/10 20/2/11 19/9/12
f 10/10/13 19/9/14 9/5/15
f 10/11/16 21/12/17 11/13/18
f 21/12/19 22/14/20 23/15/21
f 11/13/22 23/15/23 4/16/24
f 12/17/25 9/18/26 2/19/27
f 13/20/28 22/14/29 12/17/30
f 1/21/31 24/22/32 6/23/33
f 24/22/34 26/24/35 27/25/36
f 8/26/37 24/22/38 7/27/39
f 10/28/40 34/29/41 8/26/42
f 11/30/43 25/31/44 34/29/45
f 34/29/46 26/24/47 24/22/48
f 25/31/49 13/32/50 14/33/51
f 26/24/52 14/33/53 5/34/54
f 27/25/55 17/35/56 6/23/57
f 26/24/58 5/34/59 27/25/60
f 27/25/61 16/36/62 17/35/63
f 13/37/64 28/38/65 14/39/66
f 28/38/67 29/40/68 30/41/69
f 14/39/70 30/41/71 5/42/72
f 15/43/73 12/44/74 2/45/75
f 16/46/76 29/40/77 15/43/78
f 16/47/79 31/48/80 17/49/81
f 31/48/82 32/50/83 33/51/84
f 17/49/85 33/51/86 6/52/87
f 3/53/88 15/54/89 2/55/90
f 1/56/91 32/50/92 3/53/93
f 1/1/94 3/6/95 18/4/96
f 9/5/97 18/4/98 3/6/99
f 9/5/100 19/9/101 18/4/102
f 10/10/103 8/8/104 19/9/105
f 8/8/106 7/3/107 20/2/108
f 19/9/109 20/2/110 18/4/111
f 10/11/112 9/18/113 21/12/114
f 11/13/115 21/12/116 23/15/117
f 12/17/118 22/14/119 9/18/120
f 22/14/121 21/12/122 9/18/123
f 13/20/124 4/16/125 23/15/126
f 13/20/127 23/15/128 22/14/129
f 1/21/130 7/27/131 24/22/132
f 6/23/133 24/22/134 27/25/135
f 8/26/136 34/29/137 24/22/138
f 10/28/139 11/30/140 34/29/141
f 11/30/142 4/57/143 25/31/144
f 34/29/145 25/31/146 26/24/147
f 25/31/148 4/57/149 13/32/150
f 26/24/151 25/31/152 14/33/153
f 27/25/154 5/34/155 16/36/156
f 13/37/157 12/44/158 28/38/159
f 14/39/160 28/38/161 30/41/162
f 15/43/163 29/40/164 12/44/165
f 29/40/166 28/38/167 12/44/168
f 16/46/169 5/42/170 30/41/171
f 16/46/172 30/41/173 29/40/174
f 16/47/175 15/54/176 31/48/177
f 17/49/178 31/48/179 33/51/180
f 3/53/181 32/50/182 15/54/183
f 32/50/184 31/48/185 15/54/186
f 1/56/187 6/52/188 33/51/189
f 1/56/190 33/51/191 32/50/192
