# Blender 4.4.1
# www.blender.org
o Cylinder.001
v 7.427368 -0.741033 3.862008
v 7.827054 -0.682471 -5.893823
v 7.525330 -1.246956 -1.011367
v 7.954762 -1.321217 -5.893823
v 7.309973 -1.709078 -5.893823
v 6.547760 -1.587547 -5.893823
v 6.209723 -0.998792 -2.266435
v 6.214276 -1.035267 -5.893823
v 6.594347 -0.559466 -5.893823
v 6.684494 -0.519356 -2.213311
v 7.176721 -0.445540 -5.893822
v 7.484661 -0.824801 -1.012779
v 8.034035 -1.037871 -2.274054
v 7.543188 -1.183655 3.862008
v 7.606316 -1.613102 -2.218301
v 7.245367 -1.523986 3.862008
v 7.100224 -1.546875 -0.940046
v 6.662010 -1.660065 -2.143924
v 6.636674 -1.068952 -0.998323
v 6.765437 -1.371549 3.862008
v 6.678125 -0.977674 3.862008
v 7.040831 -0.631595 -0.989456
v 6.927461 -0.669408 3.862008
v 7.447150 -0.482732 -2.186552
v -6.666862 -1.091484 3.862008
v -7.441219 -0.485427 -2.221275
v -7.437604 -0.763142 -1.024868
v -7.682556 -0.596091 -5.893823
v -7.192384 -0.647010 3.862008
v -7.977438 -0.898880 -2.241949
v -7.487376 -0.836509 3.862008
v -7.995446 -1.004509 -5.893823
v -7.828615 -1.449507 -5.893823
v -7.261736 -1.515619 -1.001284
v -7.192794 -1.736616 -5.893823
v -6.780313 -1.390418 -1.023065
v -6.414827 -1.483747 -5.893823
v -6.871071 -1.470268 3.862008
v -6.236668 -0.929750 -5.893823
v -6.951707 -0.651091 -1.003968
v -6.664971 -0.533197 -5.893823
v -7.176720 -0.445540 -5.893822
v -6.733579 -0.499782 -2.207851
v -7.545706 -1.168871 -1.009333
v -7.543414 -1.156062 3.862008
v -7.814610 -1.482201 -2.235399
v -7.358537 -1.461266 3.862008
v -7.110131 -1.723217 -2.198472
v -6.445968 -1.508160 -2.231370
v -6.223770 -0.955061 -2.258055
v -6.676585 -0.993614 -1.010017
v -6.829211 -0.727884 3.862008
vn 0.3423 0.9395 -0.0155
vn 0.3986 0.9170 -0.0111
vn 0.6899 0.7006 0.1821
vn 0.9799 0.1959 -0.0368
vn 0.9954 0.0959 -0.0049
vn 0.7922 -0.5672 0.2252
vn 0.5154 -0.8568 -0.0192
vn 0.5749 -0.8181 -0.0135
vn 0.0553 -0.9958 0.0735
vn -0.1574 -0.9874 -0.0143
vn -0.7161 -0.6976 -0.0245
vn -0.8205 -0.5153 0.2477
vn -0.8560 -0.5169 0.0041
vn -0.7813 0.6241 -0.0073
vn -0.6987 0.6618 0.2718
vn -0.7343 0.6788 -0.0119
vn -0.1920 0.9814 -0.0060
vn -0.0514 0.9930 0.1060
vn -0.0000 -0.0000 -1.0000
vn -0.2282 0.9483 0.2208
vn -0.2242 0.9745 -0.0119
vn -0.7937 0.6081 -0.0137
vn -0.8946 0.2525 0.3687
vn -0.9284 -0.2561 0.2691
vn -0.9364 -0.3510 0.0004
vn -0.4115 -0.9114 -0.0066
vn -0.3270 -0.9372 0.1211
vn 0.2551 -0.9467 0.1965
vn 0.2512 -0.9679 -0.0112
vn 0.3091 -0.9510 -0.0037
vn 0.9520 -0.3061 -0.0055
vn 0.9128 -0.2493 0.3235
vn 0.9675 -0.2527 -0.0070
vn 0.6794 0.7338 0.0027
vn 0.6626 0.7188 0.2104
vn 0.6664 0.7456 0.0056
vn 0.1688 0.9856 -0.0058
vn 0.0177 0.9916 0.1278
vn 0.1418 0.9898 0.0110
vn 0.3978 0.8842 0.2450
vn 0.6893 0.7238 0.0316
vn 0.9674 0.2531 0.0070
vn 0.9186 0.0898 0.3849
vn 0.8035 -0.5946 0.0290
vn 0.7525 -0.6585 0.0058
vn 0.5848 -0.7645 0.2712
vn 0.0514 -0.9984 0.0219
vn -0.3027 -0.9530 0.0137
vn -0.7002 -0.6407 0.3151
vn -0.8266 -0.5627 0.0143
vn -0.9762 -0.2164 0.0124
vn -0.7775 0.6289 -0.0052
vn -0.7111 0.7031 0.0098
vn -0.7105 0.6512 0.2666
vn -0.0484 0.9987 0.0136
vn -0.2852 0.9584 -0.0101
vn -0.5405 0.8413 0.0071
vn -0.6109 0.7915 0.0163
vn -0.6048 0.7753 0.1818
vn -0.9850 0.1727 -0.0000
vn -0.9663 0.2572 -0.0060
vn -0.9631 -0.2687 0.0125
vn -0.8553 -0.5181 0.0018
vn -0.7735 -0.6337 -0.0083
vn -0.7380 -0.5971 0.3144
vn -0.3242 -0.9459 0.0107
vn -0.0185 -0.9998 0.0108
vn 0.3079 -0.9514 -0.0034
vn 0.3111 -0.9337 0.1771
vn 0.8802 -0.4745 0.0086
vn 0.9280 -0.3725 0.0054
vn 0.8950 -0.3460 0.2814
vn 0.9131 0.4077 0.0064
vn 0.7795 0.6263 -0.0097
vn 0.7486 0.5962 0.2900
vn 0.2174 0.9760 0.0099
vn 0.0200 0.9997 0.0123
vt 0.124275 0.762773
vt 0.100315 0.849428
vt 0.078533 0.762850
vt 0.135692 0.878389
vt 0.107958 0.993917
vt 0.105548 0.878421
vt 0.066091 0.849523
vt 0.839192 0.907504
vt 0.858631 0.994094
vt 0.815129 0.994058
vt 0.822324 0.878275
vt 0.851091 0.762852
vt 0.856674 0.878296
vt 0.877344 0.907404
vt 0.214149 0.907247
vt 0.240599 0.993924
vt 0.199481 0.993827
vt 0.229370 0.878261
vt 0.248260 0.762813
vt 0.259640 0.878315
vt 0.295302 0.907258
vt 0.306418 0.993868
vt 0.598443 0.762801
vt 0.622080 0.878296
vt 0.592807 0.878230
vt 0.590103 0.907441
vt 0.626588 0.907513
vt 0.624234 0.994117
vt 0.589805 0.994036
vt 0.654304 0.994018
vt 0.159595 0.878451
vt 0.168507 0.849446
vt 0.193627 0.849529
vt 0.145233 0.993901
vt 0.176474 0.762842
vt 0.992125 0.778802
vt 0.979311 0.796027
vt 0.879992 0.781590
vt 0.904819 0.767317
vt 0.956292 0.764935
vt 0.932816 0.802857
vt 0.890945 0.795021
vt 0.549525 0.849427
vt 0.539997 0.878410
vt 0.506783 0.878398
vt 0.526826 0.993882
vt 0.774694 0.994121
vt 0.782210 0.907500
vt 0.801192 0.994023
vt 0.760683 0.878316
vt 0.791970 0.878258
vt 0.738779 0.907444
vt 0.742086 0.994067
vt 0.395368 0.993926
vt 0.446604 0.907209
vt 0.449878 0.993824
vt 0.388246 0.907308
vt 0.400519 0.878312
vt 0.365947 0.878291
vt 0.370525 0.762802
vt 0.330644 0.993830
vt 0.332660 0.907213
vt 0.706190 0.762806
vt 0.704418 0.849404
vt 0.669505 0.762840
vt 0.702024 0.878597
vt 0.671310 0.878651
vt 0.693580 0.994053
vt 0.479068 0.762817
vt 0.455291 0.849525
vt 0.455905 0.762896
vt 0.485893 0.849432
vt 0.525761 0.762773
vt 0.993943 0.822547
vt 0.881899 0.822520
vt 0.979577 0.810868
vt 0.903884 0.807710
vt 0.949800 0.843353
vt 0.903249 0.840038
vt 0.986421 0.834476
vt 0.942743 0.804446
vt 0.823555 0.762823
vt 0.868946 0.762779
vt 0.280742 0.762797
vt 0.288888 0.878260
vt 0.629902 0.762850
vt 0.648069 0.762776
vt 0.571135 0.762856
vt 0.544444 0.993926
vt 0.580985 0.849518
vt 0.761506 0.762860
vt 0.788453 0.762812
vt 0.744639 0.762799
vt 0.742575 0.878248
vt 0.408081 0.762801
vt 0.670176 0.994118
vt 0.666426 0.849457
vt 0.717478 0.994110
vt 0.720212 0.878665
vt 0.497748 0.993915
s 0
f 11/1/1 24/2/1 2/3/1
f 22/4/2 1/5/2 12/6/2
f 24/2/3 12/6/3 13/7/3
f 13/8/4 4/9/4 2/10/4
f 12/11/5 14/12/5 3/13/5
f 3/13/6 15/14/6 13/8/6
f 15/15/7 5/16/7 4/17/7
f 3/18/8 16/19/8 17/20/8
f 17/20/9 18/21/9 15/15/9
f 5/16/10 18/21/10 6/22/10
f 20/23/11 19/24/11 17/25/11
f 18/26/12 19/24/12 7/27/12
f 7/27/13 8/28/13 6/29/13
f 8/28/14 7/27/14 9/30/14
f 19/31/15 10/32/15 7/33/15
f 19/31/16 23/34/16 22/4/16
f 10/32/17 11/1/17 9/35/17
f 22/4/18 24/2/18 10/32/18
f 5/36/19 6/37/19 11/38/19
f 11/38/19 2/39/19 5/36/19
f 4/40/19 5/36/19 2/39/19
f 8/41/19 9/42/19 6/37/19
f 6/37/19 9/42/19 11/38/19
f 26/43/20 27/44/20 40/45/20
f 27/44/21 29/46/21 40/45/21
f 32/47/22 30/48/22 28/49/22
f 30/48/23 44/50/23 27/51/23
f 46/52/24 44/50/24 30/48/24
f 33/53/25 46/52/25 32/47/25
f 35/54/26 46/55/26 33/56/26
f 48/57/27 34/58/27 46/55/27
f 48/57/28 36/59/28 34/58/28
f 36/59/29 38/60/29 34/58/29
f 37/61/30 49/62/30 35/54/30
f 39/63/31 50/64/31 37/65/31
f 50/64/32 51/66/32 36/67/32
f 51/66/33 25/68/33 36/67/33
f 41/69/34 50/70/34 39/71/34
f 43/72/35 40/45/35 50/70/35
f 41/69/36 43/72/36 50/70/36
f 42/73/37 43/72/37 41/69/37
f 26/43/38 40/45/38 43/72/38
f 42/74/19 35/75/19 28/76/19
f 33/77/19 28/76/19 35/75/19
f 39/78/19 37/79/19 41/80/19
f 35/75/19 41/80/19 37/79/19
f 35/75/19 42/74/19 41/80/19
f 28/76/19 33/77/19 32/81/19
f 23/34/39 1/5/39 22/4/39
f 24/2/40 22/4/40 12/6/40
f 24/2/41 13/7/41 2/3/41
f 1/82/42 14/12/42 12/11/42
f 13/8/43 12/11/43 3/13/43
f 13/8/44 15/14/44 4/9/44
f 14/12/45 16/83/45 3/13/45
f 3/18/46 17/20/46 15/15/46
f 15/15/47 18/21/47 5/16/47
f 16/19/48 20/84/48 17/20/48
f 18/21/49 17/20/49 19/85/49
f 18/26/50 7/27/50 6/29/50
f 20/23/51 21/86/51 19/24/51
f 21/86/52 23/87/52 19/24/52
f 7/33/53 10/32/53 9/35/53
f 19/31/54 22/4/54 10/32/54
f 10/32/55 24/2/55 11/1/55
f 42/73/56 28/88/56 26/43/56
f 27/44/57 31/89/57 29/46/57
f 28/88/58 30/90/58 26/43/58
f 26/43/59 30/90/59 27/44/59
f 44/50/60 45/91/60 31/92/60
f 27/51/61 44/50/61 31/92/61
f 32/47/62 46/52/62 30/48/62
f 44/50/63 47/93/63 45/91/63
f 44/50/64 34/94/64 47/93/64
f 46/52/65 34/94/65 44/50/65
f 35/54/66 48/57/66 46/55/66
f 34/58/67 38/60/67 47/95/67
f 35/54/68 49/62/68 48/57/68
f 48/57/69 49/62/69 36/59/69
f 36/67/70 25/68/70 38/96/70
f 37/65/71 50/64/71 49/97/71
f 49/97/72 50/64/72 36/67/72
f 51/66/73 52/98/73 25/68/73
f 51/66/74 40/99/74 52/98/74
f 50/64/75 40/99/75 51/66/75
f 40/45/76 29/46/76 52/100/76
f 42/73/77 26/43/77 43/72/77
