# Blender 4.4.1
# www.blender.org
o Cylinder
v 0.357301 1.540081 0.939028
v 0.000003 2.970921 0.000053
v -0.087381 1.540347 0.998066
v 0.067785 -0.628183 -0.275743
v 0.825247 -2.502367 -0.636235
v 0.391309 -1.593248 -0.343578
v 0.024658 0.396834 0.204831
v 0.224825 -1.607350 0.466333
v -0.127569 0.453405 0.163691
v -0.138333 -0.663047 0.257147
v -0.203149 0.441359 0.025233
v -0.172623 0.436175 -0.113725
v -0.139201 1.796463 -0.146250
v 0.058767 1.539348 -0.997295
v 0.554087 2.743576 -0.317159
v -0.028769 6.713845 0.051524
v -0.675240 1.539579 0.732084
v -0.300310 4.340322 -0.170589
v -0.962574 1.538737 -0.270479
v -0.726459 1.538848 -0.687697
v -0.162295 4.445508 -0.291717
v -0.327049 1.538955 -0.943842
v 0.448665 2.779707 0.443516
v -0.255507 2.759279 0.580125
v -0.859807 1.540041 0.509366
v -0.471516 3.151501 -0.297158
v 0.547703 -1.635584 -0.009081
v 0.728362 -2.440375 0.692800
v 0.111601 1.847525 0.174885
v -0.931181 -2.473562 -0.462493
v -0.138897 -0.603015 -0.245494
v -0.020545 2.925676 -0.105369
v -0.100034 2.921473 -0.048835
v -0.071525 2.919420 0.094429
v 0.096469 2.921412 -0.056887
v -0.025430 2.730881 -0.152947
v 0.083496 2.719731 -0.132411
v 1.597692 -3.359690 -0.633545
v 0.168140 2.717443 -0.624653
v 0.528845 1.539340 -0.854131
v 0.881058 1.541089 -0.486210
v 0.280155 2.759910 0.572267
v 0.073808 4.409559 0.328179
v 0.135445 2.713784 0.631606
v -0.026033 2.770010 0.633473
v -0.447234 2.709224 0.471561
v -0.321559 4.349866 0.125640
v -0.600432 2.763747 -0.209008
v -0.185578 2.757028 -0.606481
v -0.017704 2.775615 -0.628916
v 0.064039 -2.529433 -1.007439
v 1.707746 -3.359934 0.097354
v 1.118140 -2.592431 0.208512
v -0.057698 1.902174 0.193263
v -1.057899 -2.482672 0.059684
v -0.037893 0.417649 -0.201417
v 0.430481 -3.360060 -1.660731
v -0.241625 -3.360057 1.688542
v 0.566349 -3.359927 1.631056
v -0.710751 -3.360050 -1.552221
v 0.315666 4.503538 0.083802
v -0.623385 2.810766 0.050502
v -0.117334 -1.622232 -0.503285
v 0.152829 -1.628620 -0.494898
v 0.099393 0.441252 -0.178843
v 0.202684 1.982262 0.006408
v 0.268894 -0.633429 0.100528
v 1.547579 -3.359627 0.721399
v 0.185945 0.434187 0.104019
v 0.104045 -0.557101 0.258042
v 0.337523 -2.521400 0.960817
v -0.262496 -2.482300 0.963174
v -0.684515 -2.519307 0.786104
v -0.926327 -2.490506 0.496768
v -0.272521 -0.598734 -0.074564
v -1.707535 -3.359913 -0.187682
v -1.371166 -3.359156 -1.002722
v -0.684633 -2.532959 -0.793283
v -0.106802 2.670430 -0.117165
v -0.153972 2.708574 -0.033680
v -0.132489 2.711632 0.084323
v -0.032572 2.713809 0.153143
v 0.051147 2.700375 0.146066
v 0.129478 2.719922 0.088483
v 0.152784 2.721391 -0.034014
v -0.316317 -2.530364 -0.975454
v -0.165235 -3.360081 -1.693229
v -0.708661 -3.359968 1.549840
v 0.328425 2.768928 -0.539313
v 0.146142 4.328279 -0.314482
v 0.065956 6.590222 -0.042831
v 0.586668 2.755347 0.247949
v -0.436721 1.539888 0.898072
v -0.579282 2.754574 0.259506
v -0.487216 2.649945 -0.454464
v -0.016821 6.850113 -0.029526
v -0.036909 1.837221 -0.197902
v 0.116697 1.879498 -0.168419
v 0.496632 -2.531963 -0.913092
v 1.027827 -3.360020 -1.371030
v 0.254744 -0.588237 -0.126195
v 0.982839 -2.450722 -0.292169
v 0.189512 0.434013 -0.076154
v 0.465937 -1.619633 0.254537
v -0.107309 -1.621041 0.507242
v -0.415291 -1.591974 0.325203
v -0.177817 1.870325 0.097767
v -0.260637 -0.620761 0.113934
v -0.543291 -1.622263 -0.010358
v -0.198021 1.833864 -0.039446
v -0.382917 -1.621537 -0.370417
v 0.091580 2.918603 0.062339
v -1.606673 -3.359617 0.601692
v 1.178939 -3.360119 1.230807
v -1.179404 -3.360119 1.230422
v -0.000312 4.360245 -0.343773
v 0.306941 4.340938 -0.167983
v 0.459859 2.780320 -0.430778
v 0.603229 2.826022 -0.145544
v 0.638558 2.744776 0.002875
v 0.995089 1.539748 -0.089937
v 0.948502 1.540538 0.332075
v 0.718001 1.539058 0.693338
v 0.222697 4.336987 0.262737
v 0.059279 6.644387 0.034770
v -0.378556 3.276729 0.379929
v -0.091673 4.383699 0.326178
v -0.225721 4.361585 0.256001
v -0.991194 1.539845 0.152070
v -0.339631 4.356643 -0.028609
v -0.059443 6.639988 -0.039605
v -0.357565 2.758213 -0.525665
vn 0.0354 0.2167 -0.9756
vn 0.0423 0.6291 -0.7762
vn 0.4978 0.2258 -0.8374
vn 0.5395 0.4802 -0.6917
vn 0.7579 0.4976 -0.4218
vn 0.7793 0.6156 -0.1171
vn 0.9335 0.2295 0.2756
vn 0.7504 0.4817 0.4527
vn 0.6472 0.2422 0.7228
vn 0.7024 0.0523 0.7098
vn 0.4361 0.6039 0.6672
vn 0.1222 0.0452 0.9915
vn 0.0546 0.6368 0.7691
vn -0.2238 0.6177 0.7539
vn -0.3724 0.4975 0.7835
vn -0.7498 0.0624 0.6587
vn -0.6725 0.5817 0.4575
vn -0.9182 0.2181 0.3306
vn -0.9958 0.0597 0.0698
vn -0.7604 0.5689 -0.3133
vn -0.8679 0.0470 -0.4944
vn -0.3891 0.4906 -0.7797
vn -0.4368 0.2119 -0.8742
vn 0.2029 0.2275 -0.9524
vn -0.8227 0.1698 -0.5425
vn -0.5646 0.1260 0.8157
vn 0.1273 0.2946 0.9471
vn 0.9605 0.2076 0.1852
vn 0.8056 0.1616 -0.5700
vn 0.1899 0.0495 -0.9805
vn 0.0905 0.0400 0.9951
vn 0.9793 0.0764 0.1872
vn 0.8159 0.0569 -0.5755
vn -0.1962 0.6209 -0.7590
vn -0.0750 0.4729 -0.8779
vn 0.0003 -1.0000 0.0001
vn -0.0000 -1.0000 -0.0000
vn 0.0001 -1.0000 -0.0000
vn 0.0002 -1.0000 0.0008
vn -0.0006 -1.0000 0.0013
vn -0.0012 -1.0000 0.0002
vn -0.0001 -1.0000 -0.0000
vn 0.0775 0.1757 -0.9814
vn 0.1126 0.2901 -0.9503
vn 0.6956 0.2663 -0.6672
vn 0.9700 0.1874 -0.1547
vn 0.9381 0.2923 0.1860
vn 0.3242 0.1780 0.9291
vn 0.5643 0.2702 0.7801
vn 0.4769 0.4181 0.7732
vn -0.0304 0.1178 0.9926
vn -0.2645 0.2799 0.9229
vn -0.5482 0.2822 0.7873
vn -0.7820 0.2937 0.5498
vn -0.8154 0.1871 0.5478
vn -0.9020 0.2765 0.3315
vn -0.9778 0.1734 -0.1179
vn -0.9482 0.2871 -0.1359
vn -0.8599 0.1771 -0.4787
vn -0.6192 0.2526 -0.7435
vn -0.6341 0.2872 -0.7179
vn -0.3913 0.1231 -0.9120
vn -0.5205 0.2653 -0.8116
vn -0.4180 0.1721 -0.8920
vn -0.1496 0.1767 -0.9728
vn 0.0386 0.4913 -0.8701
vn 0.4070 0.5067 -0.7600
vn 0.5726 0.2469 -0.7818
vn 0.6804 0.6118 -0.4035
vn 0.7927 0.5286 -0.3037
vn 0.9632 0.2687 -0.0066
vn 0.8150 0.5360 0.2203
vn 0.6911 0.6271 0.3593
vn 0.7248 0.2133 0.6552
vn 0.3385 0.6421 0.6878
vn 0.0906 0.4531 0.8868
vn 0.0442 0.6311 0.7745
vn -0.1118 0.2476 0.9624
vn -0.2310 0.0834 0.9694
vn -0.4112 0.4832 0.7729
vn -0.6245 0.0142 0.7809
vn -0.6962 0.2567 0.6704
vn -0.5704 0.6203 0.5384
vn -0.8157 0.5144 0.2647
vn -0.7509 0.6164 0.2371
vn -0.9613 0.2600 0.0910
vn -0.9897 0.0103 0.1430
vn -0.7726 0.5342 -0.3430
vn -0.7669 0.6174 -0.1753
vn -0.5754 0.6149 -0.5393
vn -0.3440 0.6407 -0.6864
vn 0.5443 0.2107 0.8120
vn 0.9602 0.2756 0.0459
vn -0.9479 0.2538 0.1923
vn 0.1843 0.3221 0.9286
vn -0.2831 0.9001 -0.3311
vn -0.4826 0.8691 0.1085
vn 0.4749 0.8791 0.0402
vn 0.2060 0.8840 -0.4196
vn -0.1117 0.2415 -0.9640
vn -0.0655 0.6460 -0.7605
vn -0.0007 -1.0000 0.0005
vn 0.3768 0.2869 -0.8807
vn 0.6534 0.1875 -0.7334
vn 0.6644 0.1123 -0.7389
vn 0.9551 0.2880 -0.0697
vn 0.9211 0.1750 -0.3478
vn 0.9254 0.2705 -0.2654
vn 0.9558 0.2747 0.1050
vn 0.4701 0.1864 0.8627
vn 0.4477 0.1193 0.8862
vn 0.5844 0.1767 0.7920
vn 0.2810 0.1267 0.9513
vn -0.4795 0.1825 0.8584
vn -0.4756 0.1156 0.8720
vn -0.7388 0.2805 0.6128
vn -0.8051 0.1179 0.5813
vn -0.9529 0.1748 0.2481
vn -0.9750 0.1852 0.1224
vn -0.9852 0.1215 0.1208
vn -0.9538 0.1157 -0.2774
vn -0.7256 0.1762 -0.6651
vn -0.7029 0.1136 -0.7022
vn -0.2128 0.1819 -0.9600
vn -0.4057 0.2874 -0.8676
vn -0.1322 0.2755 -0.9522
vn 0.1757 0.0472 -0.9833
vn 0.1906 0.4712 -0.8612
vn 0.3445 0.6138 -0.7103
vn 0.6169 0.0529 -0.7853
vn 0.7515 -0.0043 -0.6598
vn 0.6448 0.5794 -0.4985
vn 0.8885 0.0350 -0.4575
vn 0.8961 0.2067 -0.3928
vn 0.9998 -0.0096 0.0198
vn 0.8644 0.4940 -0.0938
vn 0.9959 0.0775 -0.0467
vn 0.7905 0.5779 0.2026
vn 0.8686 0.0312 0.4945
vn 0.6510 0.5948 0.4717
vn 0.4309 0.4699 0.7704
vn 0.5324 -0.0144 0.8464
vn 0.0346 0.4788 0.8772
vn 0.1113 0.2056 0.9723
vn -0.0270 0.0534 0.9982
vn -0.2633 -0.0070 0.9647
vn -0.4834 0.2064 0.8507
vn -0.6291 0.0463 0.7759
vn -0.4455 0.6090 0.6563
vn -0.6484 0.4814 0.5898
vn -0.8774 -0.0088 0.4797
vn -0.8203 0.5114 0.2561
vn -0.9899 0.0490 0.1328
vn -0.8131 0.5729 0.1037
vn -0.9767 -0.0064 -0.2143
vn -0.8483 0.4913 -0.1973
vn -0.8930 0.2113 -0.3973
vn -0.6571 0.4852 -0.5769
vn -0.7861 0.0526 -0.6159
vn -0.5171 0.5875 -0.6225
vn -0.4650 0.0467 -0.8841
vn -0.9484 0.2702 0.1657
vn -0.4334 0.0508 -0.8998
vn -0.8599 0.0488 -0.5081
vn -0.9826 0.0558 0.1774
vn -0.5671 0.0582 0.8216
vn 0.5798 0.0685 0.8119
vn -0.1379 0.0563 -0.9888
vn 0.2809 0.2656 -0.9222
vn 0.2347 0.1241 -0.9641
vn 0.6166 0.1825 -0.7658
vn 0.5945 0.2890 -0.7503
vn 0.7806 0.2901 -0.5536
vn 0.8730 0.2923 -0.3904
vn 0.9880 0.1118 -0.1064
vn 0.9424 0.3070 -0.1332
vn 0.9929 0.1190 0.0024
vn 0.8143 0.1781 0.5524
vn 0.0734 0.1782 0.9812
vn 0.2815 0.2926 0.9139
vn 0.1077 0.2777 0.9546
vn -0.5276 0.2869 0.7996
vn -0.8004 0.1781 0.5724
vn -0.9186 0.2875 0.2711
vn -0.9666 0.1267 0.2227
vn -0.9599 0.2725 -0.0657
vn -0.9668 0.1878 0.1732
vn -0.8149 0.2818 -0.5065
vn -0.1576 0.2805 -0.9468
vn 0.1619 0.0023 -0.9868
vn 0.1474 0.0849 -0.9854
vn 0.1872 0.0049 -0.9823
vn 0.1649 0.6537 -0.7386
vn 0.4621 0.6374 -0.6166
vn 0.7520 0.0800 -0.6543
vn 0.8934 0.0163 -0.4490
vn 0.9978 0.0627 0.0197
vn 0.8166 0.5742 -0.0582
vn 0.8722 0.0214 0.4886
vn 0.5784 0.5204 0.6282
vn 0.5127 0.0903 0.8538
vn 0.1123 0.0138 0.9936
vn -0.3452 0.6365 0.6897
vn -0.8776 0.0869 0.4715
vn -0.9724 0.0857 -0.2168
vn -0.8744 0.0099 -0.4850
vn -0.7586 0.2553 -0.5994
vn -0.5461 -0.0066 -0.8377
vn -0.5347 0.0892 -0.8403
vn -0.3888 0.4906 -0.7798
vn -0.4515 0.0025 -0.8922
vn -0.5224 0.2147 -0.8253
vn 0.3741 0.3040 -0.8761
vn -0.5721 0.2297 -0.7873
vn 0.1103 0.8349 0.5392
vn -0.0020 -1.0000 -0.0000
vn 0.0007 -1.0000 -0.0006
vn 0.0004 -1.0000 0.0001
vn -0.0005 -1.0000 -0.0013
vn 0.0007 -1.0000 -0.0013
vn 0.2205 0.1236 -0.9675
vn 0.2317 0.1870 -0.9546
vn 0.4175 0.1773 -0.8912
vn 0.7849 0.1769 -0.5938
vn 0.9740 0.1848 -0.1307
vn 0.9658 0.1682 0.1972
vn 0.8095 0.2770 0.5176
vn 0.7926 0.1825 0.5817
vn 0.8004 0.2804 0.5299
vn 0.8351 0.1123 0.5385
vn 0.5414 0.2774 0.7937
vn 0.1267 0.2737 0.9534
vn -0.0408 0.1853 0.9818
vn -0.2307 0.1730 0.9575
vn -0.2296 0.2872 0.9299
vn -0.5756 0.1724 0.7994
vn -0.5215 0.1972 0.8301
vn -0.8030 0.1775 0.5690
vn -0.9412 0.1860 -0.2820
vn -0.8574 0.1750 -0.4840
vn -0.8377 0.2714 -0.4740
vn -0.7215 0.1752 -0.6699
vn -0.2461 0.1198 -0.9618
vt 0.952342 0.625000
vt 0.999395 0.625000
vt 0.961506 0.687500
vt 0.959645 0.500000
vt 1.000039 0.500000
vt 0.989173 0.562500
vt 0.864526 0.625000
vt 0.854618 0.562500
vt 0.920700 0.562500
vt 0.796015 0.562500
vt 0.740970 0.500000
vt 0.810231 0.500000
vt 0.722637 0.562500
vt 0.752996 0.625000
vt 0.693051 0.687500
vt 0.670414 0.625000
vt 0.630115 0.562500
vt 0.571502 0.625000
vt 0.561072 0.687500
vt 0.669462 0.755656
vt 0.553237 0.500000
vt 0.621587 0.500000
vt 0.441946 0.957841
vt 0.607228 0.958845
vt 0.508597 1.000000
vt 0.477328 0.500000
vt 0.457529 0.562500
vt 0.431735 0.500000
vt 0.386025 0.562500
vt 0.355720 0.625000
vt 0.315524 0.687500
vt 0.421515 0.687500
vt 0.412901 0.756147
vt 0.378357 0.500000
vt 0.328343 0.562500
vt 0.307079 0.500000
vt 0.246744 0.625000
vt 0.207397 0.687500
vt 0.255953 0.757049
vt 0.149526 0.500000
vt 0.232562 0.500000
vt 0.176559 0.562500
vt 0.126800 0.953541
vt 0.202839 0.957010
vt 0.163956 1.000000
vt 0.113306 0.562500
vt 0.127438 0.625000
vt 0.049930 0.562500
vt 0.082049 0.687500
vt 0.036523 0.625000
vt 0.237837 0.311457
vt 0.329990 0.377494
vt 0.225119 0.396736
vt 0.141396 0.373270
vt 0.099767 0.280782
vt 0.190997 0.280135
vt 0.120154 0.168170
vt 0.216864 0.102336
vt 0.213273 0.204439
vt 0.301434 0.105649
vt 0.372358 0.155634
vt 0.398335 0.281046
vt 0.304303 0.211174
vt 0.305613 0.284098
vt 0.295849 0.485239
vt 0.295760 0.014723
vt 0.485261 0.204190
vt 0.448761 0.383926
vt 0.015488 0.500000
vt 0.068339 0.500000
vt 0.000950 0.562500
vt 0.715960 0.012992
vt 0.971483 0.338068
vt 0.966983 0.149030
vt 0.726718 0.487956
vt 0.809901 0.481174
vt 0.892814 0.440481
vt 0.915781 0.076988
vt 0.827735 0.026143
vt 0.650579 0.032569
vt 0.584153 0.077041
vt 0.559941 0.388992
vt 0.650481 0.467381
vt 0.574433 0.816041
vt 0.475857 0.817600
vt 0.503011 0.668917
vt 0.529394 0.994601
vt 0.930129 0.741163
vt 0.756604 0.919181
vt 0.729022 0.721074
vt 0.645808 0.585229
vt 0.647602 0.426600
vt 0.801493 0.582082
vt 0.819726 0.492186
vt 0.797630 0.380100
vt 0.965726 0.337515
vt 0.554472 0.179626
vt 0.636972 0.206204
vt 0.540201 0.336277
vt 0.721121 0.267797
vt 0.677987 0.040013
vt 0.644381 0.350499
vt 0.521728 0.447371
vt 0.500663 0.503874
vt 0.451513 0.338479
vt 0.283039 0.053736
vt 0.460115 0.006470
vt 0.369935 0.205939
vt 0.163796 0.133269
vt 0.271859 0.260881
vt 0.206525 0.360925
vt 0.077646 0.240126
vt 0.332910 0.279448
vt 0.011689 0.423719
vt 0.181300 0.505687
vt 0.331593 0.516380
vt 0.198433 0.603435
vt 0.023756 0.633234
vt 0.269329 0.652138
vt 0.245310 0.720152
vt 0.329943 0.767706
vt 0.142353 0.840243
vt 0.466105 0.523079
vt 0.434096 0.652599
vt 0.335688 0.965928
vt 0.411681 0.809597
vt 0.822963 0.687500
vt 0.680667 0.500000
vt 0.553738 0.562500
vt 0.466889 0.625000
vt 0.526442 0.756229
vt 0.319612 0.957442
vt 0.258715 0.562500
vt 0.250000 0.250000
vt 0.001130 0.687500
vt 0.527202 0.166494
vt 0.512742 0.276097
vt 0.666242 0.771663
vt 0.567194 0.657865
vt 0.527136 0.510934
vt 0.993628 0.546057
vt 0.782992 0.652738
vt 0.611013 0.371264
vt 0.397004 0.363566
vt 0.343683 0.440749
vt 0.348780 0.571788
vt 0.994010 0.958034
vt 0.992106 1.000000
vt 0.917847 0.956985
vt 0.897631 0.500000
vt 0.917886 0.755671
vt 0.812965 0.755787
vt 0.835818 1.000000
vt 0.772387 0.959220
vt 0.679244 1.000000
vt 0.383289 1.000000
vt 0.257815 1.000000
vt 0.139492 0.756853
vt 0.070294 1.000000
vt 0.012314 0.966188
vt 0.204088 0.485698
vt 0.051228 0.383900
vt 0.014753 0.204156
vt 0.116017 0.051265
vt 0.384006 0.051276
vt 0.026761 0.755361
vt 0.484265 0.182507
vt 0.999566 0.755432
vt 0.988555 0.236480
vt 0.857886 0.157744
s 0
f 64/1/1 63/2/1 4/3/1
f 57/4/2 87/5/2 51/6/2
f 6/7/3 64/1/3 4/3/3
f 5/8/4 99/9/4 6/7/4
f 5/8/5 6/7/5 102/10/5
f 52/11/6 38/12/6 53/13/6
f 27/14/7 67/15/7 104/16/7
f 28/17/8 53/13/8 104/16/8
f 8/18/9 104/16/9 67/15/9
f 70/19/10 67/15/10 69/20/10
f 59/21/11 114/22/11 28/17/11
f 54/23/12 29/24/12 82/25/12
f 58/26/13 59/21/13 72/27/13
f 88/28/14 58/26/14 72/27/14
f 73/29/15 72/27/15 106/30/15
f 108/31/16 10/32/16 9/33/16
f 115/34/17 74/35/17 113/36/17
f 109/37/18 106/30/18 108/31/18
f 75/38/19 108/31/19 11/39/19
f 77/40/20 76/41/20 30/42/20
f 13/43/21 110/44/21 80/45/21
f 78/46/22 111/47/22 86/48/22
f 111/47/23 31/49/23 63/50/23
f 32/51/24 37/52/24 36/53/24
f 79/54/25 80/55/25 33/56/25
f 81/57/26 82/58/26 34/59/26
f 82/58/27 83/60/27 34/59/27
f 84/61/28 85/62/28 112/63/28
f 85/62/29 37/52/29 35/64/29
f 36/53/30 37/52/30 98/65/30
f 83/60/31 82/58/31 29/66/31
f 85/62/32 84/61/32 66/67/32
f 37/52/33 85/62/33 98/68/33
f 87/69/34 60/70/34 86/48/34
f 51/71/35 86/48/35 63/50/35
f 58/72/36 38/73/36 68/74/36
f 87/75/37 57/76/37 58/72/37
f 57/76/38 100/77/38 58/72/38
f 114/78/39 59/79/39 58/72/39
f 58/72/40 88/80/40 115/81/40
f 77/82/41 60/83/41 58/72/41
f 60/83/42 87/75/42 58/72/42
f 39/84/43 50/85/43 116/86/43
f 50/85/44 39/84/44 14/87/44
f 41/88/45 40/89/45 118/90/45
f 117/91/46 61/92/46 119/93/46
f 120/94/47 92/95/47 122/96/47
f 44/97/48 42/98/48 43/99/48
f 23/100/49 42/98/49 1/101/49
f 16/102/50 125/103/50 96/104/50
f 127/105/51 43/99/51 16/102/51
f 93/106/52 3/107/52 24/108/52
f 17/109/53 93/106/53 46/110/53
f 46/110/54 94/111/54 25/112/54
f 46/110/55 126/113/55 94/111/55
f 129/114/56 25/112/56 94/111/56
f 62/115/57 130/116/57 48/117/57
f 62/115/58 48/117/58 19/118/58
f 48/117/59 26/119/59 95/120/59
f 132/121/60 95/120/60 26/119/60
f 95/120/61 132/121/61 20/122/61
f 131/123/62 96/104/62 21/124/62
f 20/122/63 132/121/63 22/125/63
f 132/121/64 21/124/64 49/126/64
f 50/85/65 49/126/65 116/86/65
f 63/2/66 64/1/66 51/6/66
f 64/1/67 6/7/67 99/9/67
f 4/3/68 101/127/68 6/7/68
f 5/8/69 102/10/69 38/12/69
f 6/7/70 27/14/70 102/10/70
f 101/127/71 67/15/71 27/14/71
f 27/14/72 104/16/72 53/13/72
f 53/13/73 28/17/73 68/128/73
f 67/15/74 70/19/74 8/18/74
f 28/17/75 71/129/75 59/21/75
f 8/18/76 105/130/76 72/27/76
f 71/129/77 72/27/77 59/21/77
f 70/19/78 10/32/78 105/130/78
f 7/131/79 9/33/79 10/32/79
f 105/130/80 106/30/80 72/27/80
f 54/23/81 107/132/81 9/33/81
f 10/32/82 108/31/82 106/30/82
f 73/29/83 74/35/83 115/34/83
f 106/30/84 109/37/84 74/35/84
f 74/35/85 55/133/85 113/36/85
f 108/31/86 75/38/86 109/37/86
f 107/132/87 110/44/87 11/39/87
f 109/37/88 111/47/88 30/42/88
f 55/133/89 30/42/89 76/41/89
f 30/42/90 78/46/90 77/40/90
f 78/46/91 86/48/91 60/70/91
f 83/60/92 84/61/92 112/63/92
f 35/64/93 112/63/93 85/62/93
f 34/59/94 33/56/94 80/55/94
f 34/59/95 83/60/95 112/63/95
f 32/51/96 33/56/96 2/134/96
f 33/56/97 34/59/97 2/134/97
f 112/63/98 35/64/98 2/134/98
f 35/64/99 32/51/99 2/134/99
f 31/49/100 4/135/100 63/50/100
f 51/71/101 87/69/101 86/48/101
f 113/136/102 76/137/102 58/72/102
f 40/89/103 39/84/103 89/138/103
f 90/139/104 117/91/104 118/90/104
f 117/91/105 90/139/105 91/140/105
f 119/93/106 120/94/106 121/141/106
f 15/142/107 117/91/107 119/93/107
f 121/141/108 41/88/108 119/93/108
f 122/96/109 121/141/109 120/94/109
f 124/143/110 43/99/110 42/98/110
f 43/99/111 124/143/111 125/103/111
f 23/100/112 124/143/112 42/98/112
f 125/103/113 16/102/113 43/99/113
f 127/105/114 128/144/114 24/108/114
f 128/144/115 127/105/115 16/102/115
f 17/109/116 46/110/116 25/112/116
f 47/145/117 128/144/117 16/102/117
f 62/115/118 94/111/118 47/145/118
f 47/145/119 130/116/119 62/115/119
f 130/116/120 47/145/120 131/123/120
f 18/146/121 130/116/121 131/123/121
f 132/121/122 26/119/122 21/124/122
f 21/124/123 18/146/123 131/123/123
f 21/124/124 116/86/124 49/126/124
f 132/121/125 49/126/125 22/125/125
f 14/87/126 22/125/126 50/85/126
f 97/147/127 36/148/127 98/149/127
f 51/6/128 64/1/128 99/9/128
f 57/4/129 99/9/129 100/150/129
f 4/3/130 65/151/130 101/127/130
f 98/149/131 103/152/131 65/151/131
f 5/8/132 38/12/132 100/150/132
f 85/153/133 66/154/133 98/149/133
f 6/7/134 101/127/134 27/14/134
f 103/152/135 66/154/135 69/20/135
f 102/10/136 27/14/136 53/13/136
f 101/127/137 69/20/137 67/15/137
f 52/11/138 53/13/138 68/128/138
f 29/24/139 66/154/139 84/155/139
f 114/22/140 68/128/140 28/17/140
f 71/129/141 28/17/141 8/18/141
f 29/24/142 7/131/142 69/20/142
f 72/27/143 71/129/143 8/18/143
f 8/18/144 70/19/144 105/130/144
f 70/19/145 7/131/145 10/32/145
f 7/131/146 54/23/146 9/33/146
f 106/30/147 105/130/147 10/32/147
f 107/132/148 54/23/148 81/156/148
f 88/28/149 73/29/149 115/34/149
f 73/29/150 106/30/150 74/35/150
f 11/39/151 9/33/151 107/132/151
f 74/35/152 109/37/152 55/133/152
f 110/44/153 107/132/153 80/157/153
f 113/36/154 55/133/154 76/41/154
f 11/39/155 110/44/155 12/158/155
f 55/133/156 109/37/156 30/42/156
f 111/47/157 109/37/157 75/38/157
f 78/46/158 30/42/158 111/47/158
f 75/38/159 12/158/159 31/49/159
f 60/70/160 77/40/160 78/46/160
f 79/159/161 97/160/161 13/43/161
f 80/55/162 81/57/162 34/59/162
f 97/161/163 79/54/163 36/53/163
f 79/54/164 13/162/164 80/55/164
f 80/55/165 107/163/165 81/57/165
f 81/57/166 54/164/166 82/58/166
f 83/60/167 29/165/167 84/61/167
f 31/49/168 56/166/168 4/135/168
f 40/89/169 14/87/169 39/84/169
f 96/104/170 91/140/170 90/139/170
f 118/90/171 89/138/171 90/139/171
f 40/89/172 89/138/172 118/90/172
f 15/142/173 41/88/173 118/90/173
f 119/93/174 41/88/174 15/142/174
f 61/92/175 117/91/175 91/140/175
f 96/104/176 125/103/176 91/140/176
f 125/103/177 61/92/177 91/140/177
f 61/92/178 23/100/178 92/95/178
f 44/97/179 43/99/179 45/167/179
f 42/98/180 44/97/180 1/101/180
f 44/97/181 45/167/181 3/107/181
f 93/106/182 24/108/182 46/110/182
f 47/145/183 126/113/183 128/144/183
f 94/111/184 62/115/184 129/114/184
f 131/123/185 47/145/185 16/102/185
f 19/118/186 129/114/186 62/115/186
f 96/104/187 131/123/187 16/102/187
f 48/117/188 95/120/188 20/122/188
f 22/125/189 49/126/189 50/85/189
f 65/151/190 56/168/190 97/147/190
f 65/151/191 4/3/191 56/168/191
f 98/149/192 65/151/192 97/147/192
f 99/9/193 57/4/193 51/6/193
f 5/8/194 100/150/194 99/9/194
f 103/152/195 101/127/195 65/151/195
f 66/154/196 103/152/196 98/149/196
f 101/127/197 103/152/197 69/20/197
f 53/13/198 38/12/198 102/10/198
f 66/154/199 29/24/199 69/20/199
f 8/18/200 28/17/200 104/16/200
f 70/19/201 69/20/201 7/131/201
f 54/23/202 7/131/202 29/24/202
f 72/27/203 73/29/203 88/28/203
f 9/33/204 11/39/204 108/31/204
f 11/39/205 12/158/205 75/38/205
f 13/43/206 12/158/206 110/44/206
f 111/47/207 75/38/207 31/49/207
f 13/43/208 56/166/208 12/158/208
f 56/166/209 31/49/209 12/158/209
f 111/47/210 63/50/210 86/48/210
f 56/166/211 13/43/211 97/160/211
f 79/54/212 32/51/212 36/53/212
f 32/51/213 35/64/213 37/52/213
f 32/51/214 79/54/214 33/56/214
f 34/59/215 112/63/215 2/134/215
f 52/169/216 68/74/216 38/73/216
f 58/72/217 76/137/217 77/82/217
f 58/72/218 100/77/218 38/73/218
f 68/74/219 114/78/219 58/72/219
f 58/72/220 115/81/220 113/136/220
f 96/104/221 90/139/221 116/86/221
f 116/86/222 90/139/222 39/84/222
f 90/139/223 89/138/223 39/84/223
f 15/142/224 118/90/224 117/91/224
f 119/93/225 61/92/225 120/94/225
f 61/92/226 92/95/226 120/94/226
f 123/170/227 122/96/227 92/95/227
f 23/100/228 61/92/228 124/143/228
f 123/170/229 92/95/229 23/100/229
f 61/92/230 125/103/230 124/143/230
f 23/100/231 1/101/231 123/170/231
f 44/97/232 3/107/232 1/101/232
f 127/105/233 45/167/233 43/99/233
f 24/108/234 45/167/234 127/105/234
f 45/167/235 24/108/235 3/107/235
f 24/108/236 128/144/236 126/113/236
f 126/113/237 46/110/237 24/108/237
f 94/111/238 126/113/238 47/145/238
f 130/116/239 18/146/239 48/117/239
f 48/117/240 18/146/240 26/119/240
f 20/122/241 19/118/241 48/117/241
f 18/146/242 21/124/242 26/119/242
f 116/86/243 21/124/243 96/104/243
