# Blender v3.5.1 OBJ File: ''
# www.blender.org
mtllib new_car_lowpoly.mtl
o Cube_Cube.001
v -2.223283 1.193839 2.556964
v -1.843130 1.557878 -1.803703
v -1.857267 2.456167 -0.279101
v -1.798553 2.102201 2.156829
v -2.375762 -0.212242 5.892554
v -2.366957 1.215849 4.188971
v -1.922878 1.088675 -4.959588
v -2.146072 1.332382 -3.737581
v -2.093527 0.009382 -5.458174
v -1.639438 1.180748 -1.858669
v -2.372087 1.066292 6.059912
v -2.453877 -0.276661 -2.042471
v -2.068588 1.152661 2.537268
v 1.653999 2.009595 2.144512
v -0.116980 -0.336236 -6.172624
v 1.307949 0.879435 -5.984623
v -1.381381 0.890113 -5.946193
v 1.517991 1.203820 -5.114825
v -1.248129 0.384762 2.791681
v -1.086086 1.097806 4.020570
v -1.133157 0.071644 -2.443062
v -1.178982 0.156002 5.161500
v -1.142630 0.153524 -4.811797
v -0.942695 1.259570 -3.190717
v -1.260348 1.128637 2.780460
v 0.193405 1.334869 -2.711850
v -1.514468 1.977136 2.605760
v -1.244484 2.139636 0.279545
v -1.942769 1.542269 2.977853
v -2.454904 -0.230480 1.856533
v -2.382719 -0.212991 1.828753
v -2.354511 -0.288497 -2.058453
v 0.304174 1.334994 -2.723688
v 2.313464 1.126259 6.064385
v 2.428379 -0.363850 -2.058699
v 2.104418 1.354037 -3.773704
v 1.569643 1.147701 -1.919043
v 1.731568 2.259726 -0.167852
v 2.022918 -0.008536 -5.505867
v 1.985015 1.325529 -4.843614
v 2.438219 -0.280505 1.814061
v 2.217104 1.264828 2.569579
v 2.479755 1.072998 2.555172
v 2.373739 -0.234914 5.795710
v 1.366769 0.853289 -5.837626
v 1.107033 0.282260 -2.435266
v 1.096090 0.521793 -4.615079
v 0.970370 -0.375617 -4.824397
v 1.206810 1.128637 2.780460
v 1.111103 -0.036674 5.182518
v 1.164394 0.208812 2.805073
v 1.792567 1.556451 -1.795458
v 0.989306 0.491134 -1.984567
v 1.191023 2.139515 0.276154
v -2.046911 1.270506 -3.402903
v -1.637536 1.362046 -2.331634
v -1.832581 1.639173 -4.967733
v -1.260348 1.118689 -2.427349
v -1.190625 1.118690 -4.810999
v -1.260348 1.128637 5.164111
v -1.767529 1.675618 -2.535131
v -2.246634 -0.390562 2.582115
v -2.170472 -0.347887 -2.240869
v 1.993373 1.270506 -3.402903
v 1.958355 1.176376 -4.877275
v 1.584640 1.373717 -2.294419
v 1.032547 1.097806 4.020570
v 1.206810 1.118689 -2.427349
v 1.137087 1.118690 -4.810999
v 0.827497 1.014549 2.535860
v 1.206810 1.128637 5.164111
v 2.324682 -0.211642 1.828707
v 2.300467 -0.288379 -2.058461
v -1.671707 0.726446 -4.913394
v -1.768635 0.722765 -4.921939
v -1.782422 0.863977 -5.165939
v -1.750263 0.871305 -4.884702
v -1.796522 0.832087 -4.884702
v -1.592912 0.816055 -5.362576
v -1.560753 0.823383 -5.081339
v -1.607012 0.784165 -5.081339
v -1.799329 0.892296 -4.884702
v -1.673986 0.850924 -5.238783
v -1.695696 0.826093 -4.957545
v -1.690893 0.879243 -4.957545
v -1.609818 0.844374 -5.081339
v -1.639300 0.847368 -4.957545
v -1.713806 0.953286 -5.039731
v -1.682708 0.951327 -4.758493
v -1.716774 0.920438 -4.758493
v -1.731424 0.984026 -4.758493
v -1.594001 0.929325 -5.103071
v -1.562903 0.927366 -4.821833
v -1.608101 0.897435 -4.821833
v -1.601338 0.963413 -4.821833
v -1.318840 -0.095584 5.920758
v -1.335578 -0.021095 5.917675
v 1.713478 0.801389 -4.926065
v 1.673764 0.616909 -4.924562
v 1.696725 0.871305 -4.884702
v 1.728883 0.863977 -5.165939
v 1.742983 0.832087 -4.884702
v 1.507215 0.823383 -5.081339
v 1.539373 0.816055 -5.362576
v 1.553473 0.784165 -5.081339
v 1.745790 0.892296 -4.884702
v 1.642157 0.826093 -4.957545
v 1.620448 0.850924 -5.238783
v 1.637355 0.879243 -4.957545
v 1.556280 0.844374 -5.081339
v 1.585762 0.847368 -4.957545
v 1.629170 0.951327 -4.758493
v 1.660267 0.953286 -5.039731
v 1.663235 0.920438 -4.758493
v 1.677886 0.984026 -4.758493
v 1.509364 0.927366 -4.821833
v 1.540462 0.929325 -5.103071
v 1.554562 0.897435 -4.821833
v 1.547799 0.963413 -4.821833
v -1.115208 0.072935 6.159557
v -0.967891 0.055858 6.223343
v -0.952549 0.077100 5.921906
v -1.127700 0.154221 5.921906
v -1.140534 -0.017715 5.921906
v -2.521549 0.957801 2.122349
v -2.501502 0.905515 1.743690
v 1.291313 -0.097528 5.924361
v 1.247018 -0.072282 5.921066
v 1.064300 0.080450 5.918102
v 0.996600 0.071525 5.921245
v 2.447641 0.905705 1.743718
v 2.467627 0.957920 2.127467
v -2.221545 1.082290 -1.804000
v -0.156434 2.121611 2.900559
v -0.026769 2.322231 2.870431
v -0.026769 2.269168 2.532079
v -1.217409 -0.395978 -5.942521
v -1.219688 -0.354028 -5.947643
v 1.770867 -0.231673 -5.670597
v 1.782767 -0.089405 -5.615355
v 1.770867 -0.305995 -5.670597
v 1.782767 -0.163727 -5.615355
v 1.770867 -0.152542 -5.670597
v 1.782767 -0.010274 -5.615356
v 2.220435 1.115116 -1.894533
v -0.026769 2.118695 2.922632
v 0.102896 2.121611 2.900559
v -0.026769 2.247414 2.922632
v -0.026769 2.303708 2.907342
v -1.796617 -0.226646 -5.596416
v -1.805503 -0.234116 -5.621362
v -1.796617 -0.152324 -5.596417
v -1.805503 -0.159794 -5.621362
v -1.796617 -0.073193 -5.596417
v -1.805503 -0.080662 -5.621362
v -2.225248 0.948229 -1.817172
v -0.026769 2.057446 2.532079
v -0.777917 -0.370418 6.030206
v -0.922272 -0.028721 5.706304
v -0.473003 -0.370418 6.030206
v -0.617358 -0.028721 5.706304
v -0.557475 -0.342591 5.819388
v -0.334919 -0.027112 5.698519
v -0.040128 -0.376761 6.043561
v -0.026769 -0.249400 6.075313
v -0.026769 -0.028719 6.075313
v -0.040128 -0.028719 6.075313
v -0.040128 -0.408514 5.695519
v -0.040128 -0.028719 5.695519
v -0.026769 -0.408514 5.695519
v -0.026769 -0.408514 5.916199
v -0.026769 -0.396402 5.977089
v -0.026769 -0.361910 6.028709
v -0.026769 -0.310290 6.063201
v 2.168841 0.936580 -1.793248
v 1.050546 -0.370418 6.030206
v 0.906191 -0.028721 5.706304
v 0.745632 -0.370418 6.030206
v 0.601277 -0.028721 5.706304
v 0.273888 -0.027112 5.698519
v 0.051332 -0.342591 5.819388
v -0.013410 -0.376761 6.043561
v -0.013410 -0.028719 6.075313
v -0.013410 -0.408514 5.695519
v -0.013410 -0.028719 5.695519
v -0.026769 -0.028719 5.695519
v 1.164567 -0.395951 -5.942450
v 1.168849 -0.353724 -5.947416
v -2.249480 0.970269 6.076805
v -0.213908 0.964727 6.076805
v 2.195941 0.970269 6.076805
v 0.160370 0.964727 6.076805
v -1.169307 0.703488 -4.886963
v -1.680479 0.678570 -4.817943
v 1.133453 0.684716 -4.790602
v 1.814508 0.697114 -4.653215
v -1.772806 2.205449 -0.255210
v -1.952690 2.240589 2.180713
v 1.735543 2.224874 -0.234530
v 1.789171 2.120525 2.116049
v -1.143894 0.848164 -5.510202
v -1.475379 0.988421 5.912902
v -1.452256 0.937087 5.904141
v 1.398718 0.937087 5.904141
v 1.421841 0.988421 5.912902
v -1.891623 0.947464 5.910094
v -1.900912 1.031796 5.904141
v -0.291968 0.961152 6.028794
v -1.325611 0.961152 6.028794
v -0.291968 1.014611 6.028794
v -1.325611 1.014611 6.028794
v 1.847373 1.031796 5.904141
v 1.838085 0.947464 5.910094
v 2.061428 0.988421 5.912902
v 2.038305 0.937087 5.904141
v 1.624889 0.947464 5.910094
v 1.634178 1.031796 5.904141
v 1.272072 1.014611 6.028794
v 0.238429 1.014611 6.028794
v -1.889497 -0.133039 -5.571033
v -2.104819 0.947464 5.910094
v -2.114107 1.031798 5.904141
v -1.889497 0.020414 -5.571033
v -0.291968 0.910477 6.028794
v -1.325611 0.910477 6.028794
v 0.238429 0.910477 6.028794
v 1.272072 0.910477 6.028794
v 0.238429 0.961152 6.028794
v 1.272072 0.961152 6.028794
v -1.889497 -0.058717 -5.571033
v -1.678428 0.947464 5.910094
v -1.687716 1.031796 5.904141
vn -0.5827 -0.7399 0.3362
vn -0.5864 0.4507 0.6731
vn -0.9884 -0.1258 -0.0851
vn -0.2252 0.9643 0.1392
vn -0.9442 0.2750 -0.1811
vn -0.0013 0.9371 -0.3492
vn 0.0545 0.9276 -0.3697
vn -0.0169 -0.9203 0.3909
vn -0.0979 -0.9940 -0.0478
vn -0.6193 -0.7832 0.0552
vn -0.1498 -0.9368 -0.3162
vn -0.2797 -0.9152 -0.2902
vn -0.5141 -0.8212 0.2476
vn 0.1021 -0.9316 -0.3488
vn -0.9975 -0.0701 0.0055
vn -0.9992 -0.0329 0.0207
vn -0.9995 -0.0160 0.0276
vn -0.7275 0.6852 -0.0366
vn -0.6611 0.7502 -0.0050
vn -0.9102 0.4134 -0.0244
vn -0.9822 0.1780 -0.0591
vn -0.9690 0.2446 -0.0350
vn -0.9632 0.2685 -0.0122
vn -0.0967 -0.9793 -0.1780
vn 0.8433 -0.5369 0.0246
vn 0.8426 0.4516 0.2932
vn 0.2071 0.9674 0.1460
vn 0.0601 0.9738 -0.2193
vn -0.0052 0.9806 -0.1962
vn 0.5780 -0.7090 0.4041
vn 0.5589 0.4600 0.6900
vn 0.1521 -0.9395 -0.3069
vn 0.9206 -0.1861 0.3433
vn 0.2893 -0.9389 -0.1863
vn 0.9983 -0.0562 0.0125
vn 0.4102 -0.8319 0.3739
vn -0.5217 0.8436 0.1273
vn -0.8553 0.4444 0.2665
vn -0.8164 0.3435 -0.4642
vn -0.7112 -0.5595 -0.4258
vn 0.1493 0.8502 -0.5049
vn 0.0795 0.8089 -0.5826
vn 0.0912 0.8819 -0.4626
vn 0.0006 -0.9583 0.2858
vn -0.1294 -0.7937 -0.5944
vn -0.9965 -0.0834 0.0000
vn -0.9210 0.3456 -0.1796
vn -0.9791 0.1898 -0.0729
vn 0.7283 -0.5777 -0.3685
vn 0.9510 0.1587 -0.2653
vn -0.3762 -0.8825 -0.2823
vn 0.9966 -0.0819 0.0000
vn 0.9703 0.2391 -0.0369
vn 0.9662 0.2511 -0.0574
vn 0.9858 0.1525 -0.0703
vn 0.9637 0.2669 -0.0113
vn 0.0840 0.9938 -0.0730
vn 0.0917 0.9947 0.0475
vn 0.0654 0.9978 0.0052
vn -0.0116 0.9975 -0.0699
vn -0.9961 -0.0866 -0.0141
vn -0.9590 0.2827 -0.0184
vn -0.9841 0.1763 -0.0209
vn 0.0237 0.9979 -0.0611
vn 0.1356 -0.9424 0.3059
vn 0.4658 -0.7271 0.5043
vn 0.2263 -0.9438 0.2408
vn 0.9932 -0.1133 -0.0273
vn 0.9782 -0.1994 0.0581
vn 0.8879 -0.4553 0.0659
vn 0.8528 -0.5149 0.0871
vn -0.0014 -0.0044 -1.0000
vn 0.9815 0.1521 -0.1162
vn -0.3964 -0.9098 -0.1230
vn -0.5630 0.8183 -0.1162
vn 0.0046 0.0001 -1.0000
vn -0.6043 -0.7883 -0.1162
vn -0.4480 0.8865 -0.1162
vn 0.9878 -0.0958 -0.1230
vn -0.0125 0.0048 -0.9999
vn 0.9919 0.0653 -0.1092
vn -0.2855 -0.9516 -0.1142
vn -0.5582 0.8203 -0.1246
vn -0.0114 -0.0003 -0.9999
vn 0.9905 -0.0825 -0.1101
vn -0.5067 -0.8534 -0.1222
vn -0.3389 0.9329 -0.1219
vn -0.9815 0.1521 -0.1162
vn 0.0014 -0.0045 -1.0000
vn 0.3964 -0.9098 -0.1230
vn 0.5630 0.8183 -0.1162
vn 0.6042 -0.7883 -0.1162
vn -0.0047 0.0001 -1.0000
vn 0.4480 0.8865 -0.1162
vn -0.9878 -0.0958 -0.1230
vn -0.9919 0.0653 -0.1092
vn 0.0125 0.0048 -0.9999
vn 0.2855 -0.9516 -0.1142
vn 0.5582 0.8203 -0.1246
vn -0.9905 -0.0825 -0.1101
vn 0.0115 -0.0003 -0.9999
vn 0.5067 -0.8534 -0.1222
vn 0.3389 0.9329 -0.1219
vn -0.1535 0.0076 0.9881
vn 0.3868 0.8786 0.2802
vn -0.4460 0.8394 0.3106
vn -0.4799 -0.8015 0.3569
vn 0.0830 0.9938 0.0743
vn 0.4322 -0.8569 0.2808
vn -0.2145 -0.2791 -0.9360
vn 0.3075 -0.0862 -0.9476
vn -0.2283 0.1993 -0.9530
vn -0.7140 0.4042 0.5717
vn -0.8338 0.5484 0.0631
vn -0.8426 0.5321 -0.0834
vn 0.1678 0.0000 0.9858
vn 0.7140 0.4042 0.5717
vn 0.3324 0.1801 0.9258
vn 0.8338 0.5484 0.0631
vn 0.8426 0.5321 -0.0834
vn -0.7286 0.5014 0.4666
vn -0.3324 0.1801 0.9258
vn 0.7286 0.5014 0.4666
vn -0.1678 0.0000 0.9858
vn -0.9433 0.0000 -0.3319
vn -0.6692 -0.7416 0.0462
vn -0.3185 -0.9246 0.2092
vn 0.6970 -0.5071 0.5071
vn 0.8438 -0.3795 0.3795
vn -0.3186 -0.2092 0.9245
vn -0.6692 -0.0462 0.7416
vn 0.9433 0.0000 -0.3319
vn -0.6970 -0.5071 0.5071
vn 0.3185 -0.9245 0.2092
vn 0.6692 -0.7416 0.0462
vn -0.8438 -0.3795 0.3795
vn 0.3186 -0.2092 0.9245
vn 0.6692 -0.0462 0.7416
vn -0.6774 -0.0410 0.7345
vn -1.0000 -0.0000 0.0000
vn -0.6774 -0.7345 0.0410
vn 0.6774 -0.0410 0.7345
vn 1.0000 -0.0000 0.0000
vn 0.6774 -0.7345 0.0410
vn -0.3469 0.7058 -0.6177
vn 0.1096 0.9346 -0.3384
vn 0.1551 0.9044 -0.3975
vn -0.9659 0.2509 -0.0645
vn -0.9716 0.2242 -0.0750
vn 0.9568 0.2827 -0.0675
vn 0.8945 0.4470 -0.0006
usemtl Material.004
s 1
f 5//1 11//2 6//3
f 4//4 13//5 6//3
f 16//6 17//6 18//7
f 6//3 19//8 20//9
f 8//10 21//11 12//12
f 8//10 23//13 24//14
f 22//15 25//16 19//17
f 27//18 28//19 29//20
f 31//21 2//22 32//23
f 35//24 36//25 37//26
f 14//27 38//28 3//29
f 11//2 44//30 34//31
f 50//32 43//33 44//30
f 46//34 36//25 35//24
f 49//35 50//32 51//36
f 44//30 43//33 34//31
f 44//30 11//2 5//1
f 57//37 55//37 56//37
f 6//3 11//2 4//4
f 12//12 10//38 8//10
f 3//29 4//4 14//27
f 7//39 9//40 8//10
f 18//41 17//42 57//43
f 8//10 24//14 21//11
f 6//3 30//44 19//8
f 6//3 20//9 22//45
f 22//15 60//46 25//16
f 13//5 30//47 6//3
f 1//48 2//22 31//21
f 14//27 34//31 43//33
f 36//25 39//49 40//50
f 50//32 67//51 43//33
f 49//35 71//52 50//32
f 52//53 42//54 72//55
f 72//55 73//56 52//53
f 57//57 56//58 33//59 18//60
f 23//13 21//11 58//61 59//61
f 23//13 8//10 9//40
f 22//45 5//1 6//3
f 61//62 63//63 62//63 29//20
f 61//62 29//20 28//19
f 18//60 33//59 66//64 64//64 65//64
f 43//33 67//51 51//36 41//65
f 47//66 48//67 39//49 36//25
f 48//67 69//68 68//68 46//34
f 36//25 46//34 47//66
f 54//69 70//70 53//71
usemtl Material.005
f 76//72 77//73 78//74
f 79//72 80//73 81//74
f 76//72 82//75 77//73
f 83//76 84//77 85//78
f 79//72 86//75 80//73
f 76//72 78//74 82//75
f 83//76 85//78 87//79
f 79//72 81//74 86//75
f 83//76 87//79 84//77
f 88//80 89//81 90//82
f 88//80 90//82 91//83
f 88//80 91//83 89//81
f 92//84 93//85 94//86
f 92//84 94//86 95//87
f 92//84 95//87 93//85
f 100//88 101//89 102//90
f 103//88 104//89 105//90
f 106//91 101//89 100//88
f 107//92 108//93 109//94
f 110//91 104//89 103//88
f 102//90 101//89 106//91
f 109//94 108//93 111//95
f 105//90 104//89 110//91
f 111//95 108//93 107//92
f 112//96 113//97 114//98
f 114//98 113//97 115//99
f 115//99 113//97 112//96
f 116//100 117//101 118//102
f 118//102 117//101 119//103
f 119//103 117//101 116//100
f 120//104 122//105 123//106
f 123//106 124//107 120//104
f 120//108 121//108 122//108
f 120//104 124//107 122//109
usemtl Material.006
f 30//44 41//65 19//8
f 15//110 21//11 23//13
f 41//65 30//44 12//12
f 45//111 39//49 9//40
f 201//112 45//111 9//40
f 22//45 51//36 50//32
f 134//113 135//114 136//115
f 41//65 46//34 35//24
f 41//65 21//11 46//34
f 146//116 147//117 148//118
f 135//119 147//117 136//120
f 134//113 149//121 135//114
f 134//113 148//122 149//121
f 148//118 147//117 149//123
f 149//123 147//117 135//119
f 50//32 44//30 5//1
f 41//65 51//36 19//8
f 51//36 22//45 19//8
f 21//11 41//65 12//12
f 22//45 50//32 5//1
f 146//124 148//122 134//113
f 134//125 136//125 157//125
f 171//126 172//127 164//128
f 172//127 173//129 164//128
f 173//129 174//130 164//128
f 174//130 165//131 164//128
f 21//11 15//110 46//34
f 39//49 48//67 15//110
f 15//110 48//67 46//34
f 157//132 136//132 147//132
f 182//133 172//134 171//135
f 182//133 173//136 172//134
f 182//133 174//137 173//136
f 182//133 165//138 174//137
f 167//139 164//128 165//131 166//139
f 9//40 39//49 15//110
f 9//40 15//110 23//13
f 169//140 168//140 164//140 167//140
f 171//126 164//128 168//141 170//141
f 146//140 148//140 149//140 135//140 136//140 157//140
f 183//142 166//142 165//138 182//133
f 185//143 183//143 182//143 184//143
f 171//140 172//140 173//140 174//140 165//140 166//140 186//140 170//140
f 171//135 170//144 184//144 182//133
usemtl Material.010
f 10//145 3//29 26//146
f 3//29 37//147 26//146
f 4//4 34//31 14//27
f 1//48 197//148 2//22
f 1//48 198//149 197//148
f 3//29 38//28 37//147
f 11//2 34//31 4//4
f 42//54 52//53 199//150
f 42//54 199//150 200//151
usemtl Material.012
f 7//39 201//112 9//40
f 39//49 45//111 40//50
l 162 163
l 187 188
l 191 192
l 74 75
l 221 222
l 158 159
l 231 232
l 137 138
l 176 177
l 202 203
l 210 211
l 96 97
l 228 229
l 131 132
l 143 144
l 154 155
l 195 196
l 204 205
l 208 209
l 212 213
l 226 227
l 129 130
l 230 153
l 139 140
l 150 151
l 223 155
l 125 126
l 145 175
l 160 161
l 178 179
l 152 153
l 224 225
l 214 215
l 98 99
l 220 151
l 141 142
l 156 133
l 189 190
l 206 207
l 216 217
l 218 219
l 127 128
l 180 181
l 194 193
