# Blender 4.5.3 LTS
# www.blender.org
o Cube.001
v -0.054577 -0.732462 0.054577
v -0.054577 -0.732462 -0.054577
v -0.100391 0.251293 -0.100391
v 0.054577 -0.732462 0.054577
v 0.054577 -0.732462 -0.054577
v -0.100391 0.251293 0.100391
v 0.000000 0.931084 -0.000000
v 0.100391 0.251293 0.100391
v 0.100391 0.251293 -0.100391
v -0.075632 -0.732462 0.000000
v -0.143403 -0.423432 -0.143403
v -0.000000 -0.732462 -0.075632
v 0.075632 -0.732462 0.000000
v 0.000000 -0.732462 0.075632
v -0.061403 0.731240 0.061403
v 0.134604 0.234578 0.000000
v 0.000000 0.234578 0.134604
v -0.143403 -0.423432 0.143403
v -0.134604 0.234578 -0.000000
v 0.000000 0.234578 -0.134604
v 0.143403 -0.423432 -0.143403
v 0.143403 -0.423432 0.143403
v -0.061403 0.731240 -0.061403
v 0.061403 0.731240 -0.061403
v 0.061403 0.731240 0.061403
v -0.195158 -0.432151 -0.000000
v -0.000000 -0.432151 -0.195158
v 0.195158 -0.432151 -0.000000
v 0.000000 -0.432151 0.195158
v 0.000000 -0.777168 0.000000
v -0.099974 0.645685 -0.000000
v 0.000000 0.645685 -0.099974
v 0.099974 0.645685 0.000000
v -0.000000 0.645685 0.099974
vn -0.8747 -0.3482 0.3370
vn -0.9425 0.0831 0.3237
vn -0.9425 0.0831 -0.3237
vn -0.8747 -0.3482 -0.3370
vn -0.3593 0.0924 -0.9286
vn 0.3237 0.0831 -0.9425
vn 0.3370 -0.3482 -0.8747
vn 0.9286 0.0924 -0.3593
vn 0.8747 -0.3482 -0.3370
vn 0.9286 0.0924 0.3593
vn 0.9425 0.0831 -0.3237
vn 0.9425 0.0831 0.3237
vn 0.8747 -0.3482 0.3370
vn 0.3593 0.0924 0.9286
vn 0.3370 -0.3482 0.8747
vn 0.3237 0.0831 0.9425
vn -0.3237 0.0831 0.9425
vn -0.3370 -0.3482 0.8747
vn -0.0000 0.3306 -0.9438
vn 0.3544 -0.8653 -0.3544
vn -0.9286 0.0924 0.3593
vn -0.9438 0.3306 -0.0000
vn -0.9286 0.0924 -0.3593
vn -0.0000 0.3306 0.9438
vn -0.3544 -0.8653 -0.3544
vn -0.3370 -0.3482 -0.8747
vn -0.3237 0.0831 -0.9425
vn -0.3544 -0.8653 0.3544
vn 0.3593 0.0924 -0.9286
vn 0.9438 0.3306 -0.0000
vn 0.3544 -0.8653 0.3544
vn -0.3593 0.0924 0.9286
vt 0.125000 0.625000
vt 0.375000 1.000000
vt 0.500000 0.000000
vt 0.500000 0.125000
vt 0.500000 1.000000
vt 0.375000 0.000000
vt 0.625000 0.125000
vt 0.625000 0.250000
vt 0.500000 0.250000
vt 0.375000 0.125000
vt 0.125000 0.500000
vt 0.375000 0.125000
vt 0.458333 0.416667
vt 0.625000 0.375000
vt 0.375000 0.250000
vt 0.500000 0.375000
vt 0.500000 0.375000
vt 0.375000 0.375000
vt 0.625000 0.500000
vt 0.500000 0.500000
vt 0.375000 0.500000
vt 0.375000 0.375000
vt 0.458333 0.666667
vt 0.625000 0.625000
vt 0.500000 0.625000
vt 0.375000 0.625000
vt 0.500000 0.625000
vt 0.500000 0.875000
vt 0.625000 0.750000
vt 0.375000 0.625000
vt 0.500000 0.750000
vt 0.375000 0.750000
vt 0.458333 0.916667
vt 0.625000 0.875000
vt 0.250000 0.750000
vt 0.500000 0.875000
vt 0.375000 0.875000
vt 0.625000 0.000000
vt 0.125000 0.750000
vt 0.375000 0.875000
vt 0.500000 0.250000
vt 0.500000 0.500000
vt 0.250000 0.625000
vt 0.375000 1.000000
vt 0.500000 0.125000
vt 0.458333 0.166667
vt 0.500000 1.000000
vt 0.500000 0.750000
vt 0.250000 0.500000
vt 0.375000 0.000000
vt 0.625000 1.000000
vt 0.625000 1.000000
s 0
f 10/1/1 1/2/1 18/3/1 26/4/1
f 26/4/2 18/5/2 6/6/2 19/7/2
f 3/8/3 11/9/3 26/4/3 19/10/3
f 2/11/4 10/12/4 26/4/4 11/9/4
f 32/13/5 20/14/5 3/15/5 23/16/5
f 27/17/6 20/18/6 9/19/6 21/20/6
f 5/21/7 12/22/7 27/17/7 21/20/7
f 33/23/8 16/24/8 9/21/8 24/25/8
f 13/26/9 5/21/9 21/20/9 28/27/9
f 33/23/10 25/28/10 8/29/10 16/30/10
f 9/21/11 16/24/11 28/27/11 21/20/11
f 28/27/12 16/30/12 8/29/12 22/31/12
f 4/32/13 13/26/13 28/27/13 22/31/13
f 34/33/14 17/34/14 8/32/14 25/28/14
f 14/35/15 4/32/15 22/31/15 29/36/15
f 8/32/16 17/34/16 29/36/16 22/31/16
f 29/36/17 17/37/17 6/38/17 18/5/17
f 1/39/18 14/40/18 29/36/18 18/3/18
f 32/13/19 23/41/19 7/29/19 24/42/19
f 30/43/20 12/22/20 5/21/20 13/26/20
f 19/7/21 6/44/21 15/45/21 31/46/21
f 31/46/22 15/47/22 7/19/22 23/41/22
f 3/8/23 19/10/23 31/46/23 23/16/23
f 7/8/24 15/47/24 34/33/24 25/48/24
f 10/12/25 2/15/25 12/49/25 30/43/25
f 12/49/26 2/15/26 11/9/26 27/17/26
f 27/17/27 11/9/27 3/15/27 20/14/27
f 1/50/28 10/1/28 30/43/28 14/40/28
f 9/19/29 20/18/29 32/13/29 24/25/29
f 33/23/30 24/42/30 7/51/30 25/48/30
f 30/43/31 13/26/31 4/32/31 14/35/31
f 15/45/32 6/52/32 17/37/32 34/33/32
