# Blender 4.5.3 LTS
# www.blender.org
o Cube
v -1.325426 -0.027985 2.382127
v -1.051015 0.873884 1.887781
v -1.381194 -0.042296 -2.319732
v -0.977932 1.056017 -1.791130
v 1.325426 -0.027985 2.382127
v 1.051015 0.873884 1.887781
v 1.381194 -0.042296 -2.319732
v 0.977932 1.056017 -1.791130
v -1.395431 0.007258 -1.278156
v -1.395431 0.007258 -0.001399
v -1.395431 0.007258 1.275358
v -1.363632 0.366021 2.416104
v -1.227579 0.559799 2.239384
v -1.056133 0.710596 2.133653
v -1.097731 0.979817 1.279158
v -1.097731 0.993850 -0.195221
v -1.036179 1.006926 -1.173605
v -1.168452 0.613892 -1.988891
v -1.282049 0.542269 -2.259352
v -1.382980 0.296499 -2.309875
v 0.698955 -0.034571 -2.334520
v -0.000000 -0.034571 -2.334520
v -0.698955 -0.034571 -2.334520
v -0.698955 1.162270 -1.818047
v -0.000000 1.162270 -1.818047
v 0.698955 1.162270 -1.818047
v 1.168452 0.613892 -1.988891
v 1.282049 0.542269 -2.259352
v 1.382980 0.296499 -2.309875
v 1.395431 0.007258 1.275358
v 1.395431 0.007258 -0.001399
v 1.395431 0.007258 -1.278156
v 1.036179 1.006926 -1.173605
v 1.097731 0.993850 -0.195221
v 1.097731 0.979817 1.279158
v 1.056133 0.710596 2.133653
v 1.227579 0.559799 2.239384
v 1.363632 0.366021 2.416104
v -0.698955 -0.023169 2.431454
v -0.000000 -0.023169 2.431454
v 0.698955 -0.023169 2.431454
v 0.698955 0.996450 1.940306
v 0.000000 0.996450 1.940306
v -0.698955 0.996450 1.940306
v -1.407412 0.271010 1.282959
v -1.287065 0.564232 1.282959
v -1.206228 0.863789 1.282959
v -1.407412 0.271010 0.006202
v -1.287065 0.564232 0.006202
v -1.206228 0.863789 0.006202
v -1.407412 0.271010 -1.270556
v -1.287065 0.564232 -1.270556
v -1.141508 0.856194 -1.268615
v -0.698955 0.208303 -2.486506
v -0.698956 0.567399 -2.444702
v -0.698955 0.635475 -2.183106
v -0.000000 0.208303 -2.486506
v -0.000000 0.567399 -2.444702
v -0.000000 0.635475 -2.183106
v 0.698955 0.208303 -2.486506
v 0.698955 0.567399 -2.444702
v 0.698955 0.635475 -2.183106
v 1.407412 0.271010 -1.270556
v 1.287065 0.564232 -1.270556
v 1.141508 0.856194 -1.268615
v 1.407412 0.271010 0.006202
v 1.287065 0.564232 0.006202
v 1.206228 0.863789 0.006202
v 1.407412 0.271010 1.282959
v 1.287065 0.564232 1.282959
v 1.206228 0.863789 1.282959
v 0.698955 0.318515 2.475591
v 0.698956 0.559799 2.276703
v 0.698955 0.858848 2.185043
v 0.000000 0.318515 2.475591
v 0.000000 0.559799 2.276703
v -0.000000 0.858848 2.185043
v -0.698955 0.318515 2.475591
v -0.698955 0.559799 2.276703
v -0.698955 0.858848 2.185043
v -0.698955 -0.020539 -1.278156
v -0.000000 -0.020539 -1.278157
v 0.698955 -0.020539 -1.278156
v -0.698955 -0.020539 -0.001399
v -0.000000 -0.020539 -0.001399
v 0.698955 -0.020539 -0.001399
v -0.698955 -0.020539 1.275358
v -0.000000 -0.020539 1.275358
v 0.698955 -0.020539 1.275358
v 0.698955 1.125525 -1.175545
v -0.000000 1.125525 -1.175546
v -0.698955 1.125525 -1.175545
v 0.698955 1.095053 -0.195221
v 0.000000 1.095053 -0.195221
v -0.698955 1.095053 -0.195221
v 0.698955 1.072196 1.279158
v 0.000000 1.072196 1.279158
v -0.698955 1.072196 1.279158
vn -0.9251 0.3797 -0.0000
vn -0.0544 0.6351 0.7705
vn -0.9655 0.2605 -0.0000
vn -0.2348 0.1124 -0.9655
vn -0.0000 -0.9999 0.0133
vn -0.9970 -0.0471 0.0616
vn -0.3524 0.8157 0.4587
vn -0.9251 0.3797 0.0039
vn -0.6445 0.7633 0.0436
vn -0.7166 0.6758 0.1726
vn -0.3509 0.9349 0.0535
vn -0.0000 0.1156 -0.9933
vn -0.7304 0.6830 -0.0000
vn 0.3524 0.8157 0.4587
vn -0.0124 -0.5304 -0.8476
vn -0.7997 0.5987 -0.0442
vn -0.8931 0.4354 -0.1131
vn -0.8886 0.4438 -0.1160
vn -0.0398 -0.9981 0.0469
vn -0.9250 0.3797 -0.0131
vn -0.9999 -0.0049 -0.0134
vn -0.9990 -0.0454 -0.0000
vn 0.0079 -1.0000 -0.0023
vn -0.9642 0.2602 -0.0505
vn -0.0769 -0.1277 0.9888
vn -0.0000 0.9678 -0.2518
vn 0.9241 0.3820 -0.0124
vn 0.0399 -0.9992 -0.0000
vn 0.2257 0.9742 0.0093
vn -0.0000 0.9984 0.0571
vn 0.9251 0.3797 -0.0000
vn -0.0000 0.5696 -0.8219
vn 0.9987 -0.0447 -0.0246
vn -0.2840 0.5461 -0.7881
vn 0.3498 0.5040 -0.7897
vn 0.1471 0.9572 -0.2491
vn 0.0398 -0.9981 0.0469
vn 0.3002 0.3088 -0.9025
vn 0.2467 0.0269 -0.9687
vn -0.0000 -0.5305 -0.8477
vn 0.9642 0.2602 -0.0505
vn 0.0170 0.6802 0.7328
vn -0.0000 -1.0000 -0.0023
vn -0.0000 0.9935 0.1138
vn 0.2460 0.9693 -0.0025
vn -0.0000 0.6361 0.7716
vn 0.8061 0.5903 -0.0428
vn 0.0769 -0.1277 0.9888
vn 0.7632 0.6462 0.0062
vn 0.9022 0.3677 0.2254
vn 0.9435 0.2546 0.2123
vn -0.0079 -1.0000 -0.0023
vn 0.7943 0.6053 0.0522
vn 0.9938 -0.1004 0.0468
vn 0.9990 -0.0454 -0.0000
vn 0.9655 0.2605 -0.0000
vn -0.0000 0.2930 0.9561
vn -0.0000 0.8717 0.4901
vn -0.0399 -0.9992 -0.0000
vn -0.0000 -1.0000 -0.0000
vn -0.0000 -0.1281 0.9918
vn -0.0000 0.2931 0.9561
vn 0.3312 0.9425 0.0437
vn 0.3477 0.9188 0.1866
vn -0.0000 0.9999 0.0155
vn -0.0000 0.9995 0.0311
vn -0.2243 0.9682 0.1109
vn 0.0555 0.6148 0.7867
vn 0.8104 0.5851 -0.0299
vn 0.4956 0.8683 -0.0218
vn -0.2460 0.9692 0.0150
vn -0.2509 0.2837 0.9255
vn -0.1091 0.9713 -0.2114
vn -0.3315 0.9430 0.0293
vn -0.0170 0.6802 0.7328
vn -0.3002 0.3088 -0.9025
vn -0.9938 -0.1004 0.0468
vn -0.3920 0.7701 0.5033
vn -0.7943 0.6053 0.0522
vn -0.9435 0.2546 0.2123
vn -0.9022 0.3677 0.2254
vn -0.3312 0.9425 0.0437
vn -0.7632 0.6462 0.0062
vn 0.3920 0.7701 0.5033
vn -0.2467 0.0269 -0.9687
vn -0.8061 0.5903 -0.0428
vn -0.8104 0.5851 -0.0299
vn -0.4956 0.8683 -0.0218
vn 0.0116 -0.9998 0.0133
vn -0.9241 0.3820 -0.0124
vn -0.9987 -0.0447 -0.0246
vn -0.0399 -0.9988 -0.0293
vn -0.8949 0.4462 -0.0000
vn -0.0955 -0.0947 0.9909
vn 0.9250 0.3797 -0.0131
vn 0.2460 0.9692 0.0150
vn 0.9999 -0.0049 -0.0134
vn -0.3498 0.5040 -0.7897
vn 0.2840 0.5461 -0.7881
vn 0.1091 0.9713 -0.2114
vn -0.0116 -0.9998 0.0133
vn 0.2348 0.1124 -0.9655
vn 0.0124 -0.5304 -0.8476
vn 0.8949 0.4462 -0.0000
vn 0.0544 0.6351 0.7705
vn 0.3315 0.9430 0.0293
vn 0.7997 0.5987 -0.0442
vn 0.0955 -0.0947 0.9909
vn 0.7304 0.6830 -0.0000
vn 0.7166 0.6758 0.1726
vn 0.6445 0.7633 0.0436
vn 0.0399 -0.9988 -0.0293
vn 0.9251 0.3797 0.0039
vn 0.9970 -0.0471 0.0616
vn 0.3509 0.9349 0.0535
vn 0.2243 0.9682 0.1109
vn -0.3477 0.9188 0.1866
vn 0.2509 0.2837 0.9255
vn 0.8931 0.4354 -0.1131
vn 0.8886 0.4438 -0.1160
vn -0.2257 0.9742 0.0093
vn -0.0555 0.6148 0.7867
vn -0.1471 0.9572 -0.2491
vn -0.2460 0.9693 -0.0025
vt 0.437500 0.062500
vt 0.500000 0.125000
vt 0.437500 0.125000
vt 0.500000 0.000000
vt 0.437500 0.937500
vt 0.500000 0.937500
vt 0.500000 0.062500
vt 0.562500 0.125000
vt 0.437500 0.250000
vt 0.500000 0.312500
vt 0.437500 0.312500
vt 0.250000 0.500000
vt 0.187500 0.562500
vt 0.375000 0.312500
vt 0.375000 1.000000
vt 0.125000 0.687500
vt 0.625000 0.000000
vt 0.562500 0.937500
vt 0.812500 0.750000
vt 0.437500 1.000000
vt 0.562500 0.000000
vt 0.500000 1.000000
vt 0.562500 0.062500
vt 0.875000 0.750000
vt 0.625000 0.062500
vt 0.625000 0.250000
vt 0.812500 0.562500
vt 0.625000 0.312500
vt 0.437500 0.437500
vt 0.500000 0.375000
vt 0.500000 0.437500
vt 0.875000 0.687500
vt 0.562500 0.812500
vt 0.625000 0.750000
vt 0.625000 0.812500
vt 0.375000 0.250000
vt 0.187500 0.500000
vt 0.875000 0.625000
vt 0.562500 0.187500
vt 0.562500 0.250000
vt 0.500000 0.187500
vt 0.375000 0.187500
vt 0.500000 0.250000
vt 0.437500 0.187500
vt 0.125000 0.500000
vt 0.375000 0.125000
vt 0.125000 0.562500
vt 0.375000 0.000000
vt 0.187500 0.687500
vt 0.375000 0.937500
vt 0.375000 0.062500
vt 0.125000 0.625000
vt 0.125000 0.750000
vt 0.437500 0.375000
vt 0.562500 0.312500
vt 0.562500 0.375000
vt 0.500000 0.500000
vt 0.437500 0.562500
vt 0.437500 0.500000
vt 0.375000 0.562500
vt 0.312500 0.625000
vt 0.312500 0.562500
vt 0.625000 0.625000
vt 0.687500 0.687500
vt 0.625000 0.687500
vt 0.625000 0.375000
vt 0.750000 0.562500
vt 0.437500 0.687500
vt 0.500000 0.625000
vt 0.500000 0.687500
vt 0.812500 0.500000
vt 0.625000 0.437500
vt 0.750000 0.500000
vt 0.875000 0.500000
vt 0.562500 0.437500
vt 0.625000 0.500000
vt 0.562500 0.500000
vt 0.375000 0.500000
vt 0.375000 0.375000
vt 0.312500 0.500000
vt 0.250000 0.562500
vt 0.437500 0.625000
vt 0.500000 0.562500
vt 0.562500 0.562500
vt 0.562500 0.625000
vt 0.500000 0.750000
vt 0.437500 0.812500
vt 0.437500 0.750000
vt 0.375000 0.812500
vt 0.250000 0.687500
vt 0.312500 0.687500
vt 0.750000 0.750000
vt 0.812500 0.687500
vt 0.625000 0.937500
vt 0.625000 0.562500
vt 0.687500 0.625000
vt 0.500000 0.875000
vt 0.375000 0.750000
vt 0.312500 0.750000
vt 0.562500 0.687500
vt 0.562500 0.750000
vt 0.375000 0.687500
vt 0.375000 0.625000
vt 0.437500 0.875000
vt 0.562500 0.875000
vt 0.687500 0.750000
vt 0.750000 0.687500
vt 0.625000 0.875000
vt 0.187500 0.750000
vt 0.375000 0.875000
vt 0.250000 0.625000
vt 0.250000 0.750000
vt 0.187500 0.625000
vt 0.687500 0.562500
vt 0.750000 0.625000
vt 0.812500 0.625000
vt 0.500000 0.812500
vt 0.625000 0.125000
vt 0.625000 0.187500
vt 0.437500 0.000000
vt 0.562500 1.000000
vt 0.875000 0.562500
vt 0.687500 0.500000
vt 0.375000 0.437500
vt 0.625000 1.000000
s 0
f 45/1/1 49/2/1 48/3/1
f 13/4/2 78/5/2 79/6/2
f 46/7/3 50/8/3 49/2/3
f 20/9/4 55/10/4 54/11/4
f 22/12/5 81/13/5 23/14/5
f 1/15/6 45/1/6 11/16/6
f 2/17/7 80/18/7 44/19/7
f 12/20/8 46/7/8 45/1/8
f 14/21/9 46/7/9 13/22/9
f 47/23/10 2/24/10 15/25/10
f 4/26/11 92/27/11 24/28/11
f 60/29/12 58/30/12 61/31/12
f 15/32/13 50/8/13 47/23/13
f 74/33/14 6/34/14 42/35/14
f 3/36/15 54/11/15 23/37/15
f 16/38/16 53/39/16 50/8/16
f 53/39/17 4/26/17 18/40/17
f 18/40/18 52/41/18 53/39/18
f 3/36/19 81/13/19 9/42/19
f 19/43/20 51/44/20 52/41/20
f 9/42/21 20/9/21 3/45/21
f 10/46/22 51/44/22 9/47/22
f 1/48/23 87/49/23 39/50/23
f 11/51/22 48/3/22 10/52/22
f 53/39/24 49/2/24 50/8/24
f 78/5/25 1/53/25 39/50/25
f 54/11/12 58/30/12 57/54/12
f 58/30/26 56/55/26 59/56/26
f 28/57/27 63/58/27 29/59/27
f 32/60/28 86/61/28 83/62/28
f 34/63/29 96/64/29 35/65/29
f 25/66/30 92/27/30 91/67/30
f 69/68/31 67/69/31 70/70/31
f 25/66/32 56/55/32 24/71/32
f 32/60/33 29/59/33 63/58/33
f 26/72/32 59/56/32 25/73/32
f 56/55/34 4/74/34 24/28/34
f 62/75/35 8/76/35 27/77/35
f 27/77/36 61/31/36 62/75/36
f 83/62/37 7/78/37 32/60/37
f 29/59/38 61/31/38 28/57/38
f 7/78/39 60/29/39 29/59/39
f 22/79/40 60/29/40 21/80/40
f 23/14/40 57/54/40 22/12/40
f 61/31/26 59/56/26 62/75/26
f 21/80/5 82/81/5 22/79/5
f 66/82/31 64/83/31 67/69/31
f 67/69/41 65/84/41 68/85/41
f 37/86/42 72/87/42 38/88/42
f 41/89/43 88/90/43 89/91/43
f 43/92/44 98/93/44 44/94/44
f 33/95/45 93/96/45 34/63/45
f 78/5/46 76/97/46 79/6/46
f 34/63/47 65/84/47 33/95/47
f 5/98/48 72/87/48 41/99/48
f 35/65/49 68/85/49 34/63/49
f 71/100/50 6/34/50 36/101/50
f 36/101/51 70/70/51 71/100/51
f 89/91/52 5/98/52 41/99/52
f 38/88/53 70/70/53 37/86/53
f 5/98/54 69/68/54 38/88/54
f 30/102/55 66/82/55 69/68/55
f 31/103/55 63/58/55 66/82/55
f 70/70/56 68/85/56 71/100/56
f 31/103/28 89/91/28 86/61/28
f 72/87/46 76/97/46 75/104/46
f 76/97/57 74/33/57 77/105/57
f 42/106/44 97/107/44 43/108/44
f 43/108/58 74/33/58 42/106/58
f 39/109/43 88/90/43 40/110/43
f 44/94/58 77/105/58 43/92/58
f 10/52/59 87/49/59 11/51/59
f 87/49/60 85/111/60 88/90/60
f 40/110/61 78/5/61 39/109/61
f 41/89/61 75/104/61 40/112/61
f 79/6/62 77/105/62 80/18/62
f 81/13/60 85/111/60 84/113/60
f 85/111/60 83/62/60 86/61/60
f 8/76/63 90/114/63 33/95/63
f 35/65/64 42/35/64 6/34/64
f 96/64/65 94/115/65 97/107/65
f 52/41/1 48/3/1 49/2/1
f 88/90/60 86/61/60 89/91/60
f 90/114/66 94/115/66 93/96/66
f 94/115/66 92/27/66 95/116/66
f 15/25/67 44/19/67 98/93/67
f 36/101/68 73/117/68 37/86/68
f 65/84/69 8/76/69 33/95/69
f 27/77/70 64/83/70 28/57/70
f 97/107/65 95/116/65 98/93/65
f 25/73/30 90/114/30 26/72/30
f 16/118/71 98/93/71 95/116/71
f 14/21/72 79/6/72 80/18/72
f 18/40/73 55/10/73 19/43/73
f 17/119/74 95/116/74 92/27/74
f 9/47/59 84/113/59 10/46/59
f 45/1/1 46/7/1 49/2/1
f 13/4/75 12/20/75 78/5/75
f 46/7/3 47/23/3 50/8/3
f 20/9/76 19/43/76 55/10/76
f 22/12/5 82/81/5 81/13/5
f 1/15/77 12/120/77 45/1/77
f 2/17/78 14/121/78 80/18/78
f 12/20/79 13/4/79 46/7/79
f 14/21/80 47/23/80 46/7/80
f 47/23/81 14/121/81 2/24/81
f 4/26/82 17/122/82 92/27/82
f 60/29/12 57/54/12 58/30/12
f 15/32/83 16/118/83 50/8/83
f 74/33/84 36/101/84 6/34/84
f 3/36/85 20/9/85 54/11/85
f 16/38/86 17/119/86 53/39/86
f 53/39/87 17/122/87 4/26/87
f 18/40/88 19/43/88 52/41/88
f 3/36/89 23/37/89 81/13/89
f 19/43/90 20/9/90 51/44/90
f 9/42/91 51/44/91 20/9/91
f 10/46/22 48/3/22 51/44/22
f 1/48/92 11/16/92 87/49/92
f 11/51/22 45/1/22 48/3/22
f 53/39/93 52/41/93 49/2/93
f 78/5/94 12/120/94 1/53/94
f 54/11/12 55/10/12 58/30/12
f 58/30/26 55/10/26 56/55/26
f 28/57/95 64/83/95 63/58/95
f 32/60/28 31/103/28 86/61/28
f 34/63/96 93/96/96 96/64/96
f 25/66/30 24/71/30 92/27/30
f 69/68/31 66/82/31 67/69/31
f 25/66/32 59/56/32 56/55/32
f 32/60/97 7/78/97 29/59/97
f 26/72/32 62/75/32 59/56/32
f 56/55/98 18/40/98 4/74/98
f 62/75/99 26/123/99 8/76/99
f 27/77/100 28/57/100 61/31/100
f 83/62/101 21/124/101 7/78/101
f 29/59/102 60/29/102 61/31/102
f 7/78/103 21/124/103 60/29/103
f 22/79/40 57/54/40 60/29/40
f 23/14/40 54/11/40 57/54/40
f 61/31/26 58/30/26 59/56/26
f 21/80/5 83/62/5 82/81/5
f 66/82/31 63/58/31 64/83/31
f 67/69/104 64/83/104 65/84/104
f 37/86/105 73/117/105 72/87/105
f 41/89/43 40/112/43 88/90/43
f 43/92/44 97/107/44 98/93/44
f 33/95/106 90/114/106 93/96/106
f 78/5/46 75/104/46 76/97/46
f 34/63/107 68/85/107 65/84/107
f 5/98/108 38/88/108 72/87/108
f 35/65/109 71/100/109 68/85/109
f 71/100/110 35/65/110 6/34/110
f 36/101/111 37/86/111 70/70/111
f 89/91/112 30/102/112 5/98/112
f 38/88/113 69/68/113 70/70/113
f 5/98/114 30/102/114 69/68/114
f 30/102/55 31/103/55 66/82/55
f 31/103/55 32/60/55 63/58/55
f 70/70/56 67/69/56 68/85/56
f 31/103/28 30/102/28 89/91/28
f 72/87/46 73/117/46 76/97/46
f 76/97/57 73/117/57 74/33/57
f 42/106/44 96/64/44 97/107/44
f 43/108/58 77/105/58 74/33/58
f 39/109/43 87/49/43 88/90/43
f 44/94/58 80/18/58 77/105/58
f 10/52/59 84/113/59 87/49/59
f 87/49/60 84/113/60 85/111/60
f 40/110/61 75/104/61 78/5/61
f 41/89/61 72/87/61 75/104/61
f 79/6/57 76/97/57 77/105/57
f 81/13/60 82/81/60 85/111/60
f 85/111/60 82/81/60 83/62/60
f 8/76/115 26/123/115 90/114/115
f 35/65/116 96/64/116 42/35/116
f 96/64/65 93/96/65 94/115/65
f 52/41/1 51/44/1 48/3/1
f 88/90/60 85/111/60 86/61/60
f 90/114/66 91/67/66 94/115/66
f 94/115/66 91/67/66 92/27/66
f 15/25/117 2/125/117 44/19/117
f 36/101/118 74/33/118 73/117/118
f 65/84/119 27/77/119 8/76/119
f 27/77/120 65/84/120 64/83/120
f 97/107/65 94/115/65 95/116/65
f 25/73/30 91/67/30 90/114/30
f 16/118/121 15/32/121 98/93/121
f 14/21/122 13/22/122 79/6/122
f 18/40/123 56/55/123 55/10/123
f 17/119/124 16/38/124 95/116/124
f 9/47/59 81/13/59 84/113/59
