# Blender 4.5.3 LTS
# www.blender.org
o bed_cd_envelope
v -1.051015 0.873884 1.887781
v -0.977932 1.056017 -1.791130
v 1.051015 0.873884 1.887781
v 0.977932 1.056017 -1.791130
v -1.363632 0.366021 2.416104
v -1.227579 0.559799 2.239384
v -1.056133 0.710596 2.133653
v -1.097731 0.979817 1.279158
v -1.097731 0.993850 -0.195221
v -1.036179 1.006926 -1.173605
v -1.168452 0.613892 -1.988891
v -1.282049 0.542269 -2.259352
v -1.382980 0.296499 -2.309875
v -0.698955 1.162270 -1.818047
v -0.000000 1.162270 -1.818047
v 0.698955 1.162270 -1.818047
v 1.168452 0.613892 -1.988891
v 1.282049 0.542269 -2.259352
v 1.382980 0.296499 -2.309875
v 1.036179 1.006926 -1.173605
v 1.097731 0.993850 -0.195221
v 1.097731 0.979817 1.279158
v 1.056133 0.710596 2.133653
v 1.227579 0.559799 2.239384
v 1.363632 0.366021 2.416104
v 0.698955 0.996450 1.940306
v 0.000000 0.996450 1.940306
v -0.698955 0.996450 1.940306
v -1.407412 0.271010 1.282959
v -1.287065 0.564232 1.282959
v -1.206228 0.863789 1.282959
v -1.407412 0.271010 0.006202
v -1.287065 0.564232 0.006202
v -1.206228 0.863789 0.006202
v -1.407412 0.271010 -1.270556
v -1.287065 0.564232 -1.270556
v -1.141508 0.856194 -1.268615
v -0.698955 0.208303 -2.486506
v -0.698956 0.567399 -2.444702
v -0.698955 0.635475 -2.183106
v -0.000000 0.208303 -2.486506
v -0.000000 0.567399 -2.444702
v -0.000000 0.635475 -2.183106
v 0.698955 0.208303 -2.486506
v 0.698955 0.567399 -2.444702
v 0.698955 0.635475 -2.183106
v 1.407412 0.271010 -1.270556
v 1.287065 0.564232 -1.270556
v 1.141508 0.856194 -1.268615
v 1.407412 0.271010 0.006202
v 1.287065 0.564232 0.006202
v 1.206228 0.863789 0.006202
v 1.407412 0.271010 1.282959
v 1.287065 0.564232 1.282959
v 1.206228 0.863789 1.282959
v 0.698955 0.318515 2.475591
v 0.698956 0.559799 2.276703
v 0.698955 0.858848 2.185043
v 0.000000 0.318515 2.475591
v 0.000000 0.559799 2.276703
v -0.000000 0.858848 2.185043
v -0.698955 0.318515 2.475591
v -0.698955 0.559799 2.276703
v -0.698955 0.858848 2.185043
v 1.097731 0.987507 0.471216
v 0.698955 1.084721 0.471216
v 0.000000 1.084721 0.471216
v -0.698955 1.084721 0.471216
v -1.097731 0.987507 0.471216
v 0.698955 1.125525 -1.175545
v -0.000000 1.125525 -1.175546
v -0.698955 1.125525 -1.175545
v 0.698955 1.095053 -0.195221
v 0.000000 1.095053 -0.195221
v -0.698955 1.095053 -0.195221
v 0.698955 1.072196 1.279158
v 0.000000 1.072196 1.279158
v -0.698955 1.072196 1.279158
vn -0.9251 0.3797 -0.0000
vn -0.0544 0.6351 0.7705
vn -0.9655 0.2605 -0.0000
vn -0.2348 0.1124 -0.9655
vn -0.3524 0.8157 0.4587
vn -0.9251 0.3797 0.0039
vn -0.6445 0.7633 0.0436
vn -0.7166 0.6758 0.1726
vn -0.3509 0.9349 0.0535
vn -0.0000 0.1156 -0.9933
vn -0.7518 0.6593 -0.0000
vn 0.3524 0.8157 0.4587
vn -0.7997 0.5987 -0.0442
vn -0.8931 0.4354 -0.1131
vn -0.8886 0.4438 -0.1160
vn -0.9250 0.3797 -0.0131
vn -0.9642 0.2602 -0.0505
vn -0.0000 0.9678 -0.2518
vn 0.9241 0.3820 -0.0124
vn 0.2257 0.9742 0.0093
vn -0.0000 0.9984 0.0571
vn 0.9251 0.3797 -0.0000
vn -0.0000 0.5696 -0.8219
vn -0.2840 0.5461 -0.7881
vn 0.3498 0.5040 -0.7897
vn 0.1471 0.9572 -0.2491
vn 0.3002 0.3088 -0.9025
vn 0.9642 0.2602 -0.0505
vn 0.0170 0.6802 0.7328
vn -0.0000 0.9935 0.1138
vn 0.2460 0.9693 -0.0025
vn -0.0000 0.6361 0.7716
vn 0.8061 0.5903 -0.0428
vn 0.7518 0.6593 -0.0000
vn 0.9022 0.3677 0.2254
vn 0.9435 0.2546 0.2123
vn 0.7943 0.6053 0.0522
vn 0.9655 0.2605 -0.0000
vn -0.0000 0.2930 0.9561
vn -0.0000 0.8717 0.4901
vn 0.2460 0.9692 0.0150
vn -0.0000 0.2931 0.9561
vn -0.0000 0.9999 0.0155
vn 0.3312 0.9425 0.0437
vn 0.3477 0.9188 0.1866
vn -0.2368 0.9714 0.0151
vn -0.0000 0.9995 0.0311
vn -0.2243 0.9682 0.1109
vn 0.0555 0.6148 0.7867
vn 0.8104 0.5851 -0.0299
vn 0.4956 0.8683 -0.0218
vn -0.2460 0.9692 0.0150
vn -0.2509 0.2837 0.9255
vn -0.1091 0.9713 -0.2114
vn -0.3315 0.9430 0.0293
vn -0.0170 0.6802 0.7328
vn -0.3002 0.3088 -0.9025
vn -0.3920 0.7701 0.5033
vn -0.7943 0.6053 0.0522
vn -0.9435 0.2546 0.2123
vn -0.9022 0.3677 0.2254
vn -0.3312 0.9425 0.0437
vn -0.7303 0.6831 0.0065
vn -0.7632 0.6462 0.0062
vn 0.3920 0.7701 0.5033
vn -0.8061 0.5903 -0.0428
vn -0.8104 0.5851 -0.0299
vn -0.4956 0.8683 -0.0218
vn -0.9241 0.3820 -0.0124
vn -0.8949 0.4462 -0.0000
vn 0.9250 0.3797 -0.0131
vn 0.2368 0.9714 0.0151
vn -0.3498 0.5040 -0.7897
vn 0.2840 0.5461 -0.7881
vn 0.1091 0.9713 -0.2114
vn 0.2348 0.1124 -0.9655
vn 0.8949 0.4462 -0.0000
vn 0.0544 0.6351 0.7705
vn 0.3315 0.9430 0.0293
vn 0.7997 0.5987 -0.0442
vn 0.7632 0.6462 0.0062
vn 0.7303 0.6831 0.0065
vn 0.7166 0.6758 0.1726
vn 0.6445 0.7633 0.0436
vn 0.9251 0.3797 0.0039
vn 0.2368 0.9715 0.0092
vn 0.3509 0.9349 0.0535
vn 0.2243 0.9682 0.1109
vn -0.2257 0.9742 0.0093
vn -0.3477 0.9188 0.1866
vn 0.2509 0.2837 0.9255
vn 0.8931 0.4354 -0.1131
vn 0.8886 0.4438 -0.1160
vn -0.2368 0.9715 0.0092
vn -0.0555 0.6148 0.7867
vn -0.1471 0.9572 -0.2491
vn -0.2460 0.9693 -0.0025
vt 0.437500 0.062500
vt 0.500000 0.125000
vt 0.437500 0.125000
vt 0.500000 0.000000
vt 0.437500 0.937500
vt 0.500000 0.937500
vt 0.500000 0.062500
vt 0.562500 0.125000
vt 0.437500 0.250000
vt 0.500000 0.312500
vt 0.437500 0.312500
vt 0.625000 0.000000
vt 0.562500 0.937500
vt 0.812500 0.750000
vt 0.437500 1.000000
vt 0.562500 0.000000
vt 0.500000 1.000000
vt 0.562500 0.062500
vt 0.875000 0.750000
vt 0.625000 0.062500
vt 0.625000 0.250000
vt 0.812500 0.562500
vt 0.625000 0.312500
vt 0.437500 0.437500
vt 0.500000 0.375000
vt 0.500000 0.437500
vt 0.738003 0.379257
vt 0.562500 0.812500
vt 0.625000 0.750000
vt 0.625000 0.812500
vt 0.875000 0.625000
vt 0.562500 0.187500
vt 0.562500 0.250000
vt 0.500000 0.187500
vt 0.500000 0.250000
vt 0.437500 0.187500
vt 0.437500 0.375000
vt 0.562500 0.312500
vt 0.562500 0.375000
vt 0.500000 0.500000
vt 0.437500 0.562500
vt 0.437500 0.500000
vt 0.625000 0.653251
vt 0.687500 0.687500
vt 0.625000 0.687500
vt 0.625000 0.375000
vt 0.750000 0.562500
vt 0.437500 0.687500
vt 0.500000 0.625000
vt 0.500000 0.687500
vt 0.812500 0.500000
vt 0.625000 0.437500
vt 0.750000 0.500000
vt 0.875000 0.500000
vt 0.562500 0.437500
vt 0.625000 0.500000
vt 0.562500 0.500000
vt 0.437500 0.625000
vt 0.500000 0.562500
vt 0.562500 0.562500
vt 0.562500 0.625000
vt 0.500000 0.750000
vt 0.437500 0.812500
vt 0.437500 0.750000
vt 0.750000 0.750000
vt 0.812500 0.687500
vt 0.625000 0.937500
vt 0.625000 0.562500
vt 0.687500 0.625000
vt 0.625000 0.625000
vt 0.500000 0.875000
vt 0.562500 0.687500
vt 0.562500 0.750000
vt 0.437500 0.875000
vt 0.562500 0.875000
vt 0.687500 0.750000
vt 0.750000 0.687500
vt 0.625000 0.875000
vt 0.687500 0.653251
vt 0.750000 0.653251
vt 0.750000 0.625000
vt 0.812500 0.625000
vt 0.812500 0.653251
vt 0.687500 0.562500
vt 0.500000 0.812500
vt 0.625000 0.125000
vt 0.625000 0.187500
vt 0.562500 1.000000
vt 0.875000 0.562500
vt 0.875000 0.687500
vt 0.687500 0.500000
vt 0.625000 1.000000
s 0
f 29/1/1 33/2/1 32/3/1
f 6/4/2 62/5/2 63/6/2
f 30/7/3 34/8/3 33/2/3
f 13/9/4 39/10/4 38/11/4
f 1/12/5 64/13/5 28/14/5
f 5/15/6 30/7/6 29/1/6
f 7/16/7 30/7/7 6/17/7
f 31/18/8 1/19/8 8/20/8
f 2/21/9 72/22/9 14/23/9
f 44/24/10 42/25/10 45/26/10
f 69/27/11 34/8/11 31/18/11
f 58/28/12 3/29/12 26/30/12
f 9/31/13 37/32/13 34/8/13
f 37/32/14 2/21/14 11/33/14
f 11/33/15 36/34/15 37/32/15
f 12/35/16 35/36/16 36/34/16
f 37/32/17 33/2/17 34/8/17
f 38/11/10 42/25/10 41/37/10
f 42/25/18 40/38/18 43/39/18
f 18/40/19 47/41/19 19/42/19
f 65/43/20 76/44/20 22/45/20
f 15/46/21 72/22/21 71/47/21
f 53/48/22 51/49/22 54/50/22
f 15/46/23 40/38/23 14/51/23
f 16/52/23 43/39/23 15/53/23
f 40/38/24 2/54/24 14/23/24
f 46/55/25 4/56/25 17/57/25
f 17/57/26 45/26/26 46/55/26
f 19/42/27 45/26/27 18/40/27
f 45/26/18 43/39/18 46/55/18
f 50/58/22 48/59/22 51/49/22
f 51/49/28 49/60/28 52/61/28
f 24/62/29 56/63/29 25/64/29
f 27/65/30 78/66/30 28/67/30
f 20/68/31 73/69/31 21/70/31
f 62/5/32 60/71/32 63/6/32
f 21/70/33 49/60/33 20/68/33
f 65/43/34 55/72/34 52/61/34
f 55/72/35 3/29/35 23/73/35
f 23/73/36 54/50/36 55/72/36
f 25/64/37 54/50/37 24/62/37
f 54/50/38 52/61/38 55/72/38
f 56/63/32 60/71/32 59/74/32
f 60/71/39 58/28/39 61/75/39
f 26/76/30 77/77/30 27/78/30
f 27/78/40 58/28/40 26/76/40
f 28/67/40 61/75/40 27/65/40
f 66/79/41 21/70/41 73/69/41
f 63/6/42 61/75/42 64/13/42
f 67/80/43 73/69/43 74/81/43
f 67/80/43 75/82/43 68/83/43
f 4/56/44 70/84/44 20/68/44
f 22/45/45 26/30/45 3/29/45
f 77/77/43 66/79/43 67/80/43
f 36/34/1 32/3/1 33/2/1
f 69/27/46 78/66/46 68/83/46
f 70/84/47 74/81/47 73/69/47
f 74/81/47 72/22/47 75/82/47
f 8/20/48 28/14/48 78/66/48
f 23/73/49 57/85/49 24/62/49
f 49/60/50 4/56/50 20/68/50
f 17/57/51 48/59/51 18/40/51
f 77/77/43 68/83/43 78/66/43
f 15/53/21 70/84/21 16/52/21
f 9/86/52 68/83/52 75/82/52
f 7/16/53 63/6/53 64/13/53
f 11/33/54 39/10/54 12/35/54
f 10/87/55 75/82/55 72/22/55
f 29/1/1 30/7/1 33/2/1
f 6/4/56 5/15/56 62/5/56
f 30/7/3 31/18/3 34/8/3
f 13/9/57 12/35/57 39/10/57
f 1/12/58 7/88/58 64/13/58
f 5/15/59 6/4/59 30/7/59
f 7/16/60 31/18/60 30/7/60
f 31/18/61 7/88/61 1/19/61
f 2/21/62 10/89/62 72/22/62
f 44/24/10 41/37/10 42/25/10
f 31/18/63 8/90/63 69/27/63
f 69/27/64 9/86/64 34/8/64
f 58/28/65 23/73/65 3/29/65
f 9/31/66 10/87/66 37/32/66
f 37/32/67 10/89/67 2/21/67
f 11/33/68 12/35/68 36/34/68
f 12/35/69 13/9/69 35/36/69
f 37/32/70 36/34/70 33/2/70
f 38/11/10 39/10/10 42/25/10
f 42/25/18 39/10/18 40/38/18
f 18/40/71 48/59/71 47/41/71
f 65/43/72 66/79/72 76/44/72
f 15/46/21 14/51/21 72/22/21
f 53/48/22 50/58/22 51/49/22
f 15/46/23 43/39/23 40/38/23
f 16/52/23 46/55/23 43/39/23
f 40/38/73 11/33/73 2/54/73
f 46/55/74 16/91/74 4/56/74
f 17/57/75 18/40/75 45/26/75
f 19/42/76 44/24/76 45/26/76
f 45/26/18 42/25/18 43/39/18
f 50/58/22 47/41/22 48/59/22
f 51/49/77 48/59/77 49/60/77
f 24/62/78 57/85/78 56/63/78
f 27/65/30 77/77/30 78/66/30
f 20/68/79 70/84/79 73/69/79
f 62/5/32 59/74/32 60/71/32
f 21/70/80 52/61/80 49/60/80
f 52/61/81 21/70/81 65/43/81
f 65/43/82 22/45/82 55/72/82
f 55/72/83 22/45/83 3/29/83
f 23/73/84 24/62/84 54/50/84
f 25/64/85 53/48/85 54/50/85
f 54/50/38 51/49/38 52/61/38
f 56/63/32 57/85/32 60/71/32
f 60/71/39 57/85/39 58/28/39
f 26/76/30 76/44/30 77/77/30
f 27/78/40 61/75/40 58/28/40
f 28/67/40 64/13/40 61/75/40
f 66/79/86 65/43/86 21/70/86
f 63/6/39 60/71/39 61/75/39
f 67/80/43 66/79/43 73/69/43
f 67/80/43 74/81/43 75/82/43
f 4/56/87 16/91/87 70/84/87
f 22/45/88 76/44/88 26/30/88
f 77/77/43 76/44/43 66/79/43
f 36/34/1 35/36/1 32/3/1
f 69/27/89 8/90/89 78/66/89
f 70/84/47 71/47/47 74/81/47
f 74/81/47 71/47/47 72/22/47
f 8/20/90 1/92/90 28/14/90
f 23/73/91 58/28/91 57/85/91
f 49/60/92 17/57/92 4/56/92
f 17/57/93 49/60/93 48/59/93
f 77/77/43 67/80/43 68/83/43
f 15/53/21 71/47/21 70/84/21
f 9/86/94 69/27/94 68/83/94
f 7/16/95 6/17/95 63/6/95
f 11/33/96 40/38/96 39/10/96
f 10/87/97 9/31/97 75/82/97
