# Blender 4.5.3 LTS
# www.blender.org
o shape
v -0.500000 -2.500000 0.500000
v -0.500000 -2.500000 -0.500000
v 0.500000 -2.500000 0.500000
v 0.500000 -2.500000 -0.500000
v 1.000000 -1.000000 1.000000
v 1.000000 -1.000000 -1.000000
v 2.500000 -0.500000 0.500000
v 2.500000 0.500000 0.500000
v 2.500000 -0.500000 -0.500000
v 2.500000 0.500000 -0.500000
v -0.500000 -0.500000 -2.500000
v -0.500000 0.500000 -2.500000
v 0.500000 -0.500000 -2.500000
v 0.500000 0.500000 -2.500000
v -2.500000 -0.500000 0.500000
v -2.500000 0.500000 0.500000
v -2.500000 -0.500000 -0.500000
v -2.500000 0.500000 -0.500000
v -1.000000 1.000000 1.000000
v -1.000000 -1.000000 -1.000000
v -0.500000 -0.500000 2.500000
v -0.500000 0.500000 2.500000
v -1.000000 -1.000000 1.000000
v 0.500000 -0.500000 2.500000
v 0.500000 0.500000 2.500000
v -0.500000 2.500000 0.500000
v -1.000000 1.000000 -1.000000
v -0.500000 2.500000 -0.500000
v 1.000000 1.000000 1.000000
v 0.500000 2.500000 0.500000
v 1.000000 1.000000 -1.000000
v 0.500000 2.500000 -0.500000
v -0.609568 -2.609568 -0.000000
v 0.000000 -2.609568 -0.609568
v 0.609568 -2.609568 0.000000
v -0.000000 -2.609568 0.609568
v 1.263889 -1.263889 -0.000000
v 1.950617 -0.672839 -0.672840
v 2.609568 0.000000 -0.609568
v 2.609568 -0.609568 0.000000
v 2.609568 0.609568 0.000000
v 2.609568 0.000000 0.609568
v 1.950617 -0.672839 0.672840
v -0.609568 0.000000 -2.609568
v 0.000000 -0.609568 -2.609568
v -0.000000 0.609568 -2.609568
v 0.609568 0.000000 -2.609568
v -2.609568 -0.609568 -0.000000
v -2.609568 0.000000 0.609568
v -2.609568 0.609568 0.000000
v -2.609568 0.000000 -0.609568
v -1.950617 -0.672839 -0.672840
v -1.950618 0.672839 0.672840
v -0.672840 -0.672839 1.950617
v -0.609568 0.000000 2.609568
v 0.609568 0.000000 2.609568
v -0.000000 -0.609568 2.609568
v -0.000000 0.609568 2.609568
v -0.609568 2.609569 0.000000
v -0.672839 1.950618 -0.672840
v -0.000000 1.263889 -1.263889
v -0.000000 2.609569 -0.609568
v 0.672840 1.950618 -0.672839
v 1.263889 1.263889 -0.000000
v 0.609568 2.609569 0.000000
v 0.672839 1.950618 0.672840
v -0.000000 2.609569 0.609568
v -0.672840 -1.950617 0.672840
v -1.263889 -1.263889 0.000000
v -0.672840 -1.950617 -0.672840
v -0.000000 -1.263889 -1.263889
v 0.672840 -1.950617 -0.672840
v 0.672840 -1.950617 0.672840
v 0.000000 -1.263889 1.263889
v 1.263889 0.000000 1.263889
v 1.263889 0.000000 -1.263889
v 1.950618 0.672839 -0.672840
v 1.950617 0.672839 0.672840
v -0.672839 -0.672839 -1.950617
v -1.263889 0.000000 -1.263889
v -0.672840 0.672839 -1.950618
v 0.672840 -0.672839 -1.950617
v 0.672840 0.672839 -1.950617
v -1.950617 0.672839 -0.672840
v -1.263889 1.263889 0.000000
v -1.263889 0.000000 1.263889
v -1.950617 -0.672839 0.672840
v -0.672840 0.672839 1.950617
v 0.000000 1.263889 1.263889
v 0.672839 -0.672839 1.950617
v 0.672840 0.672839 1.950618
v -0.672840 1.950618 0.672840
v -0.919753 -1.975309 0.000000
v -0.000000 -1.975309 -0.919753
v 0.919753 -1.975309 -0.000000
v 0.000000 -1.975309 0.919753
v 0.000000 -2.839506 0.000000
v 1.975309 0.000000 -0.919753
v 2.839506 0.000000 0.000000
v 1.975309 0.000000 0.919753
v 1.975309 -0.919753 0.000000
v 1.975309 0.919753 -0.000000
v -0.919753 0.000000 -1.975309
v 0.000000 0.000000 -2.839506
v 0.919753 0.000000 -1.975309
v -0.000000 -0.919753 -1.975309
v 0.000000 0.919753 -1.975309
v -2.839506 0.000000 0.000000
v -1.975309 0.000000 -0.919753
v -1.975309 0.000000 0.919753
v -1.975309 -0.919753 -0.000000
v -1.975309 0.919753 0.000000
v -0.919753 0.000000 1.975309
v 0.919753 0.000000 1.975309
v -0.000000 0.000000 2.839506
v 0.000000 -0.919753 1.975309
v -0.000000 0.919753 1.975309
v -0.919753 1.975309 0.000000
v 0.000000 1.975309 -0.919753
v 0.919753 1.975309 0.000000
v -0.000000 1.975309 0.919753
v -0.000000 2.839507 0.000000
vn -0.5596 -0.6113 0.5596
vn -0.6360 -0.4372 0.6359
vn -0.9038 -0.4280 0.0001
vn -0.6936 -0.7203 -0.0000
vn -0.5774 -0.5774 0.5773
vn -0.7071 -0.7071 -0.0000
vn -0.9038 -0.4280 -0.0001
vn -0.5774 -0.5774 -0.5773
vn -0.6360 -0.4372 -0.6359
vn -0.6937 -0.7203 -0.0000
vn -0.9038 -0.4279 -0.0001
vn -0.5596 -0.6114 -0.5596
vn -0.5596 -0.6113 -0.5596
vn -0.6359 -0.4372 -0.6360
vn -0.0001 -0.4280 -0.9038
vn -0.0000 -0.7203 -0.6936
vn -0.5773 -0.5774 -0.5774
vn -0.0000 -0.7071 -0.7071
vn 0.0001 -0.4280 -0.9038
vn 0.5773 -0.5774 -0.5774
vn 0.6359 -0.4372 -0.6360
vn -0.0000 -0.7203 -0.6937
vn 0.0001 -0.4279 -0.9038
vn 0.5596 -0.6114 -0.5596
vn 0.5596 -0.6113 -0.5596
vn 0.6360 -0.4372 -0.6359
vn 0.9038 -0.4280 -0.0001
vn 0.6936 -0.7203 -0.0000
vn 0.5774 -0.5774 -0.5773
vn 0.7071 -0.7071 -0.0000
vn 0.9038 -0.4280 0.0001
vn 0.5774 -0.5774 0.5773
vn 0.6360 -0.4372 0.6359
vn 0.6937 -0.7203 -0.0000
vn 0.9038 -0.4279 0.0001
vn 0.5596 -0.6114 0.5596
vn 0.5596 -0.6113 0.5596
vn 0.6359 -0.4372 0.6360
vn 0.0001 -0.4280 0.9038
vn -0.0000 -0.7203 0.6936
vn 0.5773 -0.5774 0.5774
vn -0.0000 -0.7071 0.7071
vn -0.0001 -0.4280 0.9038
vn -0.5773 -0.5774 0.5774
vn -0.6359 -0.4372 0.6360
vn -0.0000 -0.7203 0.6937
vn -0.0001 -0.4279 0.9038
vn -0.5596 -0.6114 0.5596
vn -0.5596 -0.6114 -0.5595
vn -0.0000 -1.0000 -0.0000
vn 0.5595 -0.6114 -0.5596
vn 0.5596 -0.6114 0.5595
vn -0.5595 -0.6114 0.5596
vn 0.5774 -0.5773 -0.5774
vn 0.7071 -0.0000 -0.7071
vn 0.4280 -0.0001 -0.9038
vn 0.4372 -0.6359 -0.6360
vn 0.5774 0.5773 -0.5774
vn 0.4372 0.6359 -0.6360
vn 0.4280 0.0001 -0.9038
vn 0.4279 0.0001 -0.9038
vn 0.6114 0.5596 -0.5596
vn 0.7203 -0.0000 -0.6937
vn 0.7203 -0.0000 -0.6936
vn 0.6113 -0.5596 -0.5596
vn 0.6114 -0.5596 -0.5595
vn 1.0000 -0.0000 -0.0000
vn 0.7203 -0.6937 -0.0000
vn 0.6114 0.5595 -0.5596
vn 0.7203 0.6937 -0.0000
vn 0.6114 0.5596 0.5595
vn 0.7203 -0.0000 0.6937
vn 0.6114 -0.5595 0.5596
vn 0.6114 -0.5596 0.5596
vn 0.4279 -0.0001 0.9038
vn 0.4372 -0.6359 0.6360
vn 0.7203 -0.0000 0.6936
vn 0.6113 0.5596 0.5596
vn 0.4372 0.6359 0.6360
vn 0.4280 0.0001 0.9038
vn 0.5774 0.5773 0.5774
vn 0.7071 -0.0000 0.7071
vn 0.4280 -0.0001 0.9038
vn 0.5774 -0.5773 0.5774
vn 0.4372 -0.6360 -0.6359
vn 0.4280 -0.9038 -0.0001
vn 0.6114 -0.5596 -0.5596
vn 0.4279 -0.9038 -0.0001
vn 0.4280 -0.9038 0.0001
vn 0.7203 -0.6936 -0.0000
vn 0.6113 -0.5596 0.5596
vn 0.4372 -0.6360 0.6359
vn 0.6113 0.5596 -0.5596
vn 0.4372 0.6360 -0.6359
vn 0.4280 0.9038 -0.0001
vn 0.7203 0.6936 -0.0000
vn 0.5774 0.5774 -0.5773
vn 0.7071 0.7071 -0.0000
vn 0.4280 0.9038 0.0001
vn 0.5774 0.5774 0.5773
vn 0.4372 0.6360 0.6359
vn 0.4279 0.9038 0.0001
vn 0.6114 0.5596 0.5596
vn -0.5774 -0.5773 -0.5774
vn -0.7071 -0.0000 -0.7071
vn -0.9038 -0.0001 -0.4280
vn -0.6360 -0.6359 -0.4372
vn -0.5774 0.5773 -0.5774
vn -0.6360 0.6359 -0.4372
vn -0.9038 0.0001 -0.4280
vn -0.9038 0.0001 -0.4279
vn -0.5596 0.5596 -0.6114
vn -0.6937 -0.0000 -0.7203
vn -0.6936 -0.0000 -0.7203
vn -0.5596 -0.5596 -0.6113
vn -0.5595 -0.5596 -0.6114
vn -0.0000 -0.0000 -1.0000
vn -0.0000 -0.6937 -0.7203
vn -0.5596 0.5595 -0.6114
vn -0.0000 0.6937 -0.7203
vn 0.5595 0.5596 -0.6114
vn 0.6937 -0.0000 -0.7203
vn 0.5596 -0.5595 -0.6114
vn 0.5596 -0.5596 -0.6114
vn 0.9038 -0.0001 -0.4279
vn 0.6360 -0.6359 -0.4372
vn 0.6936 -0.0000 -0.7203
vn 0.5596 0.5596 -0.6113
vn 0.6360 0.6359 -0.4372
vn 0.9038 0.0001 -0.4280
vn 0.9038 -0.0001 -0.4280
vn -0.5596 -0.5596 -0.6114
vn -0.0001 -0.9038 -0.4279
vn -0.6359 -0.6360 -0.4372
vn -0.0000 -0.6936 -0.7203
vn 0.5596 -0.5596 -0.6113
vn 0.6359 -0.6360 -0.4372
vn 0.0001 -0.9038 -0.4280
vn -0.0001 -0.9038 -0.4280
vn 0.5596 0.5596 -0.6114
vn 0.0001 0.9038 -0.4279
vn 0.6359 0.6360 -0.4372
vn -0.0000 0.6936 -0.7203
vn -0.5596 0.5596 -0.6113
vn -0.6359 0.6360 -0.4372
vn -0.0001 0.9038 -0.4280
vn -0.5773 0.5774 -0.5774
vn -0.0000 0.7071 -0.7071
vn 0.0001 0.9038 -0.4280
vn 0.5773 0.5774 -0.5774
vn -0.6114 -0.5596 0.5595
vn -0.7203 -0.0000 0.6937
vn -1.0000 -0.0000 -0.0000
vn -0.7203 -0.6937 -0.0000
vn -0.6114 0.5595 0.5596
vn -0.7203 0.6937 -0.0000
vn -0.6114 0.5596 -0.5595
vn -0.7203 -0.0000 -0.6937
vn -0.6114 -0.5595 -0.5596
vn -0.6114 -0.5596 -0.5596
vn -0.4279 -0.0001 -0.9038
vn -0.4372 -0.6359 -0.6360
vn -0.7203 -0.0000 -0.6936
vn -0.6113 0.5596 -0.5596
vn -0.4372 0.6359 -0.6360
vn -0.4280 0.0001 -0.9038
vn -0.4280 -0.0001 -0.9038
vn -0.5774 -0.5773 0.5774
vn -0.7071 -0.0000 0.7071
vn -0.4280 -0.0001 0.9038
vn -0.4372 -0.6359 0.6360
vn -0.5774 0.5773 0.5774
vn -0.4372 0.6359 0.6360
vn -0.4280 0.0001 0.9038
vn -0.4279 0.0001 0.9038
vn -0.6114 0.5596 0.5596
vn -0.7203 -0.0000 0.6936
vn -0.6113 -0.5596 0.5596
vn -0.6113 -0.5596 -0.5596
vn -0.4372 -0.6360 -0.6359
vn -0.4280 -0.9038 -0.0001
vn -0.7203 -0.6936 -0.0000
vn -0.4280 -0.9038 0.0001
vn -0.4372 -0.6360 0.6359
vn -0.4279 -0.9038 0.0001
vn -0.6114 -0.5596 0.5596
vn -0.5774 0.5774 -0.5773
vn -0.4372 0.6360 -0.6359
vn -0.4280 0.9038 -0.0001
vn -0.7071 0.7071 -0.0000
vn -0.6114 0.5596 -0.5596
vn -0.4279 0.9038 -0.0001
vn -0.4280 0.9038 0.0001
vn -0.7203 0.6936 -0.0000
vn -0.6113 0.5596 0.5596
vn -0.4372 0.6360 0.6359
vn -0.5774 0.5774 0.5773
vn -0.5596 -0.5596 0.6114
vn -0.6937 -0.0000 0.7203
vn -0.9038 -0.0001 0.4279
vn -0.6360 -0.6359 0.4372
vn -0.6936 -0.0000 0.7203
vn -0.5596 0.5596 0.6113
vn -0.6360 0.6359 0.4372
vn -0.9038 0.0001 0.4280
vn -0.9038 -0.0001 0.4280
vn 0.9038 -0.0001 0.4280
vn 0.6360 -0.6359 0.4372
vn 0.6360 0.6359 0.4372
vn 0.9038 0.0001 0.4280
vn 0.9038 0.0001 0.4279
vn 0.5596 0.5596 0.6114
vn 0.6937 -0.0000 0.7203
vn 0.6936 -0.0000 0.7203
vn 0.5596 -0.5596 0.6113
vn 0.5595 -0.5596 0.6114
vn -0.0000 -0.0000 1.0000
vn -0.0000 -0.6937 0.7203
vn 0.5596 0.5595 0.6114
vn -0.0000 0.6937 0.7203
vn -0.5595 0.5596 0.6114
vn -0.5596 -0.5595 0.6114
vn -0.0001 -0.9038 0.4280
vn -0.6359 -0.6360 0.4372
vn 0.6359 -0.6360 0.4372
vn 0.0001 -0.9038 0.4280
vn 0.0001 -0.9038 0.4279
vn 0.5596 -0.5596 0.6114
vn -0.0000 -0.6936 0.7203
vn -0.5596 -0.5596 0.6113
vn 0.5773 0.5774 0.5774
vn -0.0000 0.7071 0.7071
vn 0.0001 0.9038 0.4280
vn 0.6359 0.6360 0.4372
vn -0.5773 0.5774 0.5774
vn -0.6359 0.6360 0.4372
vn -0.0001 0.9038 0.4280
vn -0.0001 0.9038 0.4279
vn -0.5596 0.5596 0.6114
vn -0.0000 0.6936 0.7203
vn 0.5596 0.5596 0.6113
vn -0.6360 0.4372 0.6359
vn -0.9038 0.4280 0.0001
vn -0.5596 0.6114 0.5596
vn -0.6937 0.7203 -0.0000
vn -0.9038 0.4279 0.0001
vn -0.9038 0.4280 -0.0001
vn -0.6936 0.7203 -0.0000
vn -0.5596 0.6113 -0.5596
vn -0.6360 0.4372 -0.6359
vn -0.6359 0.4372 -0.6360
vn -0.0001 0.4280 -0.9038
vn -0.5596 0.6114 -0.5596
vn -0.0000 0.7203 -0.6937
vn -0.0001 0.4279 -0.9038
vn 0.0001 0.4280 -0.9038
vn -0.0000 0.7203 -0.6936
vn 0.5596 0.6113 -0.5596
vn 0.6359 0.4372 -0.6360
vn 0.6360 0.4372 -0.6359
vn 0.9038 0.4280 -0.0001
vn 0.5596 0.6114 -0.5596
vn 0.6937 0.7203 -0.0000
vn 0.9038 0.4279 -0.0001
vn 0.9038 0.4280 0.0001
vn 0.6936 0.7203 -0.0000
vn 0.5596 0.6113 0.5596
vn 0.6360 0.4372 0.6359
vn 0.6359 0.4372 0.6360
vn 0.0001 0.4280 0.9038
vn 0.5596 0.6114 0.5596
vn -0.0000 0.7203 0.6937
vn 0.0001 0.4279 0.9038
vn -0.0001 0.4280 0.9038
vn -0.0000 0.7203 0.6936
vn -0.5596 0.6113 0.5596
vn -0.6359 0.4372 0.6360
vn 0.5596 0.6114 -0.5595
vn -0.0000 1.0000 -0.0000
vn -0.5595 0.6114 -0.5596
vn -0.5596 0.6114 0.5595
vn 0.5595 0.6114 0.5596
vt 0.875000 0.087740
vt 0.875000 0.144465
vt 0.750000 0.138710
vt 0.750000 0.073044
vt 0.875000 0.304087
vt 0.750000 0.250000
vt 0.625000 0.304087
vt 0.625000 0.144465
vt 0.625000 0.087740
vt 0.500000 0.138710
vt 0.500000 0.073044
vt 0.500000 0.250000
vt 0.375000 0.304087
vt 0.375000 0.144465
vt 0.375000 0.087740
vt 0.250000 0.138710
vt 0.250000 0.073044
vt 0.250000 0.250000
vt 0.125000 0.304087
vt 0.125000 0.144465
vt 0.125000 0.087740
vt 0.000000 0.138710
vt 0.000000 0.073044
vt 0.000000 0.250000
vt 1.000000 0.138710
vt 1.000000 0.250000
vt 1.000000 0.073044
vt 0.625000 0.000000
vt 0.375000 0.000000
vt 0.125000 0.000000
vt 0.875000 0.000000
vt 0.375000 0.500000
vt 0.319355 0.500000
vt 0.302864 0.399665
vt 0.375000 0.695913
vt 0.302864 0.600335
vt 0.281416 0.561643
vt 0.286522 0.500000
vt 0.281416 0.438357
vt 0.250000 0.500000
vt 0.250000 0.426956
vt 0.250000 0.573044
vt 0.218584 0.561643
vt 0.213478 0.500000
vt 0.218584 0.438357
vt 0.180645 0.500000
vt 0.197136 0.399665
vt 0.197136 0.600335
vt 0.125000 0.695913
vt 0.125000 0.500000
vt 0.250000 0.361290
vt 0.250000 0.638710
vt 0.250000 0.750000
vt 0.625000 0.500000
vt 0.569355 0.500000
vt 0.552864 0.399665
vt 0.625000 0.695913
vt 0.552864 0.600335
vt 0.531417 0.561643
vt 0.536522 0.500000
vt 0.531416 0.438356
vt 0.500000 0.500000
vt 0.500000 0.426956
vt 0.500000 0.573044
vt 0.468584 0.561643
vt 0.463478 0.500000
vt 0.468584 0.438357
vt 0.430645 0.500000
vt 0.447136 0.399665
vt 0.447136 0.600335
vt 0.500000 0.361290
vt 0.500000 0.638710
vt 0.500000 0.750000
vt 0.781416 0.438357
vt 0.786522 0.500000
vt 0.750000 0.500000
vt 0.750000 0.426956
vt 0.781416 0.561643
vt 0.750000 0.573044
vt 0.718584 0.561643
vt 0.713478 0.500000
vt 0.718584 0.438357
vt 0.680645 0.500000
vt 0.697136 0.399665
vt 0.697136 0.600335
vt 0.875000 0.500000
vt 0.819355 0.500000
vt 0.802864 0.399665
vt 0.875000 0.695913
vt 0.802864 0.600335
vt 0.750000 0.361290
vt 0.750000 0.638710
vt 0.750000 0.750000
vt 0.968584 0.438357
vt 0.963478 0.500000
vt 0.930645 0.500000
vt 0.947136 0.399665
vt 0.968584 0.561643
vt 0.947136 0.600335
vt 0.069355 0.500000
vt 0.052864 0.399665
vt 0.052864 0.600335
vt 0.031416 0.561643
vt 0.036522 0.500000
vt 0.031416 0.438357
vt 0.000000 0.500000
vt 0.000000 0.426956
vt 0.000000 0.573044
vt 1.000000 0.500000
vt 1.000000 0.573044
vt 1.000000 0.426956
vt 1.000000 0.361290
vt 0.000000 0.361290
vt 0.000000 0.750000
vt 0.000000 0.638710
vt 1.000000 0.750000
vt 1.000000 0.638710
vt 0.875000 0.855534
vt 0.750000 0.861290
vt 0.875000 0.912260
vt 0.750000 0.926956
vt 0.625000 0.912260
vt 0.625000 0.855534
vt 0.500000 0.861290
vt 0.500000 0.926956
vt 0.375000 0.912260
vt 0.375000 0.855535
vt 0.250000 0.861290
vt 0.250000 0.926956
vt 0.125000 0.912260
vt 0.125000 0.855534
vt 0.000000 0.861290
vt 0.000000 0.926956
vt 1.000000 0.861290
vt 1.000000 0.926956
vt 0.375000 1.000000
vt 0.625000 1.000000
vt 0.875000 1.000000
vt 0.125000 1.000000
s 0
f 1/1/1 68/2/2 93/3/3 33/4/4
f 68/2/2 23/5/5 69/6/6 93/3/3
f 93/3/7 69/6/6 20/7/8 70/8/9
f 33/4/10 93/3/11 70/8/9 2/9/12
f 2/9/13 70/8/14 94/10/15 34/11/16
f 70/8/14 20/7/17 71/12/18 94/10/15
f 94/10/19 71/12/18 6/13/20 72/14/21
f 34/11/22 94/10/23 72/14/21 4/15/24
f 4/15/25 72/14/26 95/16/27 35/17/28
f 72/14/26 6/13/29 37/18/30 95/16/27
f 95/16/31 37/18/30 5/19/32 73/20/33
f 35/17/34 95/16/35 73/20/33 3/21/36
f 3/21/37 73/20/38 96/22/39 36/23/40
f 73/20/38 5/19/41 74/24/42 96/22/39
f 96/25/43 74/26/42 23/5/44 68/2/45
f 36/27/46 96/25/47 68/2/45 1/1/48
f 2/9/49 34/11/22 97/28/50 33/4/10
f 34/11/22 4/15/51 35/17/34 97/29/50
f 97/30/50 35/17/34 3/21/52 36/23/46
f 33/4/10 97/31/50 36/27/46 1/1/53
f 6/13/54 76/32/55 98/33/56 38/34/57
f 76/32/55 31/35/58 77/36/59 98/33/60
f 98/33/61 77/36/59 10/37/62 39/38/63
f 38/34/57 98/33/56 39/38/64 9/39/65
f 9/39/66 39/38/63 99/40/67 40/41/68
f 39/38/63 10/37/69 41/42/70 99/40/67
f 99/40/67 41/42/70 8/43/71 42/44/72
f 40/41/68 99/40/67 42/44/72 7/45/73
f 7/45/74 42/44/72 100/46/75 43/47/76
f 42/44/77 8/43/78 78/48/79 100/46/80
f 100/46/80 78/48/79 29/49/81 75/50/82
f 43/47/76 100/46/83 75/50/82 5/19/84
f 6/13/29 38/34/85 101/51/86 37/18/30
f 38/34/85 9/39/87 40/41/68 101/51/88
f 101/51/89 40/41/90 7/45/91 43/47/92
f 37/18/30 101/51/89 43/47/92 5/19/32
f 10/37/93 77/36/94 102/52/95 41/42/96
f 77/36/94 31/35/97 64/53/98 102/52/95
f 102/52/99 64/53/98 29/49/100 78/48/101
f 41/42/70 102/52/102 78/48/101 8/43/103
f 20/7/104 80/54/105 103/55/106 79/56/107
f 80/54/105 27/57/108 81/58/109 103/55/110
f 103/55/111 81/58/109 12/59/112 44/60/113
f 79/56/107 103/55/106 44/60/114 11/61/115
f 11/61/116 44/60/113 104/62/117 45/63/118
f 44/60/113 12/59/119 46/64/120 104/62/117
f 104/62/117 46/64/120 14/65/121 47/66/122
f 45/63/118 104/62/117 47/66/122 13/67/123
f 13/67/124 47/66/122 105/68/125 82/69/126
f 47/66/127 14/65/128 83/70/129 105/68/130
f 105/68/130 83/70/129 31/35/58 76/32/55
f 82/69/126 105/68/131 76/32/55 6/13/54
f 11/61/132 45/63/118 106/71/133 79/56/134
f 45/63/135 13/67/136 82/69/137 106/71/138
f 106/71/138 82/69/137 6/13/20 71/12/18
f 79/56/134 106/71/139 71/12/18 20/7/17
f 14/65/140 46/64/120 107/72/141 83/70/142
f 46/64/143 12/59/144 81/58/145 107/72/146
f 107/72/146 81/58/145 27/57/147 61/73/148
f 83/70/142 107/72/149 61/73/148 31/35/150
f 15/74/151 49/75/152 108/76/153 48/77/154
f 49/75/152 16/78/155 50/79/156 108/76/153
f 108/76/153 50/79/156 18/80/157 51/81/158
f 48/77/154 108/76/153 51/81/158 17/82/159
f 17/82/160 51/81/158 109/83/161 52/84/162
f 51/81/163 18/80/164 84/85/165 109/83/166
f 109/83/166 84/85/165 27/57/108 80/54/105
f 52/84/162 109/83/167 80/54/105 20/7/104
f 23/5/168 86/86/169 110/87/170 87/88/171
f 86/86/169 19/89/172 53/90/173 110/87/174
f 110/87/175 53/90/173 16/78/176 49/75/152
f 87/88/171 110/87/170 49/75/177 15/74/178
f 17/82/179 52/84/180 111/91/181 48/77/182
f 52/84/180 20/7/8 69/6/6 111/91/181
f 111/91/183 69/6/6 23/5/5 87/88/184
f 48/77/154 111/91/185 87/88/184 15/74/186
f 27/57/187 84/85/188 112/92/189 85/93/190
f 84/85/188 18/80/191 50/79/156 112/92/192
f 112/92/193 50/79/194 16/78/195 53/90/196
f 85/93/190 112/92/193 53/90/196 19/89/197
f 21/94/198 55/95/199 113/96/200 54/97/201
f 55/95/202 22/98/203 88/99/204 113/96/205
f 113/96/205 88/99/204 19/89/172 86/86/169
f 54/97/201 113/96/206 86/86/169 23/5/168
f 5/19/84 75/50/82 114/100/207 90/101/208
f 75/50/82 29/49/81 91/102/209 114/100/210
f 114/100/211 91/102/209 25/103/212 56/104/213
f 90/101/208 114/100/207 56/104/214 24/105/215
f 24/105/216 56/104/213 115/106/217 57/107/218
f 56/104/213 25/103/219 58/108/220 115/106/217
f 115/109/217 58/110/220 22/98/221 55/95/199
f 57/111/218 115/109/217 55/95/199 21/94/222
f 23/5/44 74/26/42 116/112/223 54/97/224
f 74/24/42 5/19/41 90/101/225 116/113/226
f 116/113/227 90/101/225 24/105/228 57/107/218
f 54/97/224 116/112/223 57/111/229 21/94/230
f 29/49/231 89/114/232 117/115/233 91/102/234
f 89/116/232 19/89/235 88/99/236 117/117/237
f 117/117/238 88/99/236 22/98/239 58/110/220
f 91/102/234 117/115/233 58/108/240 25/103/241
f 19/89/197 92/118/242 118/119/243 85/93/190
f 92/118/242 26/120/244 59/121/245 118/119/246
f 118/119/247 59/121/248 28/122/249 60/123/250
f 85/93/190 118/119/247 60/123/250 27/57/187
f 27/57/147 60/123/251 119/124/252 61/73/148
f 60/123/251 28/122/253 62/125/254 119/124/255
f 119/124/256 62/125/257 32/126/258 63/127/259
f 61/73/148 119/124/256 63/127/259 31/35/150
f 31/35/97 63/127/260 120/128/261 64/53/98
f 63/127/260 32/126/262 65/129/263 120/128/264
f 120/128/265 65/129/266 30/130/267 66/131/268
f 64/53/98 120/128/265 66/131/268 29/49/100
f 29/49/231 66/131/269 121/132/270 89/114/232
f 66/131/269 30/130/271 67/133/272 121/132/273
f 121/134/274 67/135/275 26/120/276 92/118/277
f 89/116/232 121/134/274 92/118/277 19/89/235
f 32/126/278 62/125/254 122/136/279 65/129/263
f 62/125/254 28/122/280 59/121/245 122/137/279
f 122/138/279 59/121/245 26/120/281 67/135/272
f 65/129/263 122/139/279 67/133/272 30/130/282
