# Blender 4.5.3 LTS
# www.blender.org
o Plane
v -0.195091 0.000000 0.980785
v -0.093750 0.000000 0.890625
v 0.000000 0.000000 1.000000
v 0.093750 0.000000 0.921875
v 0.281250 0.000000 0.890625
v -0.437500 0.000000 0.875000
v -0.281250 0.000000 0.875000
v 0.156250 0.000000 0.843750
v -0.218750 0.000000 0.781250
v 0.421875 0.000000 0.804688
v 0.555570 0.000000 0.831469
v -0.484375 0.000000 0.718750
v -0.390625 0.000000 0.781250
v -0.312500 0.000000 0.718750
v -0.109375 0.000000 0.703125
v 0.000000 0.000000 0.781250
v 0.156250 0.000000 0.710938
v 0.281250 0.000000 0.718750
v -0.593750 0.000000 0.656250
v 0.058594 0.000000 0.593750
v 0.421875 0.000000 0.656250
v 0.601562 0.000000 0.687500
v -0.468750 0.000000 0.593750
v -0.390625 0.000000 0.656250
v -0.234375 0.000000 0.644531
v 0.250000 0.000000 0.601563
v -0.609375 0.000000 0.546875
v -0.339844 0.000000 0.515625
v 0.328125 0.000000 0.500000
v 0.492188 0.000000 0.546875
v 0.831470 0.000000 0.555570
v -0.515625 0.000000 0.468750
v -0.140625 0.000000 0.507813
v 0.031250 0.000000 0.468750
v 0.156250 0.000000 0.468750
v 0.593750 0.000000 0.468750
v 0.699219 0.000000 0.546875
v -0.923880 0.000000 0.382683
v -0.796875 0.000000 0.359375
v -0.656250 0.000000 0.421875
v -0.218750 0.000000 0.406250
v 0.406250 0.000000 0.406250
v 0.515625 0.000000 0.406250
v 0.781250 0.000000 0.406250
v 0.923879 0.000000 0.382684
v -0.593750 0.000000 0.343750
v -0.468750 0.000000 0.335938
v -0.343750 0.000000 0.343750
v 0.078125 0.000000 0.343750
v 0.265625 0.000000 0.347656
v 0.656250 0.000000 0.351563
v -0.921875 0.000000 0.281250
v -0.718750 0.000000 0.265625
v -0.117188 0.000000 0.328125
v 0.406250 0.000000 0.265625
v 0.531250 0.000000 0.281250
v 0.781250 0.000000 0.296875
v -0.843750 0.000000 0.218750
v -0.593750 0.000000 0.218750
v -0.406250 0.000000 0.218750
v -0.265625 0.000000 0.281250
v -0.148438 0.000000 0.171875
v 0.039063 0.000000 0.218750
v 0.265625 0.000000 0.218750
v 0.656250 0.000000 0.218750
v 0.882813 0.000000 0.250000
v -0.484375 0.000000 0.148438
v 0.125000 0.000000 0.156250
v 0.980785 0.000000 0.195090
v -0.882813 0.000000 0.109375
v -0.644531 0.000000 0.070313
v -0.289062 0.000000 0.156250
v -0.031250 0.000000 0.125000
v 0.218750 0.000000 0.093750
v 0.351563 0.000000 0.046875
v 0.468750 0.000000 0.093750
v 0.562500 0.000000 0.156250
v 0.718750 0.000000 0.140625
v 0.890625 0.000000 0.093750
v -0.765625 0.000000 0.085938
v -0.281250 0.000000 0.015625
v -0.140625 0.000000 0.027344
v 0.085938 0.000000 0.042969
v 0.703125 0.000000 0.031250
v -1.000000 0.000000 -0.000000
v -0.429688 0.000000 0.015625
v 0.531250 0.000000 0.015625
v 0.890625 0.000000 -0.085938
v -0.890625 0.000000 -0.085938
v -0.726562 0.000000 -0.125000
v -0.578125 0.000000 -0.046875
v -0.468750 0.000000 -0.140625
v -0.328125 0.000000 -0.109375
v -0.031250 0.000000 -0.093750
v 0.078125 0.000000 -0.132812
v 0.343750 0.000000 -0.093750
v 0.468750 0.000000 -0.093750
v 0.593750 0.000000 -0.093750
v 0.718750 0.000000 -0.093750
v -0.156250 0.000000 -0.125000
v 0.203125 0.000000 -0.042969
v -0.980785 0.000000 -0.195090
v -0.593750 0.000000 -0.218750
v -0.343750 0.000000 -0.218750
v -0.234375 0.000000 -0.265625
v -0.062500 0.000000 -0.218750
v 0.285156 0.000000 -0.234375
v 0.406250 0.000000 -0.218750
v 0.546875 0.000000 -0.195312
v 0.781250 0.000000 -0.218750
v -0.890625 0.000000 -0.273438
v -0.718750 0.000000 -0.250000
v -0.468750 0.000000 -0.281250
v 0.031250 0.000000 -0.281250
v 0.164063 0.000000 -0.250000
v 0.671875 0.000000 -0.257812
v -0.656250 0.000000 -0.343750
v -0.359375 0.000000 -0.394531
v -0.109375 0.000000 -0.343750
v 0.507812 0.000000 -0.320313
v 0.750000 0.000000 -0.343750
v 0.875000 0.000000 -0.281250
v -0.923880 0.000000 -0.382683
v -0.781250 0.000000 -0.406250
v -0.218750 0.000000 -0.437500
v 0.031250 0.000000 -0.406250
v 0.156250 0.000000 -0.406250
v 0.281250 0.000000 -0.421875
v 0.390625 0.000000 -0.421875
v 0.656250 0.000000 -0.406250
v 0.923880 0.000000 -0.382683
v -0.656250 0.000000 -0.468750
v -0.546875 0.000000 -0.398438
v -0.093750 0.000000 -0.468750
v 0.515625 0.000000 -0.468750
v 0.750000 0.000000 -0.468750
v -0.515625 0.000000 -0.523438
v -0.328125 0.000000 -0.531250
v 0.046875 0.000000 -0.531250
v 0.210938 0.000000 -0.562500
v 0.656250 0.000000 -0.515625
v 0.831469 0.000000 -0.555570
v -0.140625 0.000000 -0.562500
v 0.343750 0.000000 -0.609375
v 0.476562 0.000000 -0.609375
v 0.718750 0.000000 -0.593750
v -0.703125 0.000000 -0.609375
v -0.468750 0.000000 -0.656250
v -0.343750 0.000000 -0.664062
v -0.203125 0.000000 -0.656250
v -0.039063 0.000000 -0.703125
v 0.105469 0.000000 -0.710938
v 0.593750 0.000000 -0.703125
v -0.593750 0.000000 -0.710938
v -0.555570 0.000000 -0.831470
v -0.406250 0.000000 -0.781250
v -0.218750 0.000000 -0.765625
v 0.234375 0.000000 -0.734375
v 0.367188 0.000000 -0.765625
v -0.296875 0.000000 -0.859375
v -0.156250 0.000000 -0.843750
v -0.031250 0.000000 -0.843750
v 0.468750 0.000000 -0.812500
v -0.382683 0.000000 -0.923880
v 0.140625 0.000000 -0.882813
v 0.281250 0.000000 -0.906250
v -0.195091 0.000000 -0.980785
v -0.093750 0.000000 -0.937500
v -0.382683 0.000000 0.923880
v -0.555570 0.000000 0.831470
v 0.382683 0.000000 0.923880
v -0.707107 0.000000 0.707107
v 0.707107 0.000000 0.707107
v -0.831469 0.000000 0.555570
v 0.750000 0.000000 0.654841
v 0.774490 0.000000 0.625000
v 0.875000 0.000000 0.474131
v -0.831470 0.000000 -0.555570
v -0.774490 0.000000 -0.625000
v 0.774490 0.000000 -0.625000
v -0.707107 0.000000 -0.707107
v 0.707107 0.000000 -0.707107
v -0.625000 0.000000 -0.774490
v 0.555570 0.000000 -0.831470
v 0.500000 0.000000 -0.861172
v 0.382683 0.000000 -0.923880
v -0.250000 0.000000 0.964129
v 0.195090 0.000000 0.980785
v 1.000000 0.000000 -0.000000
v 0.980785 0.000000 -0.195090
v 0.312500 0.000000 -0.945169
v 0.195090 0.000000 -0.980785
v -0.000000 0.000000 -1.000000
v -0.250000 0.000000 -0.964129
v -0.980785 0.000000 0.195090
vn -0.0000 1.0000 -0.0000
vt 0.308658 0.038060
vt 0.281250 0.062500
vt 0.222215 0.084265
vt 0.453125 0.054687
vt 0.359375 0.062500
vt 0.402455 0.009607
vt 0.500000 0.000000
vt 0.546875 0.039062
vt 0.500000 0.109375
vt 0.640625 0.054688
vt 0.578125 0.078125
vt 0.597545 0.009607
vt 0.777785 0.084265
vt 0.710938 0.097656
vt 0.691342 0.038060
vt 0.304688 0.109375
vt 0.390625 0.109375
vt 0.343750 0.140625
vt 0.445313 0.148438
vt 0.640625 0.140625
vt 0.578125 0.144531
vt 0.853553 0.146447
vt 0.800781 0.156250
vt 0.257812 0.140625
vt 0.203125 0.171875
vt 0.304688 0.171875
vt 0.382813 0.177734
vt 0.529297 0.203125
vt 0.710938 0.171875
vt 0.625000 0.199219
vt 0.875000 0.172579
vt 0.849609 0.226563
vt 0.887245 0.187500
vt 0.195313 0.226563
vt 0.146447 0.146447
vt 0.265625 0.203125
vt 0.429688 0.246094
vt 0.664062 0.250000
vt 0.746094 0.226563
vt 0.915735 0.222215
vt 0.242188 0.265625
vt 0.330078 0.242188
vt 0.578125 0.265625
vt 0.515625 0.265625
vt 0.101562 0.320313
vt 0.038060 0.308658
vt 0.084265 0.222215
vt 0.171875 0.289062
vt 0.390625 0.296875
vt 0.703125 0.296875
vt 0.796875 0.265625
vt 0.757812 0.296875
vt 0.828125 0.324219
vt 0.203125 0.328125
vt 0.265625 0.332031
vt 0.328125 0.328125
vt 0.539063 0.328125
vt 0.441406 0.335938
vt 0.632812 0.326172
vt 0.039063 0.359375
vt 0.140625 0.367188
vt 0.367188 0.359375
vt 0.765625 0.359375
vt 0.703125 0.367188
vt 0.961940 0.308658
vt 0.890625 0.351562
vt 0.890625 0.296875
vt 0.078125 0.390625
vt 0.203125 0.390625
vt 0.296875 0.390625
vt 0.425781 0.414063
vt 0.519531 0.390625
vt 0.632812 0.390625
vt 0.828125 0.390625
vt 0.009607 0.402455
vt 0.257812 0.425781
vt 0.355469 0.421875
vt 0.562500 0.421875
vt 0.781250 0.421875
vt 0.941406 0.375000
vt 0.859375 0.429688
vt 0.058594 0.445313
vt 0.177734 0.464844
vt 0.542969 0.478516
vt 0.359375 0.492188
vt 0.285156 0.492188
vt 0.484375 0.437500
vt 0.429688 0.486328
vt 0.609375 0.453125
vt 0.945313 0.453125
vt 0.851562 0.484375
vt 0.054687 0.542969
vt 0.000000 0.500000
vt 0.210938 0.523438
vt 0.675781 0.476563
vt 0.601562 0.521484
vt 1.000000 0.500000
vt 0.945313 0.542969
vt 0.136719 0.562500
vt 0.117188 0.457031
vt 0.335938 0.554688
vt 0.734375 0.546875
vt 0.671875 0.546875
vt 0.765625 0.492188
vt 0.796875 0.546875
vt 0.859375 0.546875
vt 0.421875 0.562500
vt 0.484375 0.546875
vt 0.054688 0.636719
vt 0.009607 0.597545
vt 0.203125 0.609375
vt 0.140625 0.625000
vt 0.265625 0.570312
vt 0.382813 0.632812
vt 0.539062 0.566406
vt 0.468750 0.609375
vt 0.703125 0.609375
vt 0.642578 0.617188
vt 0.773438 0.597656
vt 0.890625 0.609375
vt 0.835938 0.628906
vt 0.937500 0.640625
vt 0.328125 0.609375
vt 0.265625 0.640625
vt 0.515625 0.640625
vt 0.226563 0.699219
vt 0.320313 0.697266
vt 0.445313 0.671875
vt 0.753906 0.660156
vt 0.875000 0.671875
vt 0.109375 0.703125
vt 0.171875 0.671875
vt 0.390625 0.718750
vt 0.578125 0.703125
vt 0.515625 0.703125
vt 0.582031 0.625000
vt 0.695312 0.710938
vt 0.828125 0.703125
vt 0.171875 0.734375
vt 0.453125 0.734375
vt 0.757812 0.734375
vt 0.961940 0.691342
vt 0.875000 0.734375
vt 0.084265 0.777785
vt 0.335938 0.765625
vt 0.523438 0.765625
vt 0.605469 0.781250
vt 0.640625 0.710938
vt 0.828125 0.757812
vt 0.242188 0.761719
vt 0.148438 0.804688
vt 0.429688 0.781250
vt 0.671875 0.804688
vt 0.738281 0.804688
vt 0.859375 0.796875
vt 0.915735 0.777785
vt 0.112755 0.812500
vt 0.328125 0.832031
vt 0.265625 0.828125
vt 0.480469 0.851563
vt 0.398438 0.828125
vt 0.552734 0.855469
vt 0.796875 0.851563
vt 0.146447 0.853553
vt 0.203125 0.855469
vt 0.617188 0.867188
vt 0.887245 0.812500
vt 0.853553 0.853553
vt 0.390625 0.882813
vt 0.734375 0.906250
vt 0.187500 0.887245
vt 0.351563 0.929688
vt 0.570312 0.941406
vt 0.484375 0.921875
vt 0.777785 0.915735
vt 0.308658 0.961940
vt 0.296875 0.890625
vt 0.421875 0.921875
vt 0.640625 0.953125
vt 0.683594 0.882813
vt 0.691342 0.961940
vt 0.750000 0.930586
vt 0.453125 0.968750
vt 0.402455 0.990393
vt 0.500000 1.000000
vt 0.597545 0.990393
vt 0.375000 0.017936
vt 0.990393 0.402455
vt 0.990393 0.597545
vt 0.656250 0.972585
vt 0.038060 0.691342
vt 0.937500 0.262935
vt 0.734375 0.453125
vt 0.222215 0.915735
vt 0.375000 0.982064
s 1
f 169/1/1 6/2/1 170/3/1
f 2/4/1 7/5/1 1/6/1
f 3/7/1 4/8/1 16/9/1
f 5/10/1 8/11/1 188/12/1
f 11/13/1 10/14/1 171/15/1
f 169/1/1 13/16/1 6/2/1
f 7/5/1 13/16/1 169/1/1
f 2/4/1 9/17/1 7/5/1
f 8/11/1 16/9/1 4/8/1
f 9/17/1 14/18/1 7/5/1
f 2/4/1 16/9/1 15/19/1
f 8/11/1 18/20/1 17/21/1
f 5/10/1 10/14/1 18/20/1
f 173/22/1 22/23/1 11/13/1
f 170/3/1 12/24/1 19/25/1
f 13/16/1 24/26/1 12/24/1
f 14/18/1 24/26/1 13/16/1
f 15/19/1 25/27/1 9/17/1
f 16/9/1 20/28/1 15/19/1
f 16/9/1 17/21/1 20/28/1
f 11/13/1 22/23/1 21/29/1
f 21/29/1 26/30/1 18/20/1
f 175/31/1 37/32/1 173/22/1
f 176/33/1 37/32/1 175/31/1
f 19/25/1 27/34/1 172/35/1
f 23/36/1 27/34/1 19/25/1
f 15/19/1 20/28/1 33/37/1
f 26/30/1 20/28/1 17/21/1
f 21/29/1 29/38/1 26/30/1
f 21/29/1 30/39/1 29/38/1
f 22/23/1 30/39/1 21/29/1
f 22/23/1 37/32/1 30/39/1
f 31/40/1 37/32/1 176/33/1
f 23/36/1 32/41/1 27/34/1
f 28/42/1 32/41/1 23/36/1
f 25/27/1 33/37/1 28/42/1
f 20/28/1 35/43/1 34/44/1
f 39/45/1 38/46/1 174/47/1
f 174/47/1 40/48/1 39/45/1
f 32/41/1 40/48/1 27/34/1
f 33/37/1 41/49/1 28/42/1
f 30/39/1 42/50/1 29/38/1
f 36/51/1 43/52/1 30/39/1
f 31/40/1 51/53/1 37/32/1
f 32/41/1 46/54/1 40/48/1
f 32/41/1 47/55/1 46/54/1
f 28/42/1 47/55/1 32/41/1
f 28/42/1 41/49/1 48/56/1
f 33/37/1 49/57/1 54/58/1
f 35/43/1 49/57/1 34/44/1
f 35/43/1 50/59/1 49/57/1
f 42/50/1 50/59/1 29/38/1
f 36/51/1 51/53/1 43/52/1
f 38/46/1 39/45/1 52/60/1
f 40/48/1 53/61/1 39/45/1
f 46/54/1 53/61/1 40/48/1
f 41/49/1 54/58/1 61/62/1
f 42/50/1 56/63/1 55/64/1
f 51/53/1 56/63/1 43/52/1
f 45/65/1 57/66/1 44/67/1
f 39/45/1 58/68/1 52/60/1
f 53/61/1 58/68/1 39/45/1
f 47/55/1 59/69/1 46/54/1
f 48/56/1 60/70/1 47/55/1
f 48/56/1 61/62/1 60/70/1
f 49/57/1 62/71/1 54/58/1
f 50/59/1 63/72/1 49/57/1
f 55/64/1 64/73/1 50/59/1
f 51/53/1 57/66/1 65/74/1
f 58/68/1 195/75/1 52/60/1
f 60/70/1 67/76/1 47/55/1
f 62/71/1 72/77/1 61/62/1
f 64/73/1 68/78/1 63/72/1
f 65/74/1 77/79/1 56/63/1
f 57/66/1 66/80/1 78/81/1
f 58/68/1 70/82/1 195/75/1
f 53/61/1 70/82/1 58/68/1
f 59/69/1 71/83/1 53/61/1
f 67/76/1 71/83/1 59/69/1
f 60/70/1 72/77/1 67/76/1
f 63/72/1 68/78/1 83/84/1
f 65/74/1 78/81/1 77/79/1
f 72/77/1 81/85/1 86/86/1
f 62/71/1 81/85/1 72/77/1
f 73/87/1 82/88/1 62/71/1
f 73/87/1 83/84/1 82/88/1
f 74/89/1 83/84/1 68/78/1
f 78/81/1 79/90/1 84/91/1
f 70/82/1 89/92/1 85/93/1
f 71/83/1 86/86/1 91/94/1
f 74/89/1 75/95/1 101/96/1
f 79/90/1 189/97/1 88/98/1
f 71/83/1 90/99/1 80/100/1
f 86/86/1 81/85/1 93/101/1
f 75/95/1 97/102/1 96/103/1
f 87/104/1 97/102/1 75/95/1
f 87/104/1 98/105/1 97/102/1
f 84/91/1 88/98/1 99/106/1
f 100/107/1 93/101/1 81/85/1
f 82/88/1 94/108/1 100/107/1
f 89/92/1 111/109/1 102/110/1
f 89/92/1 90/99/1 111/109/1
f 90/99/1 103/111/1 112/112/1
f 91/94/1 92/113/1 103/111/1
f 100/107/1 105/114/1 93/101/1
f 94/108/1 95/115/1 106/116/1
f 96/103/1 108/117/1 107/118/1
f 98/105/1 109/119/1 97/102/1
f 99/106/1 109/119/1 98/105/1
f 99/106/1 110/120/1 116/121/1
f 88/98/1 122/122/1 110/120/1
f 104/123/1 113/124/1 92/113/1
f 95/115/1 114/125/1 106/116/1
f 113/124/1 133/126/1 103/111/1
f 104/123/1 105/114/1 118/127/1
f 106/116/1 119/128/1 105/114/1
f 106/116/1 114/125/1 119/128/1
f 108/117/1 120/129/1 107/118/1
f 109/119/1 116/121/1 120/129/1
f 110/120/1 122/122/1 121/130/1
f 112/112/1 124/131/1 111/109/1
f 112/112/1 117/132/1 124/131/1
f 113/124/1 118/127/1 133/126/1
f 105/114/1 119/128/1 125/133/1
f 114/125/1 127/134/1 126/135/1
f 107/118/1 127/134/1 115/136/1
f 120/129/1 129/137/1 107/118/1
f 116/121/1 121/130/1 130/138/1
f 117/132/1 133/126/1 132/139/1
f 119/128/1 134/140/1 125/133/1
f 126/135/1 134/140/1 119/128/1
f 130/138/1 135/141/1 120/129/1
f 131/142/1 136/143/1 121/130/1
f 132/139/1 178/144/1 124/131/1
f 125/133/1 138/145/1 118/127/1
f 127/134/1 139/146/1 126/135/1
f 127/134/1 140/147/1 139/146/1
f 128/148/1 140/147/1 127/134/1
f 130/138/1 136/143/1 141/149/1
f 132/139/1 137/150/1 147/151/1
f 134/140/1 143/152/1 125/133/1
f 139/146/1 143/152/1 134/140/1
f 129/137/1 144/153/1 128/148/1
f 129/137/1 145/154/1 144/153/1
f 141/149/1 145/154/1 135/141/1
f 136/143/1 146/155/1 141/149/1
f 142/156/1 146/155/1 136/143/1
f 178/144/1 147/151/1 179/157/1
f 137/150/1 149/158/1 148/159/1
f 143/152/1 151/160/1 150/161/1
f 139/146/1 151/160/1 143/152/1
f 139/146/1 152/162/1 151/160/1
f 140/147/1 152/162/1 139/146/1
f 141/149/1 153/163/1 145/154/1
f 146/155/1 153/163/1 141/149/1
f 179/157/1 147/151/1 181/164/1
f 147/151/1 154/165/1 181/164/1
f 140/147/1 158/166/1 152/162/1
f 144/153/1 158/166/1 140/147/1
f 146/155/1 180/167/1 182/168/1
f 150/161/1 151/160/1 157/169/1
f 153/163/1 163/170/1 145/154/1
f 181/164/1 154/165/1 183/171/1
f 157/169/1 160/172/1 149/158/1
f 151/160/1 165/173/1 162/174/1
f 158/166/1 165/173/1 152/162/1
f 184/175/1 153/163/1 182/168/1
f 160/172/1 164/176/1 156/177/1
f 161/178/1 160/172/1 157/169/1
f 158/166/1 166/179/1 165/173/1
f 159/180/1 166/179/1 158/166/1
f 159/180/1 186/181/1 166/179/1
f 163/170/1 186/181/1 159/180/1
f 163/170/1 185/182/1 186/181/1
f 161/178/1 168/183/1 167/184/1
f 162/174/1 168/183/1 161/178/1
f 162/174/1 193/185/1 168/183/1
f 162/174/1 165/173/1 193/185/1
f 166/179/1 192/186/1 165/173/1
f 7/5/1 169/1/1 187/187/1
f 2/4/1 1/6/1 3/7/1
f 188/12/1 4/8/1 3/7/1
f 171/15/1 5/10/1 188/12/1
f 66/80/1 45/65/1 69/188/1
f 79/90/1 69/188/1 189/97/1
f 190/189/1 88/98/1 189/97/1
f 131/142/1 122/122/1 190/189/1
f 166/179/1 186/181/1 191/190/1
f 166/179/1 191/190/1 192/186/1
f 165/173/1 192/186/1 193/185/1
f 167/184/1 168/183/1 193/185/1
f 111/109/1 123/191/1 102/110/1
f 89/92/1 102/110/1 85/93/1
f 195/75/1 70/82/1 85/93/1
f 38/46/1 52/60/1 195/75/1
f 3/7/1 16/9/1 2/4/1
f 4/8/1 188/12/1 8/11/1
f 170/3/1 6/2/1 13/16/1
f 5/10/1 171/15/1 10/14/1
f 170/3/1 13/16/1 12/24/1
f 7/5/1 14/18/1 13/16/1
f 2/4/1 15/19/1 9/17/1
f 16/9/1 8/11/1 17/21/1
f 8/11/1 5/10/1 18/20/1
f 172/35/1 170/3/1 19/25/1
f 14/18/1 9/17/1 25/27/1
f 10/14/1 21/29/1 18/20/1
f 10/14/1 11/13/1 21/29/1
f 12/24/1 23/36/1 19/25/1
f 12/24/1 24/26/1 23/36/1
f 14/18/1 25/27/1 24/26/1
f 17/21/1 18/20/1 26/30/1
f 173/22/1 37/32/1 22/23/1
f 172/35/1 27/34/1 174/47/1
f 24/26/1 28/42/1 23/36/1
f 24/26/1 25/27/1 28/42/1
f 25/27/1 15/19/1 33/37/1
f 20/28/1 34/44/1 33/37/1
f 20/28/1 26/30/1 35/43/1
f 26/30/1 29/38/1 35/43/1
f 30/39/1 37/32/1 36/51/1
f 174/47/1 27/34/1 40/48/1
f 29/38/1 50/59/1 35/43/1
f 30/39/1 43/52/1 42/50/1
f 37/32/1 51/53/1 36/51/1
f 31/40/1 44/67/1 51/53/1
f 45/65/1 44/67/1 177/192/1
f 44/67/1 31/40/1 177/192/1
f 28/42/1 48/56/1 47/55/1
f 33/37/1 54/58/1 41/49/1
f 33/37/1 34/44/1 49/57/1
f 48/56/1 41/49/1 61/62/1
f 50/59/1 42/50/1 55/64/1
f 42/50/1 43/52/1 56/63/1
f 51/53/1 44/67/1 57/66/1
f 45/65/1 66/80/1 57/66/1
f 53/61/1 46/54/1 59/69/1
f 54/58/1 62/71/1 61/62/1
f 49/57/1 63/72/1 62/71/1
f 50/59/1 64/73/1 63/72/1
f 56/63/1 51/53/1 65/74/1
f 59/69/1 47/55/1 67/76/1
f 60/70/1 61/62/1 72/77/1
f 55/64/1 56/63/1 77/79/1
f 57/66/1 78/81/1 65/74/1
f 53/61/1 80/100/1 70/82/1
f 53/61/1 71/83/1 80/100/1
f 62/71/1 63/72/1 73/87/1
f 63/72/1 83/84/1 73/87/1
f 68/78/1 64/73/1 74/89/1
f 64/73/1 75/95/1 74/89/1
f 64/73/1 55/64/1 75/95/1
f 55/64/1 76/193/1 75/95/1
f 55/64/1 77/79/1 76/193/1
f 78/81/1 66/80/1 79/90/1
f 66/80/1 69/188/1 79/90/1
f 67/76/1 72/77/1 86/86/1
f 62/71/1 82/88/1 81/85/1
f 76/193/1 77/79/1 87/104/1
f 77/79/1 84/91/1 87/104/1
f 77/79/1 78/81/1 84/91/1
f 70/82/1 80/100/1 89/92/1
f 71/83/1 67/76/1 86/86/1
f 74/89/1 101/96/1 83/84/1
f 76/193/1 87/104/1 75/95/1
f 79/90/1 88/98/1 84/91/1
f 80/100/1 90/99/1 89/92/1
f 71/83/1 91/94/1 90/99/1
f 86/86/1 92/113/1 91/94/1
f 86/86/1 93/101/1 92/113/1
f 82/88/1 100/107/1 81/85/1
f 82/88/1 83/84/1 94/108/1
f 83/84/1 95/115/1 94/108/1
f 83/84/1 101/96/1 95/115/1
f 101/96/1 75/95/1 96/103/1
f 87/104/1 84/91/1 98/105/1
f 84/91/1 99/106/1 98/105/1
f 90/99/1 91/94/1 103/111/1
f 92/113/1 93/101/1 104/123/1
f 93/101/1 105/114/1 104/123/1
f 94/108/1 106/116/1 100/107/1
f 101/96/1 115/136/1 95/115/1
f 101/96/1 107/118/1 115/136/1
f 101/96/1 96/103/1 107/118/1
f 96/103/1 97/102/1 108/117/1
f 97/102/1 109/119/1 108/117/1
f 99/106/1 116/121/1 109/119/1
f 99/106/1 88/98/1 110/120/1
f 88/98/1 190/189/1 122/122/1
f 90/99/1 112/112/1 111/109/1
f 92/113/1 113/124/1 103/111/1
f 100/107/1 106/116/1 105/114/1
f 95/115/1 115/136/1 114/125/1
f 109/119/1 120/129/1 108/117/1
f 112/112/1 103/111/1 117/132/1
f 103/111/1 133/126/1 117/132/1
f 104/123/1 118/127/1 113/124/1
f 110/120/1 121/130/1 116/121/1
f 111/109/1 124/131/1 123/191/1
f 105/114/1 125/133/1 118/127/1
f 114/125/1 126/135/1 119/128/1
f 114/125/1 115/136/1 127/134/1
f 107/118/1 128/148/1 127/134/1
f 107/118/1 129/137/1 128/148/1
f 120/129/1 116/121/1 130/138/1
f 121/130/1 122/122/1 131/142/1
f 117/132/1 132/139/1 124/131/1
f 133/126/1 118/127/1 137/150/1
f 129/137/1 120/129/1 135/141/1
f 130/138/1 121/130/1 136/143/1
f 178/144/1 123/191/1 124/131/1
f 132/139/1 133/126/1 137/150/1
f 118/127/1 138/145/1 137/150/1
f 134/140/1 126/135/1 139/146/1
f 130/138/1 141/149/1 135/141/1
f 131/142/1 142/156/1 136/143/1
f 132/139/1 147/151/1 178/144/1
f 125/133/1 143/152/1 138/145/1
f 128/148/1 144/153/1 140/147/1
f 129/137/1 135/141/1 145/154/1
f 137/150/1 154/165/1 147/151/1
f 137/150/1 148/159/1 154/165/1
f 137/150/1 138/145/1 149/158/1
f 138/145/1 150/161/1 149/158/1
f 138/145/1 143/152/1 150/161/1
f 142/156/1 180/167/1 146/155/1
f 146/155/1 182/168/1 153/163/1
f 154/165/1 148/159/1 155/194/1
f 148/159/1 156/177/1 155/194/1
f 148/159/1 149/158/1 156/177/1
f 150/161/1 157/169/1 149/158/1
f 144/153/1 159/180/1 158/166/1
f 144/153/1 145/154/1 159/180/1
f 145/154/1 163/170/1 159/180/1
f 155/194/1 183/171/1 154/165/1
f 149/158/1 160/172/1 156/177/1
f 157/169/1 151/160/1 161/178/1
f 151/160/1 162/174/1 161/178/1
f 151/160/1 152/162/1 165/173/1
f 153/163/1 184/175/1 163/170/1
f 155/194/1 156/177/1 164/176/1
f 185/182/1 163/170/1 184/175/1
f 160/172/1 161/178/1 167/184/1
f 1/6/1 7/5/1 187/187/1
f 194/195/1 160/172/1 167/184/1
f 160/172/1 194/195/1 164/176/1
