# Blender 4.2.3 LTS
# www.blender.org
o mouth
v 2.565958 -2.334256 -0.285227
v 2.995062 -1.757313 -0.368537
v 2.802287 -1.882013 -0.722991
v 2.804576 -2.018685 -0.881441
v 2.726164 -2.123130 -0.857660
v 2.819140 -2.267766 -0.893002
v 2.805026 -2.404713 -0.707214
v 3.798748 -2.879592 -0.919404
v 3.395561 -2.656094 -0.982929
v 4.032221 -2.127419 -0.919430
v 2.422521 -2.195212 0.074776
v 2.355606 -2.004533 0.062547
v 2.382610 -1.900644 -0.064937
v 2.459344 -1.822572 -0.062721
v 2.633870 -1.754371 -0.099346
v 2.411284 -2.080253 -0.350245
v 2.472405 -1.897513 -0.406615
v 2.707146 -1.793297 -0.457171
v 2.572243 -2.177727 -0.634351
v 2.571688 -1.957246 -0.648056
v 3.054697 -2.439038 -0.957722
v 2.928798 -2.181999 -1.002535
v 3.154841 -2.037721 -1.016445
v 3.077621 -1.877244 -0.779988
v 3.232378 -2.374171 -1.121459
v 3.209308 -2.160048 -1.111069
v 3.346934 -1.966944 -0.924164
v 3.593578 -2.564876 -1.171426
v 3.486216 -2.369273 -1.203703
v 3.608958 -2.246692 -1.183365
v 3.743730 -2.086916 -1.002413
v 3.923797 -2.322549 -1.187777
v 3.790240 -2.767051 -1.076423
v 3.838507 -2.554289 -1.225687
v 3.026137 -2.588593 -0.653444
v 3.568280 -2.871447 -0.728091
v 3.850893 -3.015482 -0.674249
v 2.963162 -2.631010 -0.248953
v 3.610061 -2.985205 -0.284890
v 3.885493 -3.096182 -0.311314
v 3.480476 -1.858807 -0.606213
v 4.134707 -2.033495 -0.635939
v 4.310511 -1.970250 -0.174631
v 4.076902 -1.906110 -0.231075
v 3.540192 -1.790153 -0.171064
v 4.332341 -1.964113 -0.001039
v 2.616385 -2.354757 0.391060
v 2.626806 -2.405005 0.053944
v 3.025631 -1.724397 -0.023543
v 2.867271 -1.752464 0.361452
v 3.200996 -1.866170 0.730994
v 2.856987 -2.027871 0.919801
v 2.675363 -2.075764 0.805295
v 2.775382 -2.246043 0.856063
v 2.850900 -2.406998 0.778080
v 3.789067 -2.846890 0.974159
v 3.748499 -1.950632 0.722920
v 4.103079 -2.055717 0.707450
v 2.584166 -1.792123 0.293122
v 2.446700 -2.145336 0.358340
v 2.434721 -1.901169 0.309923
v 2.463028 -2.017182 0.493568
v 2.572088 -2.177537 0.632016
v 2.582561 -1.914780 0.599327
v 2.854106 -1.860818 0.705219
v 2.928325 -2.181571 1.000139
v 3.153942 -2.014071 0.993395
v 3.292919 -2.591062 0.981443
v 3.110976 -2.324769 1.077406
v 3.281055 -2.210231 1.138365
v 3.469241 -2.383462 1.193726
v 3.509843 -2.028440 0.981479
v 3.436810 -2.547387 1.119089
v 3.657933 -2.189695 1.135154
v 3.880894 -2.428622 1.237519
v 3.984362 -2.200042 1.054025
v 3.813068 -2.642333 1.185249
v 3.032588 -2.599502 0.626435
v 3.563425 -2.870525 0.722710
v 3.851722 -3.012661 0.672948
v 2.941573 -2.625951 0.176663
v 3.618009 -2.999326 0.218371
v 3.877179 -3.074335 0.426366
v 3.893988 -3.122257 0.059164
v 3.405367 -1.798580 0.396073
v 4.311168 -1.966299 0.176364
v 4.087729 -1.890851 0.087337
vn -0.9402 -0.3342 -0.0655
vn -0.9862 0.0760 -0.1470
vn -0.4339 0.8767 -0.2075
vn -0.0851 0.9885 -0.1250
vn -0.7126 -0.6353 -0.2977
vn -0.8743 -0.0323 -0.4843
vn -0.6888 -0.5576 -0.4633
vn -0.7375 -0.3302 -0.5891
vn -0.6304 0.3114 -0.7111
vn -0.4175 0.6851 -0.5970
vn -0.0873 0.9351 -0.3433
vn -0.0318 0.9578 -0.2856
vn -0.2869 0.5029 -0.8153
vn -0.5119 -0.7567 -0.4065
vn -0.5188 -0.4356 -0.7356
vn -0.3613 0.0063 -0.9324
vn -0.0302 0.8225 -0.5680
vn -0.4237 -0.5850 -0.6915
vn 0.0720 0.7134 -0.6971
vn -0.3434 -0.6518 -0.6762
vn 0.1540 0.6809 -0.7160
vn -0.1593 -0.5425 -0.8248
vn 0.0195 0.1544 -0.9878
vn -0.6078 -0.2032 -0.7676
vn -0.5279 0.2089 -0.8232
vn -0.1352 0.7988 -0.5863
vn -0.3437 -0.7720 -0.5347
vn -0.5153 -0.7440 -0.4253
vn -0.3852 -0.8169 -0.4293
vn -0.4807 -0.8612 -0.1651
vn -0.4171 -0.8890 -0.1889
vn -0.3822 -0.9091 -0.1657
vn -0.4825 -0.8758 -0.0141
vn -0.3778 -0.9242 -0.0564
vn -0.4699 -0.8051 -0.3619
vn -0.5535 -0.8295 -0.0737
vn -0.5952 -0.7763 -0.2075
vn 0.2380 0.9357 -0.2604
vn 0.3112 0.9183 -0.2445
vn 0.1208 0.9779 -0.1709
vn 0.0970 0.9899 -0.1030
vn 0.2639 0.9622 -0.0672
vn 0.2051 0.9773 -0.0538
vn 0.1957 0.9005 -0.3884
vn -0.0836 0.9958 0.0382
vn -0.9108 0.3928 0.1272
vn -0.7111 0.6960 0.0998
vn -0.9634 -0.1267 0.2364
vn -0.7663 -0.5767 0.2832
vn -0.8848 -0.2802 0.3724
vn -0.2006 0.9365 0.2875
vn -0.8309 -0.0913 0.5488
vn -0.5494 0.5200 0.6540
vn -0.5440 -0.5586 0.6261
vn -0.3238 0.3159 0.8918
vn 0.0516 0.8660 0.4974
vn -0.4733 -0.5665 0.6746
vn -0.3401 -0.3331 0.8794
vn -0.3142 -0.0382 0.9486
vn -0.0249 0.5837 0.8116
vn -0.0786 0.2249 0.9712
vn -0.3590 -0.7135 0.6017
vn -0.2490 -0.3601 0.8991
vn -0.2893 -0.6708 0.6829
vn -0.6425 -0.1536 0.7507
vn -0.1859 0.7741 0.6051
vn 0.1452 0.9024 0.4056
vn 0.2350 0.8494 0.4725
vn -0.4724 -0.8649 0.1698
vn -0.4089 -0.8938 0.1840
vn -0.3534 -0.9295 0.1051
vn -0.5002 -0.7755 0.3852
vn -0.4064 -0.8008 0.4400
vn -0.5667 -0.8078 0.1622
vn 0.2845 0.9209 0.2665
vn 0.2347 0.9481 0.2144
vn 0.0782 0.9914 0.1045
vn 0.1569 0.9863 0.0519
vn -0.7172 -0.6967 -0.0167
vn -0.8331 -0.5390 -0.1238
vn -0.3904 0.9033 -0.1782
vn -0.0587 0.9942 -0.0897
vn -0.9397 0.2388 -0.2448
vn -0.6994 0.6924 -0.1774
vn -0.7934 -0.5499 -0.2608
vn -0.8952 0.1727 -0.4108
vn -0.4425 0.8111 -0.3826
vn -0.4014 0.8160 -0.4160
vn -0.8184 -0.0377 -0.5733
vn -0.3608 0.3626 -0.8592
vn -0.5205 -0.3366 -0.7847
vn -0.3084 0.0129 -0.9512
vn -0.0116 0.6086 -0.7934
vn -0.4045 -0.5811 -0.7062
vn -0.2879 -0.3077 -0.9069
vn -0.1138 0.2724 -0.9554
vn 0.0801 0.7168 -0.6926
vn -0.1977 -0.2643 -0.9440
vn 0.0207 0.1434 -0.9894
vn 0.2837 0.7174 -0.6363
vn -0.5938 -0.6255 -0.5061
vn -0.2068 0.7394 -0.6407
vn -0.3568 -0.8472 -0.3937
vn -0.4743 -0.8625 -0.1767
vn -0.4809 -0.8766 -0.0170
vn -0.4159 -0.9092 -0.0189
vn -0.5972 -0.8018 -0.0208
vn -0.5792 -0.7965 -0.1737
vn 0.0708 0.9614 -0.2660
vn 0.1887 0.9657 -0.1783
vn 0.2768 0.9593 -0.0554
vn 0.2352 0.8941 -0.3812
vn 0.2239 0.9015 -0.3703
vn 0.1140 0.9250 -0.3625
vn -0.3554 0.9336 0.0448
vn -0.1561 0.9849 0.0750
vn -0.7099 -0.6995 0.0823
vn -0.9375 -0.3203 0.1363
vn -0.5745 0.8077 0.1324
vn -0.7783 -0.6037 0.1725
vn -0.9581 0.1512 0.2432
vn -0.7754 0.4730 0.4183
vn -0.5371 0.7840 0.3112
vn -0.6972 -0.6326 0.3371
vn -0.3125 0.8824 0.3518
vn -0.7626 0.2962 0.5751
vn -0.6952 -0.5503 0.4625
vn -0.7532 -0.2626 0.6031
vn -0.3691 0.7310 0.5740
vn -0.0076 0.9538 0.3003
vn -0.5727 -0.3242 0.7530
vn -0.5272 -0.5830 0.6182
vn -0.3616 0.0413 0.9314
vn -0.2323 0.4762 0.8481
vn 0.0522 0.7137 0.6986
vn -0.0130 0.3835 0.9235
vn -0.1251 -0.1981 0.9722
vn 0.1793 0.7600 0.6247
vn 0.2179 0.5491 0.8069
vn -0.5569 0.1668 0.8136
vn -0.0228 0.8727 0.4878
vn 0.2720 0.8517 0.4479
vn -0.3507 -0.8494 0.3945
vn -0.4849 -0.8618 0.1488
vn -0.4055 -0.8958 0.1822
vn -0.4749 -0.7997 0.3673
vn -0.5975 -0.7956 0.1001
vn -0.5937 -0.7626 0.2568
vn 0.1503 0.9473 0.2829
vn 0.0678 0.9691 0.2370
vn 0.2232 0.9522 0.2087
vn 0.3024 0.9520 0.0478
vn 0.1401 0.9890 0.0480
vt 0.429043 0.137206
vt 0.477064 0.140753
vt 0.462453 0.169590
vt 0.507748 0.140768
vt 0.580531 0.185668
vt 0.519068 0.179056
vt 0.538305 0.140638
vt 0.621197 0.176727
vt 0.577149 0.136769
vt 0.401704 0.164110
vt 0.448250 0.211402
vt 0.395355 0.234681
vt 0.513955 0.211292
vt 0.442429 0.257174
vt 0.481827 0.243040
vt 0.522305 0.249428
vt 0.560784 0.228521
vt 0.596958 0.248268
vt 0.552388 0.289019
vt 0.519084 0.302589
vt 0.417050 0.286494
vt 0.394308 0.328792
vt 0.461680 0.310301
vt 0.485775 0.273095
vt 0.601915 0.300431
vt 0.538042 0.343792
vt 0.447630 0.351967
vt 0.408824 0.375077
vt 0.600120 0.345943
vt 0.551278 0.373443
vt 0.475502 0.375000
vt 0.491011 0.337490
vt 0.375000 0.375000
vt 0.375000 0.273579
vt 0.250000 0.506363
vt 0.221078 0.539539
vt 0.194998 0.501146
vt 0.160351 0.533273
vt 0.221975 0.597142
vt 0.159080 0.594041
vt 0.249957 0.553000
vt 0.250000 0.594546
vt 0.219686 0.601621
vt 0.158387 0.602754
vt 0.249599 0.619631
vt 0.125000 0.586078
vt 0.125000 0.617540
vt 0.125000 0.519305
vt 0.751172 0.543764
vt 0.817955 0.540035
vt 0.772000 0.596235
vt 0.750000 0.603358
vt 0.868530 0.573360
vt 0.815094 0.599374
vt 0.863285 0.614240
vt 0.773157 0.614065
vt 0.750000 0.625000
vt 0.835335 0.500000
vt 0.780533 0.500000
vt 0.607152 0.174948
vt 0.615807 0.135325
vt 0.515028 0.164241
vt 0.446044 0.172391
vt 0.486070 0.188702
vt 0.397915 0.179971
vt 0.448298 0.211414
vt 0.575266 0.228472
vt 0.559278 0.163919
vt 0.489980 0.235040
vt 0.524156 0.257395
vt 0.525545 0.205039
vt 0.399924 0.250165
vt 0.463086 0.297333
vt 0.447670 0.250186
vt 0.485834 0.273073
vt 0.514164 0.311511
vt 0.559261 0.286584
vt 0.593839 0.319624
vt 0.621779 0.260781
vt 0.396961 0.316173
vt 0.434742 0.335243
vt 0.485180 0.335857
vt 0.559613 0.346327
vt 0.518964 0.374658
vt 0.385798 0.375139
vt 0.449121 0.375030
vt 0.625000 0.337011
vt 0.589331 0.374997
vt 0.160238 0.537807
vt 0.220537 0.539309
vt 0.249998 0.552942
vt 0.250000 0.582820
vt 0.133062 0.512394
vt 0.209612 0.500000
vt 0.250158 0.506351
vt 0.125000 0.570091
vt 0.750000 0.529925
vt 0.750015 0.603005
vt 0.786190 0.523740
vt 0.868468 0.568086
vt 0.826530 0.569967
vt 0.383958 0.132469
vt 0.614661 0.375000
vt 0.871864 0.510132
vt 0.750000 0.508440
vt 0.625000 0.375000
vt 0.857637 0.509768
s 0
f 11/1/1 12/2/1 16/3/1
f 12/2/2 13/4/2 16/3/2
f 18/5/3 17/6/3 14/7/3
f 2/8/4 18/5/4 15/9/4
f 1/10/5 19/11/5 7/12/5
f 16/3/6 20/13/6 19/11/6
f 19/11/7 6/14/7 7/12/7
f 19/11/8 5/15/8 6/14/8
f 20/13/9 4/16/9 5/15/9
f 20/13/10 3/17/10 4/16/10
f 18/5/11 24/18/11 3/17/11
f 2/8/12 24/18/12 18/5/12
f 23/19/13 26/20/13 4/16/13
f 21/21/14 9/22/14 7/12/14
f 6/14/15 25/23/15 21/21/15
f 22/24/16 26/20/16 25/23/16
f 24/18/17 27/25/17 23/19/17
f 21/21/18 25/23/18 9/22/18
f 23/19/19 27/25/19 30/26/19
f 9/22/20 28/27/20 33/28/20
f 31/29/21 32/30/21 30/26/21
f 28/27/22 34/31/22 33/28/22
f 29/32/23 32/30/23 34/31/23
f 5/15/24 22/24/24 6/14/24
f 5/15/25 4/16/25 22/24/25
f 24/18/26 23/19/26 3/17/26
f 9/22/27 33/28/27 8/33/27
f 7/12/28 9/22/28 35/34/28
f 8/35/29 36/36/29 9/37/29
f 35/38/30 39/39/30 38/40/30
f 36/36/31 37/41/31 39/39/31
f 40/42/32 39/39/32 37/41/32
f 38/40/33 82/43/33 81/44/33
f 40/42/34 84/45/34 39/39/34
f 9/37/35 36/36/35 35/38/35
f 1/46/36 81/44/36 48/47/36
f 7/48/37 35/38/37 1/46/37
f 42/49/38 41/50/38 44/51/38
f 42/49/39 44/51/39 43/52/39
f 2/53/40 45/54/40 41/50/40
f 2/53/41 49/55/41 45/54/41
f 43/52/42 87/56/42 46/57/42
f 44/51/43 45/54/43 87/56/43
f 27/58/44 41/50/44 31/59/44
f 50/60/45 49/61/45 15/9/45
f 12/2/46 61/62/46 13/4/46
f 13/4/47 61/62/47 14/7/47
f 60/63/48 62/64/48 12/2/48
f 47/65/49 63/66/49 60/63/49
f 60/63/50 63/66/50 62/64/50
f 65/67/51 50/60/51 59/68/51
f 63/66/52 53/69/52 62/64/52
f 53/69/53 52/70/53 64/71/53
f 55/72/54 69/73/54 54/74/54
f 66/75/55 70/76/55 52/70/55
f 67/77/56 72/78/56 51/79/56
f 68/80/57 73/81/57 69/73/57
f 73/81/58 71/82/58 69/73/58
f 69/73/59 71/82/59 70/76/59
f 70/76/60 74/83/60 67/77/60
f 71/82/61 75/84/61 70/76/61
f 68/80/62 56/85/62 73/81/62
f 73/81/63 77/86/63 71/82/63
f 56/85/64 77/86/64 73/81/64
f 54/74/65 66/75/65 53/69/65
f 67/77/66 65/67/66 52/70/66
f 72/78/67 57/87/67 51/79/67
f 76/88/68 57/87/68 72/78/68
f 78/89/69 82/43/69 79/90/69
f 79/90/70 82/43/70 80/91/70
f 84/45/71 83/92/71 82/43/71
f 55/93/72 78/89/72 68/94/72
f 79/90/73 56/95/73 68/94/73
f 47/96/74 81/44/74 78/89/74
f 58/97/75 86/98/75 57/99/75
f 86/98/76 87/56/76 57/99/76
f 49/55/77 50/100/77 85/101/77
f 87/56/78 45/54/78 85/101/78
f 48/102/79 11/1/79 1/10/79
f 1/10/80 11/1/80 16/3/80
f 15/9/81 18/5/81 14/7/81
f 49/61/82 2/8/82 15/9/82
f 16/3/83 13/4/83 17/6/83
f 13/4/84 14/7/84 17/6/84
f 1/10/85 16/3/85 19/11/85
f 16/3/86 17/6/86 20/13/86
f 17/6/87 18/5/87 20/13/87
f 18/5/88 3/17/88 20/13/88
f 19/11/89 20/13/89 5/15/89
f 22/24/90 4/16/90 26/20/90
f 6/14/91 22/24/91 25/23/91
f 25/23/92 26/20/92 29/32/92
f 26/20/93 23/19/93 30/26/93
f 9/22/94 25/23/94 28/27/94
f 25/23/95 29/32/95 28/27/95
f 29/32/96 26/20/96 30/26/96
f 30/26/97 27/25/97 31/29/97
f 28/27/98 29/32/98 34/31/98
f 29/32/99 30/26/99 32/30/99
f 31/29/100 10/103/100 32/30/100
f 7/12/101 6/14/101 21/21/101
f 4/16/102 3/17/102 23/19/102
f 8/35/103 37/41/103 36/36/103
f 35/38/104 36/36/104 39/39/104
f 38/40/105 39/39/105 82/43/105
f 39/39/106 84/45/106 82/43/106
f 1/46/107 38/40/107 81/44/107
f 1/46/108 35/38/108 38/40/108
f 24/104/109 2/53/109 41/50/109
f 44/51/110 41/50/110 45/54/110
f 43/52/111 44/51/111 87/56/111
f 10/105/112 31/59/112 42/49/112
f 31/59/113 41/50/113 42/49/113
f 27/58/114 24/104/114 41/50/114
f 14/7/115 59/68/115 15/9/115
f 59/68/116 50/60/116 15/9/116
f 48/102/117 47/65/117 11/1/117
f 11/1/118 60/63/118 12/2/118
f 14/7/119 61/62/119 59/68/119
f 11/1/120 47/65/120 60/63/120
f 12/2/121 62/64/121 61/62/121
f 61/62/122 62/64/122 64/71/122
f 61/62/123 64/71/123 59/68/123
f 47/65/124 55/72/124 63/66/124
f 64/71/125 65/67/125 59/68/125
f 62/64/126 53/69/126 64/71/126
f 63/66/127 55/72/127 54/74/127
f 63/66/128 54/74/128 53/69/128
f 64/71/129 52/70/129 65/67/129
f 65/67/130 51/79/130 50/60/130
f 54/74/131 69/73/131 66/75/131
f 55/72/132 68/80/132 69/73/132
f 66/75/133 69/73/133 70/76/133
f 52/70/134 70/76/134 67/77/134
f 67/77/135 74/83/135 72/78/135
f 70/76/136 75/84/136 74/83/136
f 71/82/137 77/86/137 75/84/137
f 74/83/138 76/88/138 72/78/138
f 75/84/139 76/88/139 74/83/139
f 53/69/140 66/75/140 52/70/140
f 67/77/141 51/79/141 65/67/141
f 76/88/142 58/106/142 57/87/142
f 79/90/143 80/91/143 56/95/143
f 78/89/144 81/44/144 82/43/144
f 82/43/145 83/92/145 80/91/145
f 68/94/146 78/89/146 79/90/146
f 47/96/147 48/47/147 81/44/147
f 55/93/148 47/96/148 78/89/148
f 57/99/149 85/101/149 51/107/149
f 85/101/150 50/100/150 51/107/150
f 57/99/151 87/56/151 85/101/151
f 86/98/152 46/57/152 87/56/152
f 85/101/153 45/54/153 49/55/153
