# Blender 4.2.3 LTS
# www.blender.org
o mouth
v 2.716454 -2.396465 -0.426440
v 3.065498 -1.465268 -0.002510
v 3.030051 -1.647228 -0.658380
v 2.752761 -2.101187 -0.869137
v 2.931900 -2.311619 -0.922423
v 3.878452 -2.794486 -1.049808
v 3.697722 -2.876569 -0.754199
v 3.090135 -2.498852 -0.855472
v 3.180358 -1.620392 -0.754460
v 3.773495 -1.824728 -0.927393
v 4.071914 -1.917333 -0.924329
v 2.533379 -2.284156 -0.114918
v 2.417978 -1.815198 0.061924
v 2.370478 -2.048100 -0.039826
v 2.390369 -1.926166 -0.252518
v 2.539369 -1.722009 -0.166217
v 2.479711 -2.144970 -0.388195
v 2.606604 -1.808755 -0.549014
v 2.490997 -1.971827 -0.552679
v 2.662645 -2.218082 -0.691908
v 2.760400 -1.946831 -0.844612
v 2.995504 -2.157611 -1.032869
v 3.086567 -2.003882 -1.024263
v 3.295027 -1.802124 -0.909901
v 3.545311 -2.329637 -1.208696
v 3.525572 -2.109201 -1.139747
v 3.319265 -2.399936 -1.125069
v 3.893795 -2.634051 -1.182877
v 3.996089 -2.180670 -1.126160
v 3.947919 -2.390204 -1.231786
v 3.909299 -2.995827 -0.674069
v 3.087087 -2.610162 -0.549018
v 3.687832 -2.991265 -0.187869
v 4.180089 -1.695848 -0.801394
v 3.533992 -1.424995 -0.726849
v 4.357546 -1.415009 -0.666187
v 4.490127 -1.116730 -0.400989
v 3.666413 -1.173936 -0.408646
v 4.469621 -0.919725 -0.198894
v 4.595662 -0.959456 -0.187177
v 3.859872 -1.130266 -0.392459
v 4.280492 -0.938512 -0.123819
v 3.273518 -1.398053 -0.317788
v 4.650973 -0.968268 -0.068160
v 3.561960 -1.284354 -0.005727
v 3.122294 -1.726090 0.808498
v 2.733729 -2.444671 0.185632
v 3.033362 -1.645089 0.655473
v 2.778655 -2.102993 0.890899
v 2.960734 -2.353233 0.911371
v 3.468704 -2.640423 0.988991
v 3.036777 -2.503691 0.763042
v 4.128240 -1.787252 0.846148
v 2.402996 -1.987027 0.313255
v 2.492459 -2.181514 0.376823
v 2.464765 -1.894817 0.437726
v 2.538242 -1.745970 0.282274
v 2.655559 -1.803539 0.588290
v 2.557996 -2.055075 0.640009
v 2.680786 -2.222450 0.711541
v 2.760383 -1.946830 0.842512
v 3.086298 -2.003596 1.021905
v 2.944393 -2.183807 1.007952
v 3.421511 -1.796018 0.922379
v 3.427458 -2.462664 1.127375
v 3.500525 -2.317789 1.198963
v 3.613678 -2.127243 1.150857
v 3.880774 -2.755879 1.088041
v 3.897778 -2.609365 1.194551
v 3.943484 -2.408821 1.230120
v 4.023756 -2.069525 1.041431
v 3.548535 -2.823311 0.699137
v 3.909299 -2.995827 0.671991
v 2.881755 -2.482622 0.553631
v 3.678564 -2.969543 0.310699
v 3.913017 -3.093459 -0.001039
v 3.126010 -2.699474 -0.032339
v 4.333810 -1.458490 0.694617
v 3.454344 -1.452718 0.734293
v 4.478308 -1.140849 0.414753
v 4.290237 -1.118801 0.440122
v 3.636678 -1.204650 0.459776
v 4.597124 -0.960331 0.179696
v 3.951119 -1.075732 0.248473
v 3.226238 -1.418562 0.269063
v 4.504375 -0.897877 0.095353
v 4.367440 -0.927839 0.207375
v 4.670583 -0.973393 0.011141
vn -0.7664 0.6240 -0.1529
vn -0.9427 -0.2436 -0.2278
vn -0.7637 0.5490 -0.3396
vn -0.7290 -0.6571 -0.1915
vn -0.8382 -0.3459 -0.4216
vn -0.6636 0.4833 -0.5710
vn -0.7335 0.1419 -0.6647
vn -0.6706 -0.4152 -0.6148
vn -0.6046 -0.6668 -0.4357
vn -0.5800 -0.8132 -0.0477
vn -0.1376 0.5922 -0.7939
vn -0.4698 -0.6213 -0.6272
vn -0.3252 -0.0758 -0.9426
vn -0.1812 0.2788 -0.9431
vn -0.4064 -0.6902 -0.5987
vn -0.2308 -0.3415 -0.9111
vn 0.0914 0.4314 -0.8975
vn 0.1054 0.5343 -0.8387
vn -0.0830 -0.1782 -0.9805
vn -0.5803 -0.3026 -0.7561
vn -0.5265 0.1588 -0.8352
vn -0.3045 0.5968 -0.7424
vn -0.4091 -0.7835 -0.4677
vn -0.4652 -0.8305 -0.3063
vn -0.4278 -0.8844 -0.1866
vn -0.4825 -0.8685 -0.1138
vn -0.5482 -0.7843 -0.2903
vn -0.0244 0.6703 -0.7417
vn -0.1331 0.8043 -0.5792
vn -0.4207 0.7956 -0.4359
vn -0.0248 0.7146 -0.6991
vn 0.2819 0.7012 -0.6549
vn -0.4715 0.8741 0.1173
vn 0.3059 0.9493 -0.0719
vn 0.3969 0.9170 -0.0389
vn -0.1219 0.9908 -0.0592
vn -0.4681 0.8836 -0.0085
vn 0.1416 0.4267 -0.8933
vn 0.0589 0.4756 -0.8777
vn -0.2361 0.5413 -0.8070
vn -0.8139 -0.5786 0.0530
vn -0.5564 0.8298 0.0429
vn -0.9147 0.3569 0.1895
vn -0.4261 0.8994 0.0975
vn -0.4047 0.8626 0.3037
vn -0.8866 -0.2901 0.3602
vn -0.6215 0.6915 0.3683
vn -0.6644 -0.6890 0.2896
vn -0.8112 -0.4221 0.4048
vn -0.7502 0.3045 0.5870
vn -0.7454 -0.2903 0.6001
vn -0.6512 -0.4178 0.6336
vn -0.6020 -0.6991 0.3858
vn -0.4278 0.2701 0.8626
vn -0.1509 0.6149 0.7741
vn -0.4590 -0.4730 0.7521
vn -0.2877 0.1534 0.9453
vn -0.0807 0.5338 0.8417
vn -0.2343 -0.3331 0.9133
vn 0.0787 0.5966 0.7987
vn -0.1003 -0.1515 0.9833
vn -0.0159 0.2536 0.9672
vn 0.1499 0.5244 0.8382
vn -0.3001 0.6057 0.7369
vn -0.3648 -0.8295 0.4229
vn -0.4771 -0.8632 0.1652
vn -0.4108 -0.8901 0.1976
vn -0.4971 -0.8605 0.1112
vn -0.4541 -0.8905 0.0304
vn -0.4344 -0.9002 0.0311
vn 0.0399 0.6024 0.7972
vn -0.1079 0.9120 0.3958
vn -0.5286 0.8206 0.2172
vn 0.1746 0.7320 0.6585
vn 0.1781 0.8743 0.4515
vn -0.4280 0.8999 -0.0834
vn -0.1978 0.9800 0.0203
vn 0.0953 0.3669 0.9254
vn -0.4221 0.6765 0.6034
vn -0.9812 0.1921 0.0184
vn -0.8341 -0.5402 -0.1113
vn -0.7192 0.6396 -0.2713
vn -0.9366 -0.2073 -0.2825
vn -0.4031 0.8747 -0.2690
vn -0.7198 -0.6349 -0.2807
vn -0.7940 -0.2368 -0.5599
vn -0.4178 0.7203 -0.5538
vn -0.4566 0.7284 -0.5108
vn -0.6044 -0.7126 -0.3563
vn -0.4203 0.2970 -0.8574
vn -0.4956 -0.3617 -0.7897
vn -0.2423 0.1967 -0.9501
vn -0.0842 0.5558 -0.8270
vn -0.0010 0.5987 -0.8009
vn -0.3146 -0.5880 -0.7452
vn -0.0100 0.2977 -0.9546
vn 0.1834 0.5642 -0.8050
vn -0.4446 -0.8764 -0.1853
vn -0.5229 -0.8457 -0.1068
vn -0.3148 -0.9396 -0.1346
vn -0.5631 -0.8249 -0.0491
vn -0.3153 -0.8470 -0.4280
vn 0.0415 0.7292 -0.6831
vn -0.4022 0.7927 -0.4580
vn -0.5217 0.8220 -0.2284
vn -0.2178 0.9228 -0.3177
vn -0.2317 0.9518 0.2008
vn -0.3424 0.9392 -0.0257
vn 0.3293 0.9380 -0.1085
vn -0.4040 0.9146 -0.0203
vn 0.1821 0.3307 -0.9260
vn -0.0119 0.4427 -0.8966
vn -0.4365 0.8458 -0.3067
vn -0.4164 0.9055 -0.0817
vn -0.9829 0.1741 0.0604
vn -0.4497 0.8920 0.0465
vn -0.7010 -0.7076 0.0894
vn -0.9159 -0.3727 0.1488
vn -0.7607 0.6093 0.2238
vn -0.6527 -0.7342 0.1868
vn -0.4142 0.8524 0.3192
vn -0.9016 0.0208 0.4320
vn -0.6722 0.4912 0.5540
vn -0.7338 0.1213 0.6685
vn -0.4019 0.7168 0.5698
vn -0.3771 0.7099 0.5949
vn -0.6490 -0.4231 0.6323
vn -0.6136 -0.6895 0.3848
vn -0.4849 -0.7259 0.4877
vn -0.4458 -0.6120 0.6532
vn -0.3686 -0.2557 0.8937
vn -0.1518 0.3257 0.9332
vn -0.3436 -0.6252 0.7007
vn -0.2822 -0.5425 0.7913
vn 0.1712 0.4476 0.8777
vn -0.4968 0.2033 0.8437
vn -0.4844 -0.8305 0.2750
vn -0.4925 -0.8628 0.1140
vn -0.3174 -0.9387 0.1344
vn -0.4547 -0.8044 0.3823
vn -0.3398 -0.8246 0.4523
vn 0.1757 0.6046 0.7769
vn -0.0814 0.7658 0.6379
vn -0.4409 0.7918 0.4226
vn -0.2236 0.7886 0.5728
vn 0.1827 0.7330 0.6553
vn -0.4279 0.8995 -0.0880
vn 0.4658 0.8745 0.1353
vn -0.3419 0.9389 0.0409
vn -0.3293 0.9426 0.0561
vn 0.0427 0.4769 0.8779
vn -0.2097 0.4852 0.8489
vt 0.520904 0.132759
vt 0.559341 0.148334
vt 0.491991 0.156517
vt 0.454773 0.135944
vt 0.439316 0.176548
vt 0.545799 0.198298
vt 0.490252 0.196347
vt 0.404625 0.146054
vt 0.383811 0.185790
vt 0.432088 0.221913
vt 0.525224 0.241869
vt 0.479330 0.245361
vt 0.432746 0.268168
vt 0.386009 0.283891
vt 0.380151 0.150984
vt 0.620148 0.263199
vt 0.603126 0.286312
vt 0.536504 0.283946
vt 0.453109 0.316842
vt 0.489169 0.278784
vt 0.498293 0.338079
vt 0.546991 0.327313
vt 0.395315 0.373619
vt 0.452700 0.374799
vt 0.570602 0.374790
vt 0.513281 0.374358
vt 0.616228 0.340667
vt 0.375000 0.343750
vt 0.167747 0.507435
vt 0.227286 0.536835
vt 0.167903 0.553249
vt 0.250000 0.552237
vt 0.228855 0.606202
vt 0.176083 0.605945
vt 0.128114 0.562039
vt 0.751730 0.531085
vt 0.791156 0.565692
vt 0.747459 0.560660
vt 0.820415 0.525721
vt 0.814252 0.558341
vt 0.860115 0.516535
vt 0.874677 0.532329
vt 0.765625 0.590608
vt 0.750000 0.588847
vt 0.842500 0.578814
vt 0.826060 0.614320
vt 0.750000 0.609375
vt 0.765625 0.606697
vt 0.750000 0.622155
vt 0.781250 0.603465
vt 0.799962 0.584889
vt 0.783889 0.500000
vt 0.750000 0.515625
vt 0.750000 0.500000
vt 0.838688 0.500000
vt 0.431154 0.174739
vt 0.553199 0.163800
vt 0.476949 0.164903
vt 0.507192 0.180686
vt 0.614757 0.162850
vt 0.618786 0.140191
vt 0.611001 0.217792
vt 0.473454 0.209724
vt 0.551454 0.207402
vt 0.383688 0.211562
vt 0.432750 0.227087
vt 0.525212 0.241869
vt 0.482815 0.250198
vt 0.470113 0.275367
vt 0.420905 0.271800
vt 0.536466 0.283938
vt 0.607454 0.299763
vt 0.608227 0.255435
vt 0.446062 0.327694
vt 0.493425 0.334140
vt 0.548516 0.336300
vt 0.453252 0.374435
vt 0.624903 0.374729
vt 0.510760 0.375000
vt 0.590534 0.375000
vt 0.213845 0.541801
vt 0.207344 0.501074
vt 0.139728 0.548230
vt 0.227964 0.594351
vt 0.133656 0.599364
vt 0.250000 0.615870
vt 0.750191 0.531223
vt 0.767995 0.557253
vt 0.829692 0.528103
vt 0.816211 0.554199
vt 0.853149 0.580780
vt 0.874179 0.532209
vt 0.750000 0.559396
vt 0.771137 0.584748
vt 0.750000 0.589425
vt 0.750148 0.507092
vt 0.827825 0.500000
vt 0.868546 0.501019
vt 0.610979 0.217671
vt 0.616904 0.375000
vt 0.250366 0.500000
vt 0.860524 0.611171
vt 0.875000 0.587742
vt 0.378474 0.281494
vt 0.394182 0.329214
vt 0.403261 0.371108
vt 0.149451 0.509605
vt 0.250000 0.500000
s 0
f 13/1/1 16/2/1 15/3/1
f 14/4/2 15/3/2 17/5/2
f 15/3/3 18/6/3 19/7/3
f 12/8/4 17/5/4 1/9/4
f 17/5/5 19/7/5 20/10/5
f 19/7/6 18/6/6 21/11/6
f 19/7/7 21/11/7 4/12/7
f 20/10/8 4/12/8 5/13/8
f 20/10/9 5/13/9 8/14/9
f 47/15/10 12/8/10 1/9/10
f 9/16/11 24/17/11 23/18/11
f 5/13/12 27/19/12 8/14/12
f 22/20/13 25/21/13 27/19/13
f 23/18/14 26/22/14 25/21/14
f 8/14/15 27/19/15 6/23/15
f 27/19/16 25/21/16 28/24/16
f 26/22/17 29/25/17 30/26/17
f 26/22/18 10/27/18 29/25/18
f 25/21/19 30/26/19 28/24/19
f 4/12/20 22/20/20 5/13/20
f 4/12/21 21/11/21 22/20/21
f 9/16/22 23/18/22 21/11/22
f 8/14/23 6/23/23 7/28/23
f 8/29/24 7/30/24 32/31/24
f 31/32/25 33/33/25 7/30/25
f 32/31/26 33/33/26 77/34/26
f 8/29/27 32/31/27 1/35/27
f 36/36/28 41/37/28 37/38/28
f 35/39/29 38/40/29 41/37/29
f 9/41/30 3/42/30 38/40/30
f 37/38/31 41/37/31 39/43/31
f 37/38/32 39/43/32 40/44/32
f 38/40/33 43/45/33 45/46/33
f 40/44/34 39/43/34 44/47/34
f 44/47/35 86/48/35 88/49/35
f 39/43/36 42/50/36 86/48/36
f 41/37/37 45/46/37 84/51/37
f 10/52/38 34/53/38 11/54/38
f 10/52/39 35/39/39 36/36/39
f 24/55/40 9/41/40 35/39/40
f 12/8/41 55/56/41 14/4/41
f 13/1/42 57/57/42 16/2/42
f 54/58/43 56/59/43 13/1/43
f 57/57/44 85/60/44 2/61/44
f 48/62/45 85/60/45 57/57/45
f 55/56/46 59/63/46 54/58/46
f 56/59/47 58/64/47 57/57/47
f 74/65/48 60/66/48 55/56/48
f 55/56/49 60/66/49 59/63/49
f 59/63/50 61/67/50 56/59/50
f 60/66/51 49/68/51 59/63/51
f 60/66/52 63/69/52 49/68/52
f 74/65/53 50/70/53 60/66/53
f 63/69/54 62/71/54 61/67/54
f 64/72/55 46/73/55 62/71/55
f 50/70/56 65/74/56 63/69/56
f 63/69/57 66/75/57 62/71/57
f 62/71/58 67/76/58 64/72/58
f 65/74/59 69/77/59 66/75/59
f 67/76/60 53/78/60 64/72/60
f 69/77/61 70/79/61 66/75/61
f 66/75/62 70/79/62 67/76/62
f 67/76/63 71/80/63 53/78/63
f 62/71/64 46/73/64 61/67/64
f 72/81/65 73/32/65 51/82/65
f 74/83/66 75/84/66 72/81/66
f 75/84/67 73/32/67 72/81/67
f 47/85/68 77/34/68 74/83/68
f 77/34/69 33/33/69 75/84/69
f 33/33/70 76/86/70 75/84/70
f 78/87/71 81/88/71 79/89/71
f 81/88/72 84/51/72 82/90/72
f 82/90/73 85/91/73 48/92/73
f 80/93/74 87/94/74 81/88/74
f 83/95/75 86/48/75 87/94/75
f 84/51/76 45/46/76 85/91/76
f 86/48/77 42/50/77 87/94/77
f 53/96/78 78/87/78 64/97/78
f 79/89/79 48/92/79 46/98/79
f 14/4/80 13/1/80 15/3/80
f 12/8/81 14/4/81 17/5/81
f 15/3/82 16/2/82 18/6/82
f 17/5/83 15/3/83 19/7/83
f 16/2/84 3/99/84 18/6/84
f 1/9/85 17/5/85 20/10/85
f 20/10/86 19/7/86 4/12/86
f 18/6/87 3/99/87 21/11/87
f 3/99/88 9/16/88 21/11/88
f 1/9/89 20/10/89 8/14/89
f 22/20/90 21/11/90 23/18/90
f 5/13/91 22/20/91 27/19/91
f 22/20/92 23/18/92 25/21/92
f 23/18/93 24/17/93 26/22/93
f 24/17/94 10/27/94 26/22/94
f 6/23/95 27/19/95 28/24/95
f 25/21/96 26/22/96 30/26/96
f 29/25/97 10/27/97 11/100/97
f 32/31/98 7/30/98 33/33/98
f 1/35/99 32/31/99 77/34/99
f 31/32/100 76/86/100 33/33/100
f 1/35/101 77/34/101 47/85/101
f 6/101/102 31/32/102 7/30/102
f 36/36/103 35/39/103 41/37/103
f 35/39/104 9/41/104 38/40/104
f 38/40/105 3/42/105 43/45/105
f 39/43/106 41/37/106 42/50/106
f 41/37/107 38/40/107 45/46/107
f 43/45/108 2/102/108 45/46/108
f 44/47/109 39/43/109 86/48/109
f 42/50/110 41/37/110 84/51/110
f 10/52/111 36/36/111 34/53/111
f 10/52/112 24/55/112 35/39/112
f 43/45/113 3/42/113 16/103/113
f 43/45/114 16/103/114 2/102/114
f 14/4/115 54/58/115 13/1/115
f 16/2/116 57/57/116 2/61/116
f 12/8/117 47/15/117 55/56/117
f 14/4/118 55/56/118 54/58/118
f 13/1/119 56/59/119 57/57/119
f 47/15/120 74/65/120 55/56/120
f 58/64/121 48/62/121 57/57/121
f 54/58/122 59/63/122 56/59/122
f 56/59/123 61/67/123 58/64/123
f 59/63/124 49/68/124 61/67/124
f 61/67/125 48/62/125 58/64/125
f 61/67/126 46/73/126 48/62/126
f 60/66/127 50/70/127 63/69/127
f 74/65/128 52/104/128 50/70/128
f 52/104/129 51/105/129 50/70/129
f 50/70/130 51/105/130 65/74/130
f 63/69/131 65/74/131 66/75/131
f 62/71/132 66/75/132 67/76/132
f 51/105/133 68/106/133 65/74/133
f 65/74/134 68/106/134 69/77/134
f 67/76/135 70/79/135 71/80/135
f 49/68/136 63/69/136 61/67/136
f 52/107/137 74/83/137 72/81/137
f 74/83/138 77/34/138 75/84/138
f 75/84/139 76/86/139 73/32/139
f 51/82/140 52/107/140 72/81/140
f 51/82/141 73/32/141 68/108/141
f 80/93/142 81/88/142 78/87/142
f 79/89/143 81/88/143 82/90/143
f 79/89/144 82/90/144 48/92/144
f 81/88/145 87/94/145 84/51/145
f 80/93/146 83/95/146 87/94/146
f 82/90/147 84/51/147 85/91/147
f 83/95/148 88/49/148 86/48/148
f 45/46/149 2/102/149 85/91/149
f 87/94/150 42/50/150 84/51/150
f 64/97/151 78/87/151 79/89/151
f 64/97/152 79/89/152 46/98/152
