# Blender 4.5.3 LTS
# www.blender.org
o button_prototype
v -0.885172 0.216593 -0.010274
v -0.885172 -0.216593 -0.010274
v -0.925649 -0.160813 -0.018381
v -0.950475 -0.021954 -0.028707
v -0.931226 0.149320 -0.020059
v -0.723165 0.237455 -0.031914
v -0.718743 -0.237722 -0.032613
v -0.872856 0.200999 -0.036438
v -0.746909 0.212060 -0.055686
v -0.891427 0.120551 -0.051022
v -0.793478 0.128547 -0.055538
v -0.896568 -0.075806 -0.054336
v -0.793908 -0.129144 -0.055463
v -0.873486 -0.196949 -0.039265
v -0.750810 -0.211397 -0.055326
v -0.885213 0.217207 0.009524
v -0.885213 -0.217207 0.009524
v -0.932996 -0.144053 0.020375
v -0.949984 0.020177 0.028994
v -0.927518 0.156435 0.018588
v -0.714896 0.237499 0.032506
v -0.711962 -0.237693 0.032835
v -0.872861 0.200993 0.036424
v -0.749120 0.212127 0.055294
v -0.891426 0.120564 0.051021
v -0.793342 0.128538 0.055549
v -0.748231 -0.211499 0.055716
v -0.896571 -0.075808 0.054337
v -0.793116 -0.128938 0.055538
v -0.873494 -0.196938 0.039253
v 0.886527 0.219241 -0.000017
v 0.885172 -0.216593 -0.010274
v 0.925649 -0.160813 -0.018381
v 0.950475 -0.021954 -0.028707
v 0.931226 0.149320 -0.020059
v 0.718742 0.237722 -0.032613
v 0.723166 -0.237455 -0.031914
v 0.872856 0.200999 -0.036438
v 0.748847 0.212063 -0.055362
v 0.891427 0.120551 -0.051022
v 0.793478 0.128547 -0.055538
v 0.896568 -0.075806 -0.054336
v 0.873486 -0.196949 -0.039265
v 0.780600 -0.167620 -0.055795
v 0.749976 -0.213253 -0.055001
v 0.885213 -0.217207 0.009524
v 0.932996 -0.144053 0.020375
v 0.949984 0.020177 0.028994
v 0.927518 0.156435 0.018588
v 0.713450 0.237623 0.032605
v 0.718288 -0.237323 0.032028
v 0.872861 0.200993 0.036424
v 0.751090 0.213149 0.054874
v 0.780649 0.167619 0.055793
v 0.891426 0.120564 0.051021
v 0.896571 -0.075808 0.054337
v 0.794110 -0.129224 0.055443
v 0.873494 -0.196938 0.039253
v 0.747790 -0.212526 0.055342
vn -0.1025 -0.4467 0.8888
vn 0.1027 -0.4110 0.9059
vn -0.0655 0.0626 0.9959
vn 0.0685 -0.9546 -0.2899
vn -0.0436 -0.9416 0.3340
vn 0.0778 -0.9185 0.3878
vn 0.0578 -0.0493 0.9971
vn 0.2656 -0.0481 0.9629
vn 0.2679 0.0075 0.9634
vn 0.0427 0.0513 0.9978
vn 0.0753 0.4249 0.9021
vn 0.8158 0.3060 -0.4907
vn 0.8425 0.0521 0.5362
vn 0.8521 -0.0155 -0.5231
vn 0.2185 0.4266 0.8776
vn 0.5026 0.7903 -0.3505
vn 0.1445 0.9404 0.3079
vn 0.4897 0.7636 0.4208
vn 0.2622 -0.4109 -0.8731
vn 0.0542 -0.0526 -0.9971
vn 0.2214 -0.1126 -0.9687
vn 0.5510 -0.7766 -0.3053
vn 0.5330 -0.7443 0.4023
vn 0.3880 -0.4045 0.8281
vn 0.8105 0.3073 0.4987
vn 0.8823 -0.3034 0.3600
vn 0.2554 0.0097 -0.9668
vn 0.1147 0.4334 -0.8939
vn 0.0561 0.0364 -0.9978
vn 0.2686 0.3852 -0.8829
vn 0.1093 -0.4192 -0.9013
vn -0.1009 -0.4412 -0.8917
vn 0.0938 0.8837 -0.4585
vn -0.0708 0.4309 -0.8996
vn 0.7983 -0.4291 -0.4225
vn -0.0563 -0.0535 0.9970
vn -0.8561 -0.3369 -0.3919
vn -0.8096 -0.2967 0.5065
vn -0.8397 -0.0407 -0.5415
vn -0.2576 0.0097 0.9662
vn -0.8509 0.0015 0.5253
vn -0.8270 0.2758 -0.4899
vn -0.2320 0.4099 0.8821
vn -0.1172 0.4209 0.8995
vn -0.4571 0.8193 -0.3462
vn -0.1115 0.9576 0.2658
vn -0.0037 0.9483 -0.3173
vn -0.0712 -0.0694 -0.9950
vn -0.2432 -0.4825 -0.8414
vn -0.2286 -0.1495 -0.9620
vn -0.5265 -0.8457 -0.0866
vn 0.0371 -0.9582 -0.2837
vn -0.2253 -0.4973 0.8378
vn -0.4305 0.8816 0.1935
vn -0.7873 0.3344 0.5180
vn -0.3529 -0.0547 0.9341
vn -0.2622 0.0053 -0.9650
vn -0.2699 0.3836 -0.8832
vn -0.0439 0.0326 -0.9985
vt 0.102000 0.943985
vt 0.897164 0.944243
vt 0.089603 0.143927
vt 0.876720 0.993273
vt 0.881079 0.992734
vt 0.121269 0.992955
vt 0.913913 0.770191
vt 0.969182 0.752554
vt 0.970729 0.341283
vt 0.913912 0.228538
vt 0.899111 0.056221
vt 0.989355 0.200837
vt 0.998730 0.454306
vt 0.998810 0.542022
vt 0.961515 0.088088
vt 0.966098 0.050209
vt 0.878732 0.007043
vt 0.966093 0.050924
vt 0.960912 0.921261
vt 0.913913 0.770201
vt 0.969182 0.752582
vt 0.966098 0.949791
vt 0.966093 0.949075
vt 0.960910 0.921278
vt 0.986648 0.164644
vt 0.988424 0.810056
vt 0.970728 0.341279
vt 0.897925 0.055929
vt 0.913914 0.228799
vt 0.961518 0.088114
vt 0.898128 0.943986
vt 0.104107 0.946205
vt 0.875166 0.006575
vt 0.102614 0.055902
vt 0.987513 0.826082
vt 0.086087 0.770191
vt 0.012487 0.826082
vt 0.011575 0.810056
vt 0.001189 0.542022
vt 0.029271 0.341283
vt 0.001270 0.454306
vt 0.010645 0.200837
vt 0.038484 0.088088
vt 0.104696 0.053771
vt 0.033902 0.050209
vt 0.118920 0.007264
vt 0.121482 0.006900
vt 0.089619 0.855947
vt 0.039088 0.921261
vt 0.030818 0.752582
vt 0.033904 0.949449
vt 0.124045 0.993348
vt 0.039089 0.921278
vt 0.033906 0.050924
vt 0.013352 0.164644
vt 0.030818 0.752554
vt 0.029272 0.341279
vt 0.038482 0.088114
vt 0.086088 0.228433
s 1
f 39/1/1 9/2/2 44/3/3
f 21/4/4 6/5/5 36/6/6
f 11/7/7 10/8/8 12/9/9
f 11/7/7 12/9/9 13/10/10
f 9/2/2 13/10/10 15/11/11
f 18/12/12 4/13/13 19/14/14
f 13/10/10 14/15/15 15/11/11
f 17/16/16 7/17/17 2/18/18
f 23/19/19 26/20/20 25/21/21
f 16/22/22 6/5/5 21/4/4
f 1/23/23 9/2/2 6/5/5
f 6/5/5 9/2/2 36/6/6
f 11/7/7 8/24/24 10/8/8
f 2/18/18 15/11/11 14/15/15
f 2/18/18 14/15/15 3/25/25
f 3/25/25 12/9/9 4/13/13
f 4/13/13 12/9/9 10/8/8
f 5/26/26 10/8/8 8/24/24
f 25/21/21 26/20/20 28/27/27
f 26/20/20 27/28/28 29/29/29
f 28/27/27 26/20/20 29/29/29
f 30/30/30 29/29/29 27/28/28
f 16/22/22 24/31/31 23/19/19
f 21/4/4 53/32/32 24/31/31
f 22/33/33 27/28/28 59/34/34
f 17/16/16 27/28/28 22/33/33
f 18/12/12 28/27/27 30/30/30
f 20/35/35 25/21/21 19/14/14
f 16/22/22 23/19/19 20/35/35
f 16/22/22 5/26/26 1/23/23
f 17/16/16 3/25/25 18/12/12
f 44/3/3 41/36/36 39/1/1
f 49/37/37 35/38/38 48/39/39
f 42/40/40 41/36/36 44/3/3
f 34/41/41 47/42/42 48/39/39
f 43/43/43 44/3/3 45/44/44
f 46/45/45 37/46/46 51/47/47
f 37/46/46 22/33/33 51/47/47
f 54/48/48 52/49/49 55/50/50
f 36/6/6 31/51/51 50/52/52
f 39/1/1 31/51/51 36/6/6
f 41/36/36 38/53/53 39/1/1
f 37/46/46 45/44/44 7/17/17
f 32/54/54 45/44/44 37/46/46
f 43/43/43 32/54/54 33/55/55
f 42/40/40 33/55/55 34/41/41
f 35/38/38 40/56/56 34/41/41
f 31/51/51 38/53/53 35/38/38
f 54/48/48 55/50/50 56/57/57
f 58/58/58 57/59/59 56/57/57
f 27/28/28 54/48/48 59/34/34
f 31/51/51 53/32/32 50/52/52
f 22/33/33 59/34/34 51/47/47
f 59/34/34 46/45/45 51/47/47
f 46/45/45 58/58/58 47/42/42
f 47/42/42 56/57/57 48/39/39
f 55/50/50 49/37/37 48/39/39
f 52/49/49 31/51/51 49/37/37
f 31/51/51 35/38/38 49/37/37
f 33/55/55 46/45/45 47/42/42
f 20/35/35 19/14/14 5/26/26
f 4/13/13 5/26/26 19/14/14
f 9/2/2 11/7/7 13/10/10
f 13/10/10 12/9/9 14/15/15
f 18/12/12 3/25/25 4/13/13
f 44/3/3 9/2/2 15/11/11
f 17/16/16 22/33/33 7/17/17
f 23/19/19 24/31/31 26/20/20
f 16/22/22 1/23/23 6/5/5
f 1/23/23 8/24/24 9/2/2
f 11/7/7 9/2/2 8/24/24
f 7/17/17 45/44/44 15/11/11
f 2/18/18 7/17/17 15/11/11
f 3/25/25 14/15/15 12/9/9
f 5/26/26 4/13/13 10/8/8
f 1/23/23 5/26/26 8/24/24
f 27/28/28 24/31/31 54/48/48
f 54/48/48 24/31/31 53/32/32
f 26/20/20 24/31/31 27/28/28
f 30/30/30 28/27/27 29/29/29
f 16/22/22 21/4/4 24/31/31
f 21/4/4 50/52/52 53/32/32
f 17/16/16 30/30/30 27/28/28
f 17/16/16 18/12/12 30/30/30
f 18/12/12 19/14/14 28/27/27
f 19/14/14 25/21/21 28/27/27
f 20/35/35 23/19/19 25/21/21
f 16/22/22 20/35/35 5/26/26
f 17/16/16 2/18/18 3/25/25
f 50/52/52 21/4/4 36/6/6
f 41/36/36 42/40/40 40/56/56
f 48/39/39 35/38/38 34/41/41
f 43/43/43 42/40/40 44/3/3
f 34/41/41 33/55/55 47/42/42
f 45/44/44 44/3/3 15/11/11
f 46/45/45 32/54/54 37/46/46
f 37/46/46 7/17/17 22/33/33
f 39/1/1 38/53/53 31/51/51
f 9/2/2 39/1/1 36/6/6
f 41/36/36 40/56/56 38/53/53
f 32/54/54 43/43/43 45/44/44
f 42/40/40 43/43/43 33/55/55
f 34/41/41 40/56/56 42/40/40
f 35/38/38 38/53/53 40/56/56
f 54/48/48 53/32/32 52/49/49
f 56/57/57 57/59/59 54/48/48
f 57/59/59 59/34/34 54/48/48
f 58/58/58 59/34/34 57/59/59
f 31/51/51 52/49/49 53/32/32
f 59/34/34 58/58/58 46/45/45
f 47/42/42 58/58/58 56/57/57
f 56/57/57 55/50/50 48/39/39
f 55/50/50 52/49/49 49/37/37
f 33/55/55 32/54/54 46/45/45
