# Blender 4.2.3 LTS
# www.blender.org
o taillights
v -1.661923 1.560090 -3.968031
v -1.687889 1.422229 -4.020224
v -1.681795 1.503596 -3.989279
v -1.672554 1.536573 -3.976478
v -0.791253 1.658088 -4.345166
v -0.809649 1.648257 -4.340549
v -0.762854 1.571308 -4.406961
v -0.754804 1.538144 -4.426101
v -0.751566 1.472898 -4.447163
v -0.853646 1.459385 -4.395257
v -0.845715 1.423687 -4.416859
v -0.837406 1.401135 -4.430583
v -0.906267 1.657073 -4.284206
v -1.258413 1.646719 -4.118111
v -1.481839 1.591691 -4.037123
v -1.629776 1.570130 -3.978378
v -0.776132 1.416599 -4.450400
v -0.749472 1.436978 -4.451709
v -0.728210 1.450874 -4.458810
v -0.801721 1.408247 -4.444719
v -0.764141 1.450638 -4.442937
v -0.749120 1.503777 -4.440576
v -0.774521 1.601727 -4.385366
v -0.790411 1.627848 -4.362787
v -0.879550 1.392157 -4.406882
v -0.936023 1.533279 -4.318598
v -0.863441 1.624939 -4.322413
v -0.921826 1.375962 -4.379551
v -0.950036 1.435339 -4.344593
v -0.967643 1.356228 -4.354302
v -1.019322 1.336775 -4.332741
v -1.007770 1.443770 -4.309271
v -0.965322 1.613883 -4.274483
v -1.076928 1.318675 -4.314629
v -1.066452 1.466869 -4.273782
v -1.055465 1.681605 -4.212889
v -1.140050 1.301744 -4.298648
v -1.132168 1.348317 -4.286924
v -1.154754 1.555100 -4.204303
v -1.197717 1.331361 -4.269975
v -1.255386 1.359687 -4.239061
v -1.191921 1.499322 -4.209101
v -1.219111 1.601785 -4.156954
v -1.265425 1.315816 -4.249364
v -1.323775 1.401111 -4.198197
v -1.322508 1.345276 -4.216609
v -1.297012 1.544786 -4.144175
v -1.385732 1.332538 -4.190935
v -1.411809 1.382493 -4.167015
v -1.414495 1.445721 -4.140401
v -1.444484 1.323324 -4.165317
v -1.552073 1.311078 -4.116588
v -1.646569 1.338562 -4.065853
v -1.645373 1.381552 -4.054443
v -1.647215 1.298641 -4.075227
v -1.643245 1.424982 -4.040712
v -0.844497 1.700793 -4.286127
v -0.888411 1.713072 -4.247501
v -0.936745 1.721207 -4.206371
v -1.180046 1.713357 -4.077339
v -1.245982 1.704463 -4.052329
v -1.314727 1.693080 -4.028447
v -1.461598 1.667136 -3.980400
v -0.823607 1.675237 -4.316761
v -0.862018 1.690101 -4.286821
v -0.954162 1.713218 -4.223598
v -1.008364 1.719630 -4.194038
v -1.065641 1.718323 -4.163502
v -1.125306 1.711928 -4.132792
v -1.187317 1.703067 -4.103763
v -1.252442 1.693017 -4.076629
v -1.321313 1.682504 -4.051184
v -1.464854 1.657827 -3.997645
v -0.904245 1.695620 -4.263772
v -1.067090 1.708777 -4.192671
v -1.254713 1.678938 -4.100449
v -1.465913 1.635899 -4.020346
v -1.531588 1.620190 -3.995025
v -1.592407 1.607031 -3.973585
v -1.642137 1.591296 -3.958740
v 1.654077 1.560090 -3.968031
v 1.680043 1.422229 -4.020224
v 1.673949 1.503596 -3.989279
v 1.664707 1.536573 -3.976478
v 0.783406 1.658088 -4.345166
v 0.801802 1.648257 -4.340549
v 0.878610 1.618917 -4.311987
v 0.755008 1.571308 -4.406961
v 0.746957 1.538144 -4.426101
v 0.742925 1.472690 -4.447134
v 0.839726 1.451747 -4.401880
v 0.837869 1.423687 -4.416859
v 0.829560 1.401135 -4.430583
v 0.876187 1.664966 -4.290386
v 1.056174 1.684146 -4.208288
v 1.245979 1.648014 -4.119997
v 1.470652 1.595354 -4.036915
v 1.621945 1.570142 -3.978379
v 0.768286 1.416599 -4.450400
v 0.741625 1.436978 -4.451709
v 0.720364 1.450874 -4.458810
v 0.793875 1.408247 -4.444719
v 0.756210 1.450559 -4.442928
v 0.741274 1.503777 -4.440576
v 0.766675 1.601727 -4.385366
v 0.782565 1.627848 -4.362787
v 0.871704 1.392157 -4.406882
v 0.928177 1.533280 -4.318598
v 0.913980 1.375962 -4.379551
v 0.942190 1.435339 -4.344593
v 0.959797 1.356228 -4.354302
v 0.957475 1.613883 -4.274483
v 1.011476 1.336775 -4.332741
v 0.999923 1.443770 -4.309271
v 1.069082 1.318675 -4.314629
v 1.058606 1.466869 -4.273782
v 1.132203 1.301744 -4.298648
v 1.124322 1.348317 -4.286924
v 1.146908 1.555100 -4.204303
v 1.189871 1.331361 -4.269975
v 1.247540 1.359687 -4.239061
v 1.184075 1.499322 -4.209101
v 1.211265 1.601785 -4.156954
v 1.257579 1.315816 -4.249364
v 1.315929 1.401111 -4.198197
v 1.314661 1.345276 -4.216609
v 1.281673 1.543089 -4.148151
v 1.377886 1.332538 -4.190935
v 1.403964 1.382493 -4.167014
v 1.406649 1.445721 -4.140401
v 1.436638 1.323324 -4.165317
v 1.544227 1.311078 -4.116587
v 1.638722 1.338562 -4.065853
v 1.637527 1.381552 -4.054443
v 1.639369 1.298641 -4.075227
v 1.635399 1.424982 -4.040712
v 0.833881 1.696876 -4.286036
v 0.928899 1.721207 -4.206371
v 1.172200 1.713357 -4.077339
v 1.238136 1.704463 -4.052329
v 1.306881 1.693080 -4.028447
v 1.453185 1.666087 -3.980395
v 0.815432 1.675027 -4.316870
v 0.853663 1.689666 -4.286802
v 0.906146 1.693478 -4.260969
v 0.946457 1.713906 -4.223630
v 1.000518 1.719630 -4.194038
v 1.057795 1.718323 -4.163502
v 1.117460 1.711928 -4.132792
v 1.179471 1.703067 -4.103763
v 1.244596 1.693017 -4.076629
v 1.313467 1.682504 -4.051184
v 1.456410 1.656734 -3.997873
v 1.057540 1.709826 -4.192837
v 1.239825 1.680325 -4.103558
v 1.457919 1.635748 -4.020332
v 1.523742 1.620190 -3.995025
v 1.584560 1.607031 -3.973585
v 1.634291 1.591296 -3.958740
vn -0.3000 0.3039 -0.9042
vn -0.4500 0.4291 -0.7832
vn -0.5315 0.3453 -0.7735
vn -0.4610 0.0929 -0.8825
vn -0.4053 0.3940 -0.8249
vn -0.6005 0.4313 -0.6733
vn -0.5029 0.3630 -0.7845
vn -0.5009 0.2883 -0.8161
vn -0.5418 0.2201 -0.8111
vn -0.4255 0.3989 -0.8123
vn -0.4417 0.2055 -0.8733
vn -0.4686 0.2886 -0.8349
vn -0.3583 0.2368 -0.9031
vn -0.4135 0.2803 -0.8663
vn -0.3043 0.2731 -0.9126
vn -0.4162 0.2677 -0.8690
vn -0.3560 0.3129 -0.8805
vn -0.4296 0.2789 -0.8589
vn -0.3388 0.2879 -0.8957
vn -0.3897 0.3335 -0.8585
vn -0.3585 0.2850 -0.8889
vn -0.3861 0.3350 -0.8595
vn -0.4089 0.2774 -0.8694
vn -0.4181 0.2055 -0.8849
vn -0.3774 0.3456 -0.8591
vn -0.4231 0.2084 -0.8818
vn -0.4096 0.3391 -0.8469
vn -0.3795 0.4113 -0.8288
vn -0.4129 0.2145 -0.8852
vn -0.4003 0.3562 -0.8444
vn -0.5154 0.2989 -0.8032
vn -0.4997 0.2436 -0.8313
vn -0.3689 0.3069 -0.8773
vn -0.3954 0.3652 -0.8428
vn -0.4084 0.3510 -0.8426
vn -0.3412 0.6058 -0.7188
vn -0.2617 0.9215 -0.2868
vn -0.2802 0.8989 -0.3369
vn -0.1907 0.7898 -0.5829
vn -0.3126 0.8829 -0.3504
vn -0.3603 0.7592 -0.5420
vn -0.3825 0.4897 -0.7835
vn -0.4009 0.4754 -0.7831
vn -0.4431 0.4054 -0.7996
vn -0.3214 0.4566 -0.8296
vn -0.4109 0.4166 -0.8109
vn -0.4535 0.4459 -0.7717
vn -0.4382 0.4562 -0.7745
vn 0.2729 0.2983 -0.9146
vn 0.4014 0.1528 -0.9031
vn 0.4537 0.4255 -0.7830
vn 0.5315 0.3453 -0.7735
vn 0.4053 0.3957 -0.8241
vn 0.6005 0.4313 -0.6733
vn 0.4968 0.3829 -0.7789
vn 0.5020 0.2882 -0.8154
vn 0.5418 0.2201 -0.8111
vn 0.4417 0.2055 -0.8733
vn 0.4686 0.2886 -0.8349
vn 0.3583 0.2368 -0.9031
vn 0.4135 0.2803 -0.8663
vn 0.3043 0.2731 -0.9126
vn 0.4173 0.2666 -0.8688
vn 0.3560 0.3129 -0.8805
vn 0.4312 0.2766 -0.8588
vn 0.3388 0.2879 -0.8957
vn 0.3897 0.3335 -0.8585
vn 0.3585 0.2850 -0.8889
vn 0.3865 0.3348 -0.8594
vn 0.4089 0.2774 -0.8694
vn 0.4181 0.2055 -0.8849
vn 0.3774 0.3456 -0.8591
vn 0.4231 0.2084 -0.8818
vn 0.4096 0.3391 -0.8469
vn 0.3797 0.4109 -0.8289
vn 0.4129 0.2145 -0.8852
vn 0.4003 0.3562 -0.8444
vn 0.5154 0.2989 -0.8032
vn 0.5004 0.2368 -0.8328
vn 0.4137 0.4044 -0.8157
vn 0.3668 0.3108 -0.8768
vn 0.4084 0.3510 -0.8426
vn 0.0499 0.9370 -0.3457
vn 0.2561 0.8990 -0.3554
vn 0.2936 0.8643 -0.4083
vn 0.4153 0.4899 -0.7665
vn 0.1598 0.8730 -0.4608
vn 0.1685 0.9464 -0.2756
vn 0.2399 0.9319 -0.2720
vn 0.3203 0.8462 -0.4259
vn 0.3163 0.8353 -0.4497
vn 0.2948 0.8432 -0.4496
vn 0.3581 0.6941 -0.6245
vn 0.3886 0.4948 -0.7773
vn 0.3822 0.4892 -0.7840
vn 0.4112 0.4541 -0.7904
vn 0.3972 0.4529 -0.7982
vn 0.4482 0.4717 -0.7593
vn 0.3175 0.4764 -0.8199
vn 0.4392 0.4593 -0.7721
vn -0.2715 0.2964 -0.9156
vn -0.4003 0.1506 -0.9039
vn -0.4557 0.3994 -0.7955
vn -0.6333 0.2091 -0.7451
vn -0.3976 0.4088 -0.8215
vn -0.3914 0.3689 -0.8431
vn -0.5382 0.2229 -0.8128
vn -0.4322 0.3070 -0.8479
vn -0.4816 0.2371 -0.8437
vn -0.4675 0.2876 -0.8359
vn -0.4188 0.2687 -0.8674
vn -0.3973 0.2691 -0.8773
vn -0.3296 0.2826 -0.9008
vn -0.3797 0.3072 -0.8726
vn -0.3153 0.3293 -0.8900
vn -0.3144 0.3336 -0.8887
vn -0.3241 0.3370 -0.8840
vn -0.3580 0.3863 -0.8500
vn -0.4063 0.3677 -0.8365
vn -0.3686 0.2379 -0.8986
vn -0.3530 0.3862 -0.8522
vn -0.3754 0.4136 -0.8294
vn -0.4188 0.1966 -0.8865
vn -0.4219 0.2435 -0.8733
vn -0.4041 0.2937 -0.8663
vn -0.3836 0.4256 -0.8195
vn -0.4618 0.3365 -0.8207
vn -0.4856 0.3455 -0.8030
vn -0.4856 0.3512 -0.8005
vn -0.4454 0.3299 -0.8323
vn -0.3857 0.4460 -0.8077
vn -0.3995 0.4644 -0.7904
vn -0.1678 0.8683 -0.4668
vn -0.1144 0.9403 -0.3204
vn -0.2561 0.8990 -0.3554
vn -0.2876 0.8644 -0.4124
vn -0.2479 0.7357 -0.6303
vn -0.1690 0.8524 -0.4948
vn -0.1802 0.9375 -0.2978
vn -0.2484 0.9242 -0.2901
vn -0.3227 0.8420 -0.4324
vn -0.3193 0.8288 -0.4594
vn -0.2988 0.8338 -0.4643
vn -0.3559 0.6804 -0.6406
vn -0.3885 0.4945 -0.7775
vn -0.3822 0.4889 -0.7841
vn -0.4129 0.4494 -0.7922
vn -0.3954 0.4470 -0.8024
vn -0.4486 0.4687 -0.7610
vn -0.3200 0.4736 -0.8205
vn -0.3824 0.4484 -0.8079
vn -0.4106 0.4891 -0.7696
vn 0.3003 0.3056 -0.9036
vn 0.4495 0.3986 -0.7994
vn 0.4575 0.3982 -0.7951
vn 0.6814 0.1855 -0.7080
vn 0.4381 0.0931 -0.8941
vn 0.3973 0.4116 -0.8202
vn 0.3907 0.3692 -0.8432
vn 0.5382 0.2229 -0.8128
vn 0.4243 0.3112 -0.8504
vn 0.4816 0.2371 -0.8437
vn 0.4675 0.2876 -0.8359
vn 0.4188 0.2687 -0.8674
vn 0.3971 0.2690 -0.8775
vn 0.3296 0.2826 -0.9008
vn 0.3797 0.3072 -0.8726
vn 0.3153 0.3293 -0.8900
vn 0.3144 0.3336 -0.8887
vn 0.3241 0.3370 -0.8840
vn 0.3579 0.3860 -0.8502
vn 0.4077 0.3635 -0.8376
vn 0.3686 0.2379 -0.8986
vn 0.3533 0.3857 -0.8523
vn 0.3967 0.3614 -0.8438
vn 0.3740 0.4140 -0.8299
vn 0.4188 0.1966 -0.8865
vn 0.4219 0.2435 -0.8733
vn 0.4041 0.2937 -0.8663
vn 0.3841 0.4257 -0.8193
vn 0.4577 0.3419 -0.8208
vn 0.4856 0.3455 -0.8030
vn 0.4856 0.3431 -0.8040
vn 0.4490 0.3274 -0.8314
vn 0.3866 0.4468 -0.8068
vn 0.3998 0.4645 -0.7902
vn 0.2487 0.7478 -0.6156
vn 0.2640 0.6973 -0.6664
vn 0.2617 0.9215 -0.2868
vn 0.2866 0.8977 -0.3346
vn 0.3671 0.4527 -0.8126
vn 0.2019 0.7509 -0.6288
vn 0.3106 0.8873 -0.3410
vn 0.3614 0.7603 -0.5398
vn 0.3841 0.4943 -0.7799
vn 0.4010 0.4749 -0.7834
vn 0.4460 0.4439 -0.7772
vn 0.3142 0.5015 -0.8061
vn 0.4166 0.4740 -0.7757
vt 0.484375 0.718750
vt 0.515656 0.734375
vt 0.484375 0.734375
vt 0.625000 0.734375
vt 0.611620 0.769172
vt 0.609009 0.734009
vt 0.578139 0.734438
vt 0.593750 0.734375
vt 0.531250 0.734374
vt 0.515625 0.768926
vt 0.484375 0.750000
vt 0.500000 0.757533
vt 0.484375 0.781250
vt 0.484375 0.765625
vt 0.508881 0.796953
vt 0.565493 0.792304
vt 0.484375 0.796875
vt 0.621958 0.789186
vt 0.599201 0.804372
vt 0.484375 0.812500
vt 0.526421 0.812500
vt 0.484375 0.828125
vt 0.543637 0.828125
vt 0.484375 0.843750
vt 0.625793 0.834407
vt 0.570444 0.860560
vt 0.559947 0.866876
vt 0.500007 0.843750
vt 0.605546 0.873967
vt 0.515625 0.875000
vt 0.500000 0.875000
vt 0.500000 0.859375
vt 0.537038 0.893257
vt 0.515625 0.890625
vt 0.587211 0.894350
vt 0.515625 0.906250
vt 0.535495 0.915257
vt 0.515625 0.921875
vt 0.563112 0.917678
vt 0.515625 0.953312
vt 0.546875 0.984316
vt 0.621326 0.941519
vt 0.593425 0.999599
vt 0.531250 0.984196
vt 0.515625 0.984371
vt 0.562500 0.984375
vt 0.562429 0.734460
vt 0.624868 0.888033
vt 0.562500 1.000000
vt 0.656250 0.703125
vt 0.687511 0.718750
vt 0.656250 0.718758
vt 0.750000 0.703125
vt 0.765625 0.718750
vt 0.750000 0.718750
vt 0.781250 0.703125
vt 0.813818 0.718750
vt 0.781250 0.718750
vt 0.714794 0.734375
vt 0.670883 0.734375
vt 0.734375 0.718750
vt 0.764072 0.734375
vt 0.812445 0.734375
vt 0.828125 0.734375
vt 0.859374 0.750000
vt 0.816295 0.750000
vt 0.763048 0.750000
vt 0.709426 0.750000
vt 0.664186 0.750000
vt 0.640625 0.718949
vt 0.624734 0.757909
vt 0.625000 0.718750
vt 0.515633 0.734375
vt 0.500000 0.718750
vt 0.515625 0.718750
vt 0.604564 0.778820
vt 0.508881 0.796953
vt 0.515625 0.764505
vt 0.565493 0.792304
vt 0.526421 0.812500
vt 0.543636 0.828125
vt 0.570444 0.860560
vt 0.625085 0.837422
vt 0.605546 0.873967
vt 0.585237 0.893133
vt 0.563112 0.917678
vt 0.593425 0.999599
vt 0.615402 0.944277
vt 0.531250 0.984196
vt 0.562429 0.734460
vt 0.531250 0.734378
vt 0.625000 0.783437
vt 0.656254 0.703125
vt 0.687500 0.718750
vt 0.687500 0.703125
vt 0.765625 0.703125
vt 0.813690 0.718750
vt 0.812526 0.703125
vt 0.640625 0.718750
vt 0.658476 0.747689
vt 0.656250 0.718750
vt 0.714604 0.734375
vt 0.703125 0.718750
vt 0.718750 0.718750
vt 0.762253 0.734375
vt 0.812450 0.734375
vt 0.843750 0.734375
vt 0.859374 0.750000
vt 0.859375 0.734375
vt 0.816141 0.750000
vt 0.761198 0.750000
vt 0.672911 0.734483
vt 0.712435 0.750000
vt 0.546875 0.734375
vt 0.609375 0.999951
vt 0.625000 0.984374
vt 0.625000 1.000000
vt 0.671875 0.703125
vt 0.812531 0.703125
vt 0.625786 0.886198
vt 0.609375 0.999951
vt 0.625000 0.984374
s 0
f 17/1/1 20/3/1 21/2/1
f 6/4/2 24/6/2 27/5/2
f 24/6/3 23/8/3 7/7/3
f 21/2/4 10/10/4 9/9/4
f 21/2/5 20/3/5 12/11/5
f 11/12/6 25/14/6 28/13/6
f 10/10/7 11/12/7 29/15/7
f 26/16/8 10/10/8 29/15/8
f 29/15/9 28/13/9 30/17/9
f 13/18/10 27/5/10 33/19/10
f 29/15/11 30/17/11 31/20/11
f 26/16/12 29/15/12 32/21/12
f 32/21/13 31/20/13 34/22/13
f 33/19/14 32/21/14 35/23/14
f 35/23/15 34/22/15 37/24/15
f 36/25/16 35/23/16 39/26/16
f 39/26/17 38/28/17 42/27/17
f 36/25/18 39/26/18 43/29/18
f 41/30/19 40/32/19 44/31/19
f 43/29/20 39/26/20 42/27/20
f 45/33/21 41/30/21 46/34/21
f 43/29/22 42/27/22 47/35/22
f 45/33/23 46/34/23 48/36/23
f 49/37/24 48/36/24 51/38/24
f 50/39/25 45/33/25 49/37/25
f 49/37/26 51/38/26 52/40/26
f 50/39/27 49/37/27 54/41/27
f 15/42/28 50/39/28 3/43/28
f 53/44/29 52/40/29 55/45/29
f 3/43/30 50/39/30 56/46/30
f 11/12/31 12/11/31 25/14/31
f 8/47/32 9/9/32 26/16/32
f 13/18/33 33/19/33 36/25/33
f 14/48/34 47/35/34 15/42/34
f 3/43/35 56/46/35 2/49/35
f 57/50/36 65/52/36 66/51/36
f 60/53/37 70/55/37 71/54/37
f 62/56/38 72/58/38 73/57/38
f 66/51/39 74/60/39 75/59/39
f 69/61/40 75/59/40 76/62/40
f 72/58/41 76/62/41 77/63/41
f 78/64/42 15/66/42 16/65/42
f 76/62/43 14/67/43 15/66/43
f 75/59/44 36/68/44 14/67/44
f 74/60/45 13/69/45 36/68/45
f 64/70/46 27/71/46 13/69/46
f 64/70/47 6/4/47 27/71/47
f 64/70/48 5/72/48 6/4/48
f 99/1/49 100/74/49 103/73/49
f 100/74/50 101/75/50 103/73/50
f 87/76/51 106/6/51 86/4/51
f 88/7/52 105/8/52 106/6/52
f 93/11/53 102/3/53 103/73/53
f 109/13/54 107/14/54 92/12/54
f 110/77/55 92/12/55 91/78/55
f 110/77/56 91/78/56 108/79/56
f 111/17/57 109/13/57 110/77/57
f 113/20/58 111/17/58 110/77/58
f 114/80/59 110/77/59 108/79/59
f 115/22/60 113/20/60 114/80/60
f 116/81/61 114/80/61 112/19/61
f 117/24/62 115/22/62 116/81/62
f 119/82/63 116/81/63 95/83/63
f 122/27/64 118/28/64 119/82/64
f 123/84/65 119/82/65 95/83/65
f 124/31/66 120/32/66 121/30/66
f 122/27/67 119/82/67 123/84/67
f 126/34/68 121/30/68 125/33/68
f 127/85/69 122/27/69 123/84/69
f 128/36/70 126/34/70 125/33/70
f 131/38/71 128/36/71 129/37/71
f 129/37/72 125/33/72 130/86/72
f 132/40/73 131/38/73 129/37/73
f 134/41/74 129/37/74 130/86/74
f 83/87/75 130/86/75 97/88/75
f 135/45/76 132/40/76 133/89/76
f 136/46/77 130/86/77 83/87/77
f 107/14/78 93/11/78 92/12/78
f 108/79/79 90/91/79 89/90/79
f 112/19/80 87/76/80 94/92/80
f 95/83/81 112/19/81 94/92/81
f 82/49/82 136/46/82 83/87/82
f 137/93/83 138/95/83 146/94/83
f 139/53/84 140/96/84 151/54/84
f 141/56/85 142/98/85 153/97/85
f 143/99/86 144/101/86 94/100/86
f 146/94/87 147/103/87 154/102/87
f 147/103/88 148/104/88 154/102/88
f 148/104/89 149/61/89 154/102/89
f 149/61/90 150/55/90 155/105/90
f 150/55/91 151/54/91 155/105/91
f 151/54/92 152/58/92 155/105/92
f 152/58/93 153/97/93 156/106/93
f 158/107/94 159/109/94 98/108/94
f 157/64/95 158/107/95 98/108/95
f 156/106/96 157/64/96 97/110/96
f 155/105/97 156/106/97 97/110/97
f 154/102/98 155/105/98 96/111/98
f 145/112/99 154/102/99 95/113/99
f 86/4/100 85/72/100 143/99/100
f 17/1/101 21/2/101 18/74/101
f 18/74/102 21/2/102 19/75/102
f 24/6/103 7/7/103 27/5/103
f 22/114/104 9/9/104 8/47/104
f 21/2/105 11/12/105 10/10/105
f 21/2/106 12/11/106 11/12/106
f 11/12/107 28/13/107 29/15/107
f 27/5/108 26/16/108 33/19/108
f 29/15/109 31/20/109 32/21/109
f 26/16/110 32/21/110 33/19/110
f 32/21/111 34/22/111 35/23/111
f 33/19/112 35/23/112 36/25/112
f 35/23/113 37/24/113 38/28/113
f 35/23/114 38/28/114 39/26/114
f 38/28/115 40/32/115 41/30/115
f 38/28/116 41/30/116 42/27/116
f 42/27/117 41/30/117 45/33/117
f 42/27/118 45/33/118 47/35/118
f 43/29/119 47/35/119 14/48/119
f 45/33/120 48/36/120 49/37/120
f 47/35/121 45/33/121 50/39/121
f 47/35/122 50/39/122 15/42/122
f 49/37/123 52/40/123 53/44/123
f 49/37/124 53/44/124 54/41/124
f 50/39/125 54/41/125 56/46/125
f 15/42/126 3/43/126 4/115/126
f 9/9/127 10/10/127 26/16/127
f 7/7/128 8/47/128 26/16/128
f 7/7/129 26/16/129 27/5/129
f 36/25/130 43/29/130 14/48/130
f 15/42/131 4/115/131 16/116/131
f 16/116/132 4/115/132 1/117/132
f 57/50/133 66/51/133 58/118/133
f 58/118/134 66/51/134 59/95/134
f 60/53/135 71/54/135 61/96/135
f 62/56/136 73/57/136 63/119/136
f 65/52/137 74/60/137 66/51/137
f 66/51/138 75/59/138 67/103/138
f 67/103/139 75/59/139 68/104/139
f 68/104/140 75/59/140 69/61/140
f 69/61/141 76/62/141 70/55/141
f 70/55/142 76/62/142 71/54/142
f 71/54/143 76/62/143 72/58/143
f 72/58/144 77/63/144 73/57/144
f 79/107/145 16/65/145 80/109/145
f 78/64/146 16/65/146 79/107/146
f 77/63/147 15/66/147 78/64/147
f 76/62/148 15/66/148 77/63/148
f 75/59/149 14/67/149 76/62/149
f 74/60/150 36/68/150 75/59/150
f 65/52/151 13/69/151 74/60/151
f 64/70/152 13/69/152 65/52/152
f 99/1/153 103/73/153 102/3/153
f 87/76/154 86/4/154 94/100/154
f 88/7/155 106/6/155 87/76/155
f 90/91/156 104/114/156 89/90/156
f 103/73/157 90/91/157 91/78/157
f 92/12/158 103/73/158 91/78/158
f 93/11/159 103/73/159 92/12/159
f 109/13/160 92/12/160 110/77/160
f 108/79/161 87/76/161 112/19/161
f 113/20/162 110/77/162 114/80/162
f 114/80/163 108/79/163 112/19/163
f 115/22/164 114/80/164 116/81/164
f 116/81/165 112/19/165 95/83/165
f 117/24/166 116/81/166 118/28/166
f 118/28/167 116/81/167 119/82/167
f 120/32/168 118/28/168 121/30/168
f 121/30/169 118/28/169 122/27/169
f 121/30/170 122/27/170 125/33/170
f 125/33/171 122/27/171 127/85/171
f 127/85/172 123/84/172 96/120/172
f 128/36/173 125/33/173 129/37/173
f 125/33/174 127/85/174 130/86/174
f 127/85/175 96/120/175 97/88/175
f 130/86/176 127/85/176 97/88/176
f 132/40/177 129/37/177 133/89/177
f 133/89/178 129/37/178 134/41/178
f 134/41/179 130/86/179 136/46/179
f 83/87/180 97/88/180 84/121/180
f 91/78/181 90/91/181 108/79/181
f 89/90/182 88/7/182 108/79/182
f 108/79/183 88/7/183 87/76/183
f 123/84/184 95/83/184 96/120/184
f 84/121/185 97/88/185 98/122/185
f 84/121/186 98/122/186 81/117/186
f 137/93/187 145/112/187 144/101/187
f 137/93/188 146/94/188 145/112/188
f 139/53/189 151/54/189 150/55/189
f 141/56/190 153/97/190 152/58/190
f 144/101/191 145/112/191 94/100/191
f 146/94/192 154/102/192 145/112/192
f 149/61/193 155/105/193 154/102/193
f 152/58/194 156/106/194 155/105/194
f 157/64/195 98/108/195 97/110/195
f 155/105/196 97/110/196 96/111/196
f 154/102/197 96/111/197 95/113/197
f 145/112/198 95/113/198 94/100/198
f 86/4/199 143/99/199 94/100/199
