# Blender 4.4.3
# www.blender.org
o Plane
v -50.000015 0.000000 50.000015
v 50.000015 0.000000 50.000015
v -50.000015 0.000000 -50.000015
v 50.000015 0.000000 -50.000015
v -50.000011 0.000000 -25.000004
v -50.000015 0.000000 0.000000
v -50.000011 0.000000 25.000004
v -25.000004 0.000000 50.000011
v 0.000000 0.000000 50.000015
v 25.000004 0.000000 50.000011
v 50.000011 0.000000 25.000004
v 50.000015 0.000000 0.000000
v 50.000011 0.000000 -25.000004
v 25.000004 0.000000 -50.000011
v 0.000000 0.000000 -50.000015
v -25.000008 0.000000 -50.000015
v -25.000002 0.000000 -25.000002
v -25.000004 0.000000 0.000000
v -25.000006 0.000000 25.000000
v 0.000000 0.000000 -25.000004
v -0.000002 0.000000 0.000002
v 0.000000 0.000000 25.000004
v 25.000004 0.000000 -25.000000
v 25.000004 0.000000 0.000000
v 25.000004 0.000000 25.000002
vn -0.0000 1.0000 -0.0000
vt 0.500000 0.750000
vt 0.750000 0.500000
vt 0.750000 0.750000
vt 0.250000 0.750000
vt 0.500000 0.500000
vt 0.500000 0.250000
vt 0.750000 0.250000
vt 0.250000 0.500000
vt 0.750000 1.000000
vt 1.000000 0.750000
vt 1.000000 1.000000
vt 0.500000 1.000000
vt 0.250000 1.000000
vt 0.000000 0.750000
vt 0.000000 0.500000
vt 0.250000 0.250000
vt 0.000000 0.250000
vt 0.250000 0.000000
vt 0.500000 0.000000
vt 0.750000 0.000000
vt 1.000000 0.000000
vt 1.000000 0.250000
vt 1.000000 0.500000
vt 0.000000 1.000000
vt 0.000000 0.000000
s 0
f 18/1/1 20/2/1 17/3/1
f 19/4/1 21/5/1 18/1/1
f 20/2/1 24/6/1 23/7/1
f 22/8/1 24/6/1 21/5/1
f 5/9/1 16/10/1 3/11/1
f 6/12/1 17/3/1 5/9/1
f 7/13/1 18/1/1 6/12/1
f 7/13/1 8/14/1 19/4/1
f 8/14/1 22/8/1 19/4/1
f 9/15/1 25/16/1 22/8/1
f 10/17/1 11/18/1 25/16/1
f 24/6/1 11/18/1 12/19/1
f 24/6/1 13/20/1 23/7/1
f 23/7/1 4/21/1 14/22/1
f 20/2/1 14/22/1 15/23/1
f 17/3/1 15/23/1 16/10/1
f 18/1/1 21/5/1 20/2/1
f 19/4/1 22/8/1 21/5/1
f 20/2/1 21/5/1 24/6/1
f 22/8/1 25/16/1 24/6/1
f 5/9/1 17/3/1 16/10/1
f 6/12/1 18/1/1 17/3/1
f 7/13/1 19/4/1 18/1/1
f 7/13/1 1/24/1 8/14/1
f 8/14/1 9/15/1 22/8/1
f 9/15/1 10/17/1 25/16/1
f 10/17/1 2/25/1 11/18/1
f 24/6/1 25/16/1 11/18/1
f 24/6/1 12/19/1 13/20/1
f 23/7/1 13/20/1 4/21/1
f 20/2/1 23/7/1 14/22/1
f 17/3/1 20/2/1 15/23/1
