# Blender 4.4.3
# www.blender.org
o Plane
v -50.000015 0.000000 50.000015
v 50.000015 0.000000 50.000015
v -50.000015 0.000000 -50.000015
v 50.000015 0.000000 -50.000015
v -50.000015 0.000000 0.000000
v 0.000000 0.000000 50.000015
v 50.000015 0.000000 0.000000
v 0.000000 0.000000 -50.000015
v -0.000002 0.000000 0.000002
vn -0.0000 1.0000 -0.0000
vt 0.500000 1.000000
vt 1.000000 0.500000
vt 1.000000 1.000000
vt 0.000000 1.000000
vt 0.500000 0.500000
vt 0.000000 0.500000
vt 0.500000 0.000000
vt 1.000000 0.000000
vt 0.000000 0.000000
s 0
f 5/1/1 8/2/1 3/3/1
f 1/4/1 9/5/1 5/1/1
f 6/6/1 7/7/1 9/5/1
f 9/5/1 4/8/1 8/2/1
f 5/1/1 9/5/1 8/2/1
f 1/4/1 6/6/1 9/5/1
f 6/6/1 2/9/1 7/7/1
f 9/5/1 7/7/1 4/8/1
